<svg width="171" height="117" viewBox="0 0 171 117" fill="none" xmlns="http://www.w3.org/2000/svg">
<path d="M10.4892 116.807C17.3125 117.928 23.7546 113.293 24.8779 106.455C26.0012 99.6164 21.3804 93.1641 14.557 92.0433C7.7336 90.9225 1.29153 95.5574 0.168222 102.396C-0.955082 109.234 3.66575 115.686 10.4892 116.807Z" fill="black"/>
<path d="M20.297 86.7783C27.1204 87.8991 33.5625 83.2641 34.6858 76.4257C35.8091 69.5874 31.1882 63.1351 24.3648 62.0143C17.5414 60.8934 11.0994 65.5284 9.97606 72.3668C8.85276 79.2052 13.4736 85.6574 20.297 86.7783Z" fill="black"/>
<path d="M39.1763 61.3248C45.9997 62.4456 52.4418 57.8107 53.5651 50.9723C54.6884 44.1339 50.0676 37.6817 43.2442 36.5608C36.4208 35.44 29.9787 40.075 28.8554 46.9133C27.7321 53.7517 32.3529 60.204 39.1763 61.3248Z" fill="black"/>
<path d="M64.1892 41.8869C71.0126 43.0077 77.4547 38.3728 78.578 31.5344C79.7013 24.696 75.0805 18.2438 68.2571 17.1229C61.4337 16.0021 54.9916 20.6371 53.8683 27.4754C52.745 34.3138 57.3658 40.766 64.1892 41.8869Z" fill="black"/>
<path d="M93.397 29.5066C100.22 30.6274 106.662 25.9924 107.786 19.1541C108.909 12.3157 104.288 5.86346 97.4648 4.74262C90.6414 3.62177 84.1993 8.25675 83.076 15.0951C81.9527 21.9335 86.5736 28.3857 93.397 29.5066Z" fill="black"/>
<path d="M124.789 24.9311C131.613 26.0519 138.055 21.417 139.178 14.5786C140.301 7.7402 135.681 1.28798 128.857 0.167135C122.034 -0.953709 115.592 3.68127 114.468 10.5196C113.345 17.358 117.966 23.8103 124.789 24.9311Z" fill="black"/>
<path d="M156.288 29.0056C163.111 30.1265 169.553 25.4915 170.676 18.6531C171.8 11.8147 167.179 5.36252 160.355 4.24167C153.532 3.12083 147.09 7.75581 145.967 14.5942C144.843 21.4326 149.464 27.8848 156.288 29.0056Z" fill="black"/>
</svg>
