<svg width="280" height="136" viewBox="0 0 280 136" fill="none" xmlns="http://www.w3.org/2000/svg">
<path d="M211.529 0C249.175 0 279.692 30.3334 279.692 67.7516C279.692 105.17 249.175 135.503 211.529 135.503C198.38 135.503 186.101 131.801 175.688 125.39C165.274 131.801 152.995 135.503 139.846 135.503C126.697 135.503 114.418 131.801 104.005 125.39C93.5913 131.801 81.3123 135.503 68.163 135.503C30.5176 135.503 0 105.17 0 67.7516C0 30.3334 30.5176 0 68.163 0C81.3122 0 93.5914 3.70132 104.005 10.1122C114.418 3.70132 126.697 0 139.846 0C152.995 0 165.275 3.70132 175.688 10.1122C186.101 3.70132 198.38 0 211.529 0Z" fill="black"/>
<path d="M105.353 123.227C115.373 129.396 127.187 132.958 139.846 132.958V135.503C126.697 135.503 114.418 131.801 104.005 125.39C93.5913 131.801 81.3123 135.503 68.163 135.503V132.958C80.8222 132.958 92.6363 129.396 102.656 123.227L104.005 122.397L105.353 123.227ZM177.036 123.227C187.056 129.396 198.87 132.958 211.529 132.958V135.503C198.38 135.503 186.101 131.801 175.688 125.39C165.274 131.801 152.995 135.503 139.846 135.503V132.958C152.505 132.958 164.319 129.396 174.34 123.227L175.688 122.397L177.036 123.227ZM277.132 67.7516C277.132 31.7388 247.761 2.54466 211.529 2.54466C198.87 2.54466 187.056 6.10662 177.036 12.2754L175.688 13.1054L174.34 12.2754C164.32 6.10662 152.505 2.54466 139.846 2.54466C127.187 2.54466 115.373 6.10662 105.353 12.2754L104.005 13.1054L102.656 12.2754C92.6364 6.10662 80.8222 2.54466 68.163 2.54466C31.9315 2.54466 2.56011 31.7388 2.56011 67.7516C2.56011 103.764 31.9315 132.958 68.163 132.958V135.503C30.5176 135.503 0 105.17 0 67.7516C0 30.3334 30.5176 0 68.163 0C81.3122 0 93.5914 3.70132 104.005 10.1122C114.418 3.70132 126.697 0 139.846 0C152.995 0 165.275 3.70132 175.688 10.1122C186.101 3.70132 198.38 0 211.529 0C249.175 0 279.692 30.3334 279.692 67.7516C279.692 105.17 249.175 135.503 211.529 135.503V132.958C247.761 132.958 277.132 103.764 277.132 67.7516Z" fill="white"/>
</svg>
