<svg width="202" height="139" viewBox="0 0 202 139" fill="none" xmlns="http://www.w3.org/2000/svg">
<g clip-path="url(#clip0_3460_1313)">
<mask id="mask0_3460_1313" style="mask-type:luminance" maskUnits="userSpaceOnUse" x="0" y="0" width="202" height="139">
<path d="M202 0H0V138.661H202V0Z" fill="white"/>
</mask>
<g mask="url(#mask0_3460_1313)">
<path d="M-1.63556 8.43058C-5.71189 5.54801 -10.4422 6.79688 -10.9653 6.94936C-11.4449 7.08732 -12.6148 6.89127 -13.0217 6.60084L-13.9227 5.96188C-14.3296 5.67871 -14.9036 4.6404 -14.9327 4.1394C-14.9617 3.59483 -15.3541 -1.27722 -19.4305 -4.15979C-24.6621 -7.86283 -31.9356 -6.62122 -35.634 -1.39339C-39.3325 3.83444 -38.0973 11.1026 -32.8656 14.7984C-28.7893 17.6809 -24.059 16.4321 -23.5358 16.2796C-23.0563 16.1416 -21.8864 16.3377 -21.4868 16.6281L-20.5858 17.2671C-20.1789 17.5502 -19.6048 18.5886 -19.5758 19.0896C-19.5467 19.6341 -19.1543 24.5062 -15.078 27.3887C-9.84635 31.0918 -2.5729 29.8502 1.12559 24.6223C4.83135 19.3945 3.58883 12.1264 -1.64282 8.43058H-1.63556Z" fill="black"/>
<path d="M59.0129 8.43058C54.9365 5.54801 50.2063 6.79688 49.6831 6.94936C49.2035 7.08732 48.0337 6.89127 47.6268 6.60084L46.7258 5.96188C46.3188 5.67871 45.7448 4.6404 45.7158 4.1394C45.6867 3.59483 45.2943 -1.27722 41.218 -4.15979C35.9863 -7.86283 28.7129 -6.62122 25.0144 -1.39339C21.3159 3.83444 22.5512 11.1026 27.7828 14.7984C31.8591 17.6809 36.5894 16.4321 37.1126 16.2796C37.5922 16.1416 38.762 16.3377 39.1617 16.6281L40.0627 17.2671C40.4696 17.5502 41.0436 18.5886 41.0727 19.0896C41.1017 19.6341 41.4941 24.5062 45.5704 27.3887C50.8021 31.0918 58.0755 29.8502 61.774 24.6223C65.4798 19.3945 64.2373 12.1264 59.0056 8.43058H59.0129Z" fill="black"/>
<path d="M119.677 8.43058C115.601 5.54801 110.87 6.79688 110.347 6.94936C109.868 7.08732 108.698 6.89127 108.291 6.60084L107.39 5.96188C106.983 5.67871 106.409 4.6404 106.38 4.1394C106.351 3.59483 105.958 -1.27722 101.882 -4.15979C96.6504 -7.86283 89.3769 -6.62122 85.6785 -1.39339C81.98 3.83444 83.2152 11.1026 88.4469 14.7984C92.5232 17.6809 97.2535 16.4321 97.7766 16.2796C98.2562 16.1416 99.4261 16.3377 99.8257 16.6281L100.727 17.2671C101.134 17.5502 101.708 18.5886 101.737 19.0896C101.766 19.6341 102.158 24.5062 106.234 27.3887C111.466 31.0918 118.74 29.8502 122.438 24.6223C126.144 19.3945 124.901 12.1264 119.67 8.43058H119.677Z" fill="black"/>
<path d="M180.325 8.43058C176.249 5.54801 171.519 6.79688 170.996 6.94936C170.516 7.08732 169.346 6.89127 168.939 6.60084L168.038 5.96188C167.631 5.67871 167.057 4.6404 167.028 4.1394C166.999 3.59483 166.607 -1.27722 162.53 -4.15979C157.299 -7.86283 150.025 -6.62122 146.327 -1.39339C142.628 3.83444 143.864 11.1026 149.095 14.7984C153.172 17.6809 157.902 16.4321 158.425 16.2796C158.905 16.1416 160.075 16.3377 160.474 16.6281L161.375 17.2671C161.782 17.5502 162.356 18.5886 162.385 19.0896C162.414 19.6341 162.807 24.5062 166.883 27.3887C172.115 31.0918 179.388 29.8502 183.087 24.6223C186.792 19.3945 185.55 12.1264 180.318 8.43058H180.325Z" fill="black"/>
<path d="M-2.53379 41.3368C1.54254 38.4543 6.27283 39.7031 6.79599 39.8556C7.27556 39.9936 8.44541 39.7975 8.85232 39.5071L9.75333 38.8681C10.1602 38.585 10.7343 37.5467 10.7633 37.0456C10.7924 36.5011 11.1848 31.629 15.2611 28.7465C20.4928 25.0434 27.7662 26.285 31.4647 31.5129C35.1632 36.7407 33.9279 44.0088 28.6963 47.7046C24.6199 50.5872 19.8897 49.3383 19.3665 49.1858C18.8869 49.0479 17.7171 49.2439 17.3174 49.5344L16.4164 50.1733C16.0095 50.4565 15.4355 51.4948 15.4064 51.9958C15.3774 52.5404 14.985 57.4124 10.9087 60.295C5.677 63.998 -1.59646 62.7564 -5.29495 57.5286C-9.0007 52.3008 -7.75818 45.0326 -2.52653 41.3368H-2.53379Z" fill="black"/>
<path d="M58.1225 41.3368C62.1988 38.4543 66.9291 39.7031 67.4522 39.8556C67.9318 39.9936 69.1017 39.7975 69.5086 39.5071L70.4096 38.8681C70.8165 38.585 71.3905 37.5467 71.4196 37.0456C71.4486 36.5011 71.841 31.629 75.9173 28.7465C81.149 25.0434 88.4225 26.285 92.1209 31.5129C95.8194 36.7407 94.5842 44.0088 89.3525 47.7046C85.2762 50.5872 80.5459 49.3383 80.0227 49.1858C79.5432 49.0479 78.3733 49.2439 77.9737 49.5344L77.0727 50.1733C76.6658 50.4565 76.0917 51.4948 76.0627 51.9958C76.0336 52.5404 75.6412 57.4124 71.5649 60.295C66.3332 63.998 59.0598 62.7564 55.3613 57.5286C51.6555 52.3008 52.8981 45.0326 58.1297 41.3368H58.1225Z" fill="black"/>
<path d="M118.771 41.3368C122.847 38.4543 127.578 39.7031 128.101 39.8556C128.58 39.9936 129.75 39.7975 130.157 39.5071L131.058 38.8681C131.465 38.585 132.039 37.5467 132.068 37.0456C132.097 36.5011 132.489 31.629 136.566 28.7465C141.797 25.0434 149.071 26.285 152.769 31.5129C156.468 36.7407 155.233 44.0088 150.001 47.7046C145.925 50.5872 141.194 49.3383 140.671 49.1858C140.192 49.0479 139.022 49.2439 138.622 49.5344L137.721 50.1733C137.314 50.4565 136.74 51.4948 136.711 51.9958C136.682 52.5404 136.29 57.4124 132.213 60.295C126.982 63.998 119.708 62.7564 116.01 57.5286C112.304 52.3008 113.547 45.0326 118.778 41.3368H118.771Z" fill="black"/>
<path d="M179.427 41.3368C183.503 38.4543 188.234 39.7031 188.757 39.8556C189.236 39.9936 190.406 39.7975 190.813 39.5071L191.714 38.8681C192.121 38.585 192.695 37.5467 192.724 37.0456C192.753 36.5011 193.146 31.629 197.222 28.7465C202.454 25.0434 209.727 26.285 213.426 31.5129C217.124 36.7407 215.889 44.0088 210.657 47.7046C206.581 50.5872 201.851 49.3383 201.327 49.1858C200.848 49.0479 199.678 49.2439 199.278 49.5344L198.377 50.1733C197.97 50.4565 197.396 51.4948 197.367 51.9958C197.338 52.5404 196.946 57.4124 192.87 60.295C187.638 63.998 180.364 62.7564 176.666 57.5286C172.96 52.3008 174.203 45.0326 179.434 41.3368H179.427Z" fill="black"/>
<path d="M-1.63556 74.2431C-5.71189 71.3605 -10.4422 72.6094 -10.9653 72.7619C-11.4449 72.8998 -12.6148 72.7038 -13.0217 72.4133L-13.9227 71.7744C-14.3296 71.4912 -14.9036 70.4529 -14.9327 69.9519C-14.9617 69.4073 -15.3541 64.5353 -19.4305 61.6527C-24.6621 57.9497 -31.9356 59.1913 -35.634 64.4191C-39.3325 69.6469 -38.0973 76.9151 -32.8656 80.6109C-28.7893 83.4934 -24.059 82.2446 -23.5358 82.0921C-23.0563 81.9541 -21.8864 82.1502 -21.4868 82.4406L-20.5858 83.0796C-20.1789 83.3627 -19.6048 84.401 -19.5758 84.902C-19.5467 85.4466 -19.1543 90.3187 -15.078 93.2012C-9.84635 96.9043 -2.5729 95.6627 1.12559 90.4348C4.83135 85.207 3.58883 77.9389 -1.64282 74.2431H-1.63556Z" fill="black"/>
<path d="M59.0129 74.2431C54.9365 71.3605 50.2063 72.6094 49.6831 72.7619C49.2035 72.8998 48.0337 72.7038 47.6268 72.4133L46.7258 71.7744C46.3188 71.4912 45.7448 70.4529 45.7158 69.9519C45.6867 69.4073 45.2943 64.5353 41.218 61.6527C35.9863 57.9497 28.7129 59.1913 25.0144 64.4191C21.3159 69.6469 22.5512 76.9151 27.7828 80.6109C31.8591 83.4934 36.5894 82.2446 37.1126 82.0921C37.5922 81.9541 38.762 82.1502 39.1617 82.4406L40.0627 83.0796C40.4696 83.3627 41.0436 84.401 41.0727 84.902C41.1017 85.4466 41.4941 90.3187 45.5704 93.2012C50.8021 96.9043 58.0755 95.6627 61.774 90.4348C65.4798 85.207 64.2373 77.9389 59.0056 74.2431H59.0129Z" fill="black"/>
<path d="M119.677 74.2431C115.601 71.3605 110.87 72.6094 110.347 72.7619C109.868 72.8998 108.698 72.7038 108.291 72.4133L107.39 71.7744C106.983 71.4912 106.409 70.4529 106.38 69.9519C106.351 69.4073 105.958 64.5353 101.882 61.6527C96.6504 57.9497 89.3769 59.1913 85.6785 64.4191C81.98 69.6469 83.2152 76.9151 88.4469 80.6109C92.5232 83.4934 97.2535 82.2446 97.7767 82.0921C98.2562 81.9541 99.4261 82.1502 99.8257 82.4406L100.727 83.0796C101.134 83.3627 101.708 84.4011 101.737 84.9021C101.766 85.4466 102.158 90.3187 106.234 93.2012C111.466 96.9043 118.74 95.6627 122.438 90.4348C126.144 85.207 124.901 77.9389 119.67 74.2431H119.677Z" fill="black"/>
<path d="M180.325 74.2431C176.249 71.3605 171.519 72.6094 170.996 72.7619C170.516 72.8998 169.346 72.7038 168.939 72.4133L168.038 71.7744C167.631 71.4912 167.057 70.4529 167.028 69.9519C166.999 69.4073 166.607 64.5353 162.53 61.6527C157.299 57.9497 150.025 59.1913 146.327 64.4191C142.628 69.6469 143.864 76.9151 149.095 80.6109C153.172 83.4934 157.902 82.2446 158.425 82.0921C158.905 81.9541 160.075 82.1502 160.474 82.4406L161.375 83.0796C161.782 83.3627 162.356 84.401 162.385 84.902C162.414 85.4466 162.807 90.3187 166.883 93.2012C172.115 96.9043 179.388 95.6627 183.087 90.4348C186.792 85.207 185.55 77.9389 180.318 74.2431H180.325Z" fill="black"/>
<path d="M-2.53379 107.157C1.54254 104.275 6.27283 105.523 6.79599 105.676C7.27556 105.814 8.44541 105.618 8.85232 105.327L9.75333 104.688C10.1602 104.405 10.7343 103.367 10.7633 102.866C10.7924 102.321 11.1848 97.4493 15.2611 94.5668C20.4928 90.8637 27.7662 92.1053 31.4647 97.3332C35.1632 102.561 33.9279 109.829 28.6963 113.525C24.6199 116.408 19.8897 115.159 19.3665 115.006C18.8869 114.868 17.7171 115.064 17.3174 115.355L16.4164 115.994C16.0095 116.277 15.4355 117.315 15.4064 117.816C15.3774 118.361 14.985 123.233 10.9087 126.115C5.677 129.818 -1.59646 128.577 -5.29495 123.349C-9.0007 118.121 -7.75818 110.853 -2.52653 107.157H-2.53379Z" fill="black"/>
<path d="M58.1225 107.157C62.1988 104.275 66.9291 105.523 67.4522 105.676C67.9318 105.814 69.1017 105.618 69.5086 105.327L70.4096 104.688C70.8165 104.405 71.3905 103.367 71.4196 102.866C71.4486 102.321 71.841 97.4493 75.9173 94.5668C81.149 90.8637 88.4225 92.1053 92.1209 97.3332C95.8194 102.561 94.5842 109.829 89.3525 113.525C85.2762 116.408 80.5459 115.159 80.0227 115.006C79.5432 114.868 78.3733 115.064 77.9737 115.355L77.0727 115.994C76.6658 116.277 76.0917 117.315 76.0627 117.816C76.0336 118.361 75.6412 123.233 71.5649 126.115C66.3332 129.818 59.0598 128.577 55.3613 123.349C51.6555 118.121 52.8981 110.853 58.1297 107.157H58.1225Z" fill="black"/>
<path d="M118.771 107.157C122.847 104.275 127.578 105.523 128.101 105.676C128.58 105.814 129.75 105.618 130.157 105.327L131.058 104.688C131.465 104.405 132.039 103.367 132.068 102.866C132.097 102.321 132.489 97.4493 136.566 94.5668C141.797 90.8637 149.071 92.1053 152.769 97.3332C156.468 102.561 155.233 109.829 150.001 113.525C145.925 116.408 141.194 115.159 140.671 115.006C140.192 114.868 139.022 115.064 138.622 115.355L137.721 115.994C137.314 116.277 136.74 117.315 136.711 117.816C136.682 118.361 136.29 123.233 132.213 126.115C126.982 129.818 119.708 128.577 116.01 123.349C112.304 118.121 113.547 110.853 118.778 107.157H118.771Z" fill="black"/>
<path d="M179.427 107.157C183.503 104.275 188.234 105.523 188.757 105.676C189.236 105.814 190.406 105.618 190.813 105.327L191.714 104.688C192.121 104.405 192.695 103.367 192.724 102.866C192.753 102.321 193.146 97.4493 197.222 94.5668C202.454 90.8637 209.727 92.1053 213.426 97.3332C217.124 102.561 215.889 109.829 210.657 113.525C206.581 116.408 201.851 115.159 201.327 115.006C200.848 114.868 199.678 115.064 199.278 115.355L198.377 115.994C197.97 116.277 197.396 117.315 197.367 117.816C197.338 118.361 196.946 123.233 192.87 126.115C187.638 129.818 180.364 128.577 176.666 123.349C172.96 118.121 174.203 110.853 179.434 107.157H179.427Z" fill="black"/>
<path d="M-1.63556 140.063C-5.71189 137.181 -10.4422 138.43 -10.9653 138.582C-11.4449 138.72 -12.6148 138.524 -13.0217 138.234L-13.9227 137.595C-14.3296 137.312 -14.9036 136.273 -14.9327 135.772C-14.9617 135.228 -15.3541 130.356 -19.4305 127.473C-24.6621 123.77 -31.9356 125.012 -35.634 130.239C-39.3325 135.467 -38.0973 142.735 -32.8656 146.431C-28.7893 149.314 -24.059 148.065 -23.5358 147.912C-23.0563 147.774 -21.8864 147.97 -21.4868 148.261L-20.5858 148.9C-20.1789 149.183 -19.6048 150.221 -19.5758 150.722C-19.5467 151.267 -19.1543 156.139 -15.078 159.022C-9.84635 162.725 -2.5729 161.483 1.12559 156.255C4.83135 151.027 3.58883 143.759 -1.64282 140.063H-1.63556Z" fill="black"/>
<path d="M59.0129 140.063C54.9365 137.181 50.2063 138.43 49.6831 138.582C49.2035 138.72 48.0337 138.524 47.6268 138.234L46.7258 137.595C46.3188 137.312 45.7448 136.273 45.7158 135.772C45.6867 135.228 45.2943 130.356 41.218 127.473C35.9863 123.77 28.7129 125.012 25.0144 130.239C21.3159 135.467 22.5512 142.735 27.7828 146.431C31.8591 149.314 36.5894 148.065 37.1126 147.912C37.5922 147.774 38.762 147.97 39.1617 148.261L40.0627 148.9C40.4696 149.183 41.0436 150.221 41.0727 150.722C41.1017 151.267 41.4941 156.139 45.5704 159.022C50.8021 162.725 58.0755 161.483 61.774 156.255C65.4798 151.027 64.2373 143.759 59.0056 140.063H59.0129Z" fill="black"/>
<path d="M119.677 140.063C115.601 137.181 110.87 138.43 110.347 138.582C109.868 138.72 108.698 138.524 108.291 138.234L107.39 137.595C106.983 137.312 106.409 136.273 106.38 135.772C106.351 135.228 105.958 130.356 101.882 127.473C96.6504 123.77 89.3769 125.012 85.6785 130.239C81.98 135.467 83.2152 142.735 88.4469 146.431C92.5232 149.314 97.2535 148.065 97.7766 147.912C98.2562 147.774 99.4261 147.97 99.8257 148.261L100.727 148.9C101.134 149.183 101.708 150.221 101.737 150.722C101.766 151.267 102.158 156.139 106.234 159.022C111.466 162.725 118.74 161.483 122.438 156.255C126.144 151.027 124.901 143.759 119.67 140.063H119.677Z" fill="black"/>
<path d="M180.325 140.063C176.249 137.181 171.519 138.43 170.996 138.582C170.516 138.72 169.346 138.524 168.939 138.234L168.038 137.595C167.631 137.312 167.057 136.273 167.028 135.772C166.999 135.228 166.607 130.356 162.53 127.473C157.299 123.77 150.025 125.012 146.327 130.239C142.628 135.467 143.864 142.735 149.095 146.431C153.172 149.314 157.902 148.065 158.425 147.912C158.905 147.774 160.075 147.97 160.474 148.261L161.375 148.9C161.782 149.183 162.356 150.221 162.385 150.722C162.414 151.267 162.807 156.139 166.883 159.022C172.115 162.725 179.388 161.483 183.087 156.255C186.792 151.027 185.55 143.759 180.318 140.063H180.325Z" fill="black"/>
</g>
</g>
<defs>
<clipPath id="clip0_3460_1313">
<rect width="202" height="138.661" fill="white"/>
</clipPath>
</defs>
</svg>
