<svg width="327" height="171" viewBox="0 0 327 171" fill="none" xmlns="http://www.w3.org/2000/svg">
<path fill-rule="evenodd" clip-rule="evenodd" d="M280.286 0C306.085 0 327 20.8798 327 46.6364C327 62.8583 318.703 77.145 306.115 85.5C318.703 93.855 327 108.142 327 124.364C327 150.12 306.085 171 280.286 171C264.037 171 249.726 162.717 241.357 150.15C232.988 162.717 218.678 171 202.429 171C186.18 171 171.869 162.717 163.5 150.15C155.131 162.717 140.82 171 124.571 171C108.322 171 94.0118 162.717 85.6429 150.15C77.2739 162.717 62.9633 171 46.7143 171C20.9147 171 0 150.12 0 124.364C0 108.142 8.29641 93.855 20.884 85.5C8.29641 77.145 0 62.8581 0 46.6364C0 20.8798 20.9147 0 46.7143 0C72.5139 0 93.4286 20.8798 93.4286 46.6364C93.4286 62.8583 85.1318 77.145 72.544 85.5C77.7331 88.9442 82.1929 93.396 85.6429 98.5764C94.0118 86.0098 108.323 77.7273 124.571 77.7273C140.82 77.7273 155.131 86.0098 163.5 98.5764C166.95 93.3962 171.409 88.9441 176.598 85.5C164.011 77.145 155.714 62.8581 155.714 46.6364C155.714 20.8798 176.629 0 202.429 0C218.677 0 232.988 8.28257 241.357 20.8491C249.726 8.28257 264.037 0 280.286 0Z" fill="#363636"/>
</svg>
