<svg width="249" height="327" viewBox="0 0 249 327" fill="none" xmlns="http://www.w3.org/2000/svg">
<path fill-rule="evenodd" clip-rule="evenodd" d="M46.6875 0C72.4723 0 93.375 20.9147 93.375 46.7143C93.375 62.9633 85.083 77.2739 72.5024 85.6429C77.6885 89.0928 82.1458 93.5521 85.5938 98.7411C93.9579 86.1536 108.26 77.8571 124.5 77.8571C140.74 77.8571 155.042 86.1536 163.406 98.7411C171.77 86.1536 186.073 77.8571 202.313 77.8571C228.097 77.8571 249 98.7718 249 124.571C249 140.82 240.708 155.131 228.127 163.5C240.708 171.869 249 186.18 249 202.429C249 218.678 240.708 232.988 228.127 241.357C240.708 249.726 249 264.037 249 280.286C249 306.085 228.097 327 202.313 327C186.073 327 171.77 318.703 163.406 306.115C155.042 318.703 140.74 327 124.5 327C98.7152 327 77.8125 306.085 77.8125 280.286C77.8125 264.037 86.1042 249.726 98.6845 241.357C93.4984 237.907 89.0417 233.447 85.5938 228.258C77.2296 240.846 62.9272 249.143 46.6875 249.143C20.9027 249.143 0 228.228 0 202.429C0 186.18 8.29165 171.869 20.872 163.5C8.29165 155.131 0 140.82 0 124.571C0 108.323 8.29165 94.0118 20.872 85.6429C8.29165 77.2739 0 62.9632 0 46.7143C0 20.9147 20.9027 0 46.6875 0Z" fill="#363636"/>
</svg>
