<?xml version="1.0" encoding="UTF-8"?>
<svg id="_레이어_2" data-name="레이어 2" xmlns="http://www.w3.org/2000/svg" viewBox="0 0 1211.21 862.26">
  <g id="Layer_1" data-name="Layer 1" fill="#FFFFFF" stroke="#FFFFFF">
    <path class="cls-2" d="M266.33,129.42c37.49,0,67.85,30.38,67.85,67.85s-30.37,67.85-67.85,67.85-67.85-30.38-67.85-67.85,30.38-67.85,67.85-67.85Z"/>
    <path class="cls-1" d="M266.33,129.42c37.49,0,67.85,30.38,67.85,67.85s-30.37,67.85-67.85,67.85-67.85-30.38-67.85-67.85,30.38-67.85,67.85-67.85Z"/>
    <path class="cls-2" d="M815.89.5c108.53,0,196.85,88.25,196.85,196.78s-88.28,196.78-196.85,196.78c-75.25,0-142.83-41.98-176.42-109.62-7.7-15.51-22.36-26.41-39.46-29.34-3.02-.54-6.07-.76-9.13-.76-13.98,0-27.62,5.42-37.8,15.35-19,18.44-44,28.64-70.37,28.64-55.74,0-101.04-45.29-101.04-100.99s45.29-100.99,101.04-100.99c26.36,0,51.37,10.14,70.37,28.64,10.18,9.93,23.82,15.35,37.8,15.35,3.05,0,6.11-.27,9.13-.76,17.1-2.93,31.76-13.83,39.46-29.35C673.05,42.48,740.7.5,815.89.5Z"/>
    <path class="cls-1" d="M815.89.5c108.53,0,196.85,88.25,196.85,196.78s-88.28,196.78-196.85,196.78c-75.25,0-142.83-41.98-176.42-109.62-7.7-15.51-22.36-26.41-39.46-29.34-3.02-.54-6.07-.76-9.13-.76-13.98,0-27.62,5.42-37.8,15.35-19,18.44-44,28.64-70.37,28.64-55.74,0-101.04-45.29-101.04-100.99s45.29-100.99,101.04-100.99c26.36,0,51.37,10.14,70.37,28.64,10.18,9.93,23.82,15.35,37.8,15.35,3.05,0,6.11-.27,9.13-.76,17.1-2.93,31.76-13.83,39.46-29.35C673.05,42.48,740.7.5,815.89.5Z"/>
    <path d="M292.56,844.46c-2.41-14.67,10.08-27.18,24.77-24.76,8.89,1.44,16.01,8.61,17.47,17.5,2.44,14.67-10.08,27.18-24.73,24.76-8.89-1.44-16.05-8.61-17.51-17.49ZM351.01,844.46c-2.41-14.67,10.08-27.18,24.73-24.76,8.89,1.44,16.05,8.61,17.51,17.5,2.41,14.67-10.08,27.18-24.77,24.76-8.89-1.44-16.01-8.61-17.47-17.49ZM21.43,819.39c11.84,0,21.43,9.59,21.43,21.43s-9.58,21.43-21.43,21.43-21.43-9.58-21.43-21.43,9.58-21.43,21.43-21.43ZM79.88,819.39c11.85,0,21.43,9.59,21.43,21.43s-9.58,21.43-21.43,21.43-21.43-9.58-21.43-21.43,9.59-21.43,21.43-21.43ZM138.33,819.39c11.84,0,21.43,9.59,21.43,21.43s-9.58,21.43-21.43,21.43-21.43-9.58-21.43-21.43,9.58-21.43,21.43-21.43ZM196.78,819.39c11.84,0,21.43,9.59,21.43,21.43s-9.59,21.43-21.43,21.43-21.43-9.58-21.43-21.43,9.58-21.43,21.43-21.43ZM255.22,819.39c11.85,0,21.43,9.59,21.43,21.43s-9.58,21.43-21.43,21.43-21.43-9.58-21.43-21.43,9.58-21.43,21.43-21.43ZM351.01,786.02c-2.41-14.67,10.08-27.18,24.73-24.76,8.89,1.44,16.05,8.61,17.51,17.49,2.41,14.67-10.08,27.18-24.77,24.76-8.89-1.44-16.01-8.61-17.47-17.49ZM21.43,760.94c11.84,0,21.43,9.58,21.43,21.43s-9.58,21.43-21.43,21.43-21.43-9.58-21.43-21.43,9.58-21.43,21.43-21.43ZM292.56,727.57c-2.41-14.67,10.08-27.18,24.77-24.76,8.89,1.44,16.01,8.61,17.47,17.49,2.44,14.67-10.08,27.18-24.73,24.76-8.89-1.44-16.05-8.61-17.51-17.5ZM351.01,727.57c-2.41-14.67,10.08-27.18,24.73-24.76,8.89,1.44,16.05,8.61,17.51,17.49,2.41,14.67-10.08,27.18-24.77,24.76-8.89-1.44-16.01-8.61-17.47-17.5ZM21.43,702.49c11.84,0,21.43,9.58,21.43,21.43s-9.58,21.43-21.43,21.43-21.43-9.58-21.43-21.43,9.58-21.43,21.43-21.43ZM79.88,702.49c11.85,0,21.43,9.58,21.43,21.43s-9.58,21.43-21.43,21.43-21.43-9.58-21.43-21.43,9.59-21.43,21.43-21.43ZM138.33,702.49c11.84,0,21.43,9.58,21.43,21.43s-9.58,21.43-21.43,21.43-21.43-9.58-21.43-21.43,9.58-21.43,21.43-21.43ZM196.78,702.49c11.84,0,21.43,9.58,21.43,21.43s-9.59,21.43-21.43,21.43-21.43-9.58-21.43-21.43,9.58-21.43,21.43-21.43ZM255.22,702.49c11.85,0,21.43,9.58,21.43,21.43s-9.58,21.43-21.43,21.43-21.43-9.58-21.43-21.43,9.58-21.43,21.43-21.43ZM351.01,669.12c-2.41-14.67,10.08-27.18,24.73-24.76,8.89,1.44,16.05,8.61,17.51,17.5,2.41,14.67-10.08,27.18-24.77,24.76-8.89-1.44-16.01-8.61-17.47-17.49ZM21.43,622.61c11.84,0,21.43,9.59,21.43,21.43s-9.58,21.43-21.43,21.43-21.43-9.58-21.43-21.43,9.58-21.43,21.43-21.43ZM233.79,622.61c11.82,0,21.43,9.59,21.43,21.43s-9.58,21.43-21.43,21.43-21.43-9.58-21.43-21.43,9.58-21.43,21.43-21.43ZM182.38,587.54c11.83,0,21.43,9.58,21.43,21.43s-9.58,21.43-21.43,21.43-21.43-9.58-21.43-21.43,9.6-21.43,21.43-21.43ZM351.01,610.67c-2.41-14.67,10.08-27.18,24.73-24.76,8.89,1.44,16.05,8.61,17.51,17.49,2.41,14.67-10.08,27.18-24.77,24.76-8.89-1.44-16.01-8.61-17.47-17.5ZM50.48,570.01c11.84,0,21.43,9.58,21.43,21.43s-9.59,21.43-21.43,21.43-21.43-9.58-21.43-21.43,9.58-21.43,21.43-21.43ZM130.94,552.48c11.83,0,21.43,9.58,21.43,21.43s-9.58,21.43-21.43,21.43-21.43-9.58-21.43-21.43,9.59-21.43,21.43-21.43ZM292.56,552.22c-2.41-14.67,10.08-27.18,24.77-24.76,8.89,1.44,16.01,8.61,17.47,17.5,2.44,14.67-10.08,27.18-24.73,24.76-8.89-1.44-16.05-8.61-17.51-17.49ZM351.01,552.22c-2.41-14.67,10.08-27.18,24.73-24.76,8.89,1.44,16.05,8.61,17.51,17.5,2.41,14.67-10.08,27.18-24.77,24.76-8.89-1.44-16.01-8.61-17.47-17.49ZM79.53,517.41c11.83,0,21.43,9.58,21.43,21.43s-9.59,21.43-21.43,21.43-21.43-9.59-21.43-21.43,9.6-21.43,21.43-21.43ZM351.01,493.77c-2.41-14.67,10.08-27.18,24.73-24.76,8.89,1.44,16.05,8.61,17.51,17.49,2.41,14.67-10.08,27.18-24.77,24.76-8.89-1.44-16.01-8.61-17.47-17.49ZM21.43,468.7c11.84,0,21.43,9.58,21.43,21.43s-9.58,21.43-21.43,21.43S0,501.98,0,490.13s9.58-21.43,21.43-21.43ZM79.88,468.7c11.85,0,21.43,9.58,21.43,21.43s-9.58,21.43-21.43,21.43-21.43-9.58-21.43-21.43,9.59-21.43,21.43-21.43ZM138.33,468.7c11.84,0,21.43,9.58,21.43,21.43s-9.58,21.43-21.43,21.43-21.43-9.58-21.43-21.43,9.58-21.43,21.43-21.43ZM196.78,468.7c11.84,0,21.43,9.58,21.43,21.43s-9.59,21.43-21.43,21.43-21.43-9.58-21.43-21.43,9.58-21.43,21.43-21.43ZM255.22,468.7c11.85,0,21.43,9.58,21.43,21.43s-9.58,21.43-21.43,21.43-21.43-9.58-21.43-21.43,9.58-21.43,21.43-21.43Z"/>
    <path d="M771.04,468.76c1.66,0,3.32.14,4.99.41,12.32,2.03,22.29,12.02,24.33,24.33,2.34,14.26-8.01,24.28-9.19,25.37-1.12,1.01-2.48,4.13-2.48,5.63v3.57c0,1.23,1.32,3.99,2.31,4.75.78.62,7.7,6.35,9.33,16.36,2.34,14.26-8.01,24.28-9.19,25.37-1.09,1.01-2.48,4.13-2.48,5.63v3.57c0,1.23,1.32,4,2.31,4.76.78.62,7.74,6.35,9.36,16.36,2.34,14.26-8.01,24.28-9.19,25.37-1.12,1.01-2.48,4.13-2.48,5.63v3.57c0,1.23,1.32,3.99,2.31,4.75.78.62,7.7,6.35,9.33,16.36,1.43,8.71-.98,17.53-6.65,24.18-3.29,3.89-7.5,6.82-12.15,8.57,9.67,3.68,17.1,12.43,18.83,22.85,2.34,14.26-8.01,24.28-9.19,25.37-1.12,1.01-2.48,4.13-2.48,5.63v3.57c0,1.23,1.32,3.99,2.31,4.75.75.62,7.7,6.35,9.33,16.36,2.34,14.26-8.01,24.28-9.19,25.37-1.12,1.01-2.48,4.13-2.48,5.63v3.57c0,1.23,1.32,4,2.31,4.75.78.63,7.7,6.35,9.36,16.37,1.43,8.71-1.02,17.53-6.65,24.18-5.67,6.64-13.91,10.48-22.63,10.48-1.66,0-3.32-.14-4.99-.41-10.01-1.64-15.74-8.57-16.35-9.35-.78-.98-3.53-2.3-4.75-2.3h-3.56c-1.53,0-4.61,1.36-5.67,2.47-.88.98-9.13,9.53-21.24,9.53-1.36,0-2.75-.12-4.11-.33-10.04-1.64-15.74-8.57-16.39-9.35-.75-.97-3.49-2.3-4.75-2.3h-3.56c-1.39,0-4.31,1.34-5.19,2.4-.85.99-8.65,9.66-20.87,9.66l.07.08c-12.21,0-19.98-8.69-20.83-9.66-.92-1.05-3.83-2.4-5.22-2.4h-3.6c-1.39,0-4.31,1.34-5.19,2.4-.85.99-8.62,9.66-20.83,9.66s-20.02-8.69-20.87-9.66c-.88-1.05-3.8-2.4-5.19-2.4h-3.6c-1.39,0-4.31,1.34-5.22,2.4-.81.99-8.62,9.66-20.83,9.66s-20.02-8.69-20.83-9.66c-.92-1.05-3.83-2.4-5.22-2.4h-3.6c-1.39,0-4.31,1.34-5.19,2.4-.85.99-8.65,9.66-20.87,9.66s-19.98-8.69-20.83-9.66c-.88-1.05-3.83-2.4-5.19-2.4h-3.63c-1.36,0-4.27,1.34-5.19,2.4-.85.99-8.62,9.66-20.83,9.66-16.39,0-29.72-13.33-29.72-29.71,0-12.21,8.69-20.01,9.67-20.85,1.05-.9,2.41-3.81,2.41-5.2v-3.61c0-1.38-1.36-4.31-2.41-5.2-.98-.84-9.67-8.63-9.67-20.85s8.69-20.01,9.64-20.85c1.05-.9,2.41-3.82,2.41-5.2v-3.6c0-1.38-1.36-4.31-2.41-5.2-.98-.84-9.67-8.63-9.67-20.85,0-16.38,13.33-29.71,29.72-29.71,12.21,0,19.98,8.69,20.83,9.66.88,1.05,3.83,2.4,5.19,2.4h3.63c1.36,0,4.27-1.34,5.19-2.4.85-.99,8.62-9.66,20.83-9.66s20.02,8.69,20.87,9.66c.88,1.05,3.8,2.4,5.19,2.4h3.6c1.39,0,4.31-1.34,5.19-2.4.85-.99,8.65-9.66,20.87-9.66s19.98,8.69,20.83,9.66c.92,1.05,3.83,2.4,5.19,2.4h3.63c1.36,0,4.31-1.34,5.19-2.4.85-.99,8.62-9.66,20.83-9.66s20.02,8.69,20.87,9.66c.88,1.05,3.8,2.4,5.19,2.4h3.6c1.39,0,4.31-1.34,5.22-2.4.81-.99,8.62-9.66,20.83-9.66s20.02,8.69,20.83,9.66c.92,1.05,3.83,2.4,5.22,2.4h3.6c1.49,0,4.61-1.36,5.63-2.47.92-.97,9.16-9.53,21.27-9.53,1.36,0,2.75.12,4.11.33,10.01,1.64,15.74,8.57,16.35,9.35.78.97,3.53,2.3,4.75,2.3h3.56c1.53,0,4.65-1.36,5.67-2.47.61-.66,4.58-4.78,10.82-7.38-10.11-3.47-17.95-12.44-19.71-23.17-2.34-14.26,8.01-24.28,9.19-25.37,1.12-1.01,2.48-4.13,2.48-5.63v-3.57c0-1.23-1.32-3.99-2.31-4.75-.78-.62-7.7-6.35-9.33-16.36-2.34-14.26,8.01-24.28,9.19-25.37,1.12-1.01,2.48-4.13,2.48-5.63v-3.02c-.47-1.27-2.04-3.74-4.68-7.35-.24-.33-.44-.62-.64-.9-.61-.33-1.93-.76-3.12-.76h-3.56c-1.49,0-4.61,1.36-5.67,2.47-.88.97-9.13,9.53-21.24,9.53-1.36,0-2.75-.12-4.11-.33-12.32-2.03-22.32-12.02-24.33-24.33-1.42-8.71.98-17.51,6.65-24.18,5.63-6.66,13.91-10.48,22.63-10.48,1.66,0,3.29.14,4.95.41,10.01,1.64,15.74,8.57,16.35,9.35.78.98,3.53,2.3,4.78,2.3h3.02c1.26-.45,3.7-2.01,7.29-4.65.34-.23.64-.45.88-.64.34-.62.78-1.93.78-3.1v-3.57c0-1.23-1.32-3.99-2.31-4.75-.78-.62-7.7-6.35-9.36-16.36-1.43-8.71,1.02-17.51,6.65-24.18,5.67-6.66,13.91-10.48,22.63-10.48ZM741.42,738.82c-1.49,0-4.61,1.36-5.67,2.47-.88.98-9.13,9.53-21.24,9.53-1.36,0-2.75-.12-4.11-.33-10.01-1.64-15.74-8.57-16.35-9.35-.78-.97-3.53-2.3-4.78-2.3h-3.56c-1.36,0-4.27,1.34-5.19,2.4-.85.99-8.62,9.66-20.83,9.66s-20.02-8.69-20.87-9.66c-.88-1.05-3.8-2.4-5.19-2.4h-3.6c-1.39,0-4.31,1.34-5.22,2.4-.81.99-8.62,9.66-20.83,9.66s-20.02-8.69-20.83-9.66c-.92-1.05-3.83-2.4-5.22-2.4h-3.6c-1.39,0-4.31,1.34-5.19,2.4-.85.99-8.62,9.66-20.83,9.66s-20.02-8.69-20.87-9.66c-.88-1.05-3.8-2.4-5.19-2.4h-3.6c-1.39,0-4.31,1.34-5.22,2.4-.81.99-8.62,9.66-20.83,9.66s-20.02-8.69-20.83-9.66c-.92-1.05-3.83-2.4-5.22-2.4h-3.05c-1.26.45-3.73,2.03-7.33,4.65-.31.23-.61.45-.88.64-.31.62-.75,1.93-.75,3.1v3.6c0,1.38,1.36,4.31,2.41,5.2.98.84,9.67,8.63,9.67,20.85s-8.69,20.01-9.67,20.85c-1.05.9-2.38,3.82-2.38,5.2v3.06c.44,1.27,2,3.72,4.65,7.32.24.33.44.62.64.88.61.31,1.93.76,3.09.76h3.6c1.39,0,4.31-1.34,5.22-2.4.81-.99,8.62-9.66,20.83-9.66s20.02,8.69,20.83,9.66c.92,1.05,3.83,2.4,5.22,2.4h3.6c1.39,0,4.31-1.34,5.19-2.4.85-.99,8.65-9.66,20.87-9.66s19.98,8.69,20.83,9.66c.88,1.05,3.8,2.4,5.19,2.4h3.6c1.39,0,4.31-1.34,5.22-2.4.81-.99,8.62-9.66,20.83-9.66s20.02,8.69,20.83,9.66c.92,1.05,3.83,2.4,5.22,2.4h3.6c1.39,0,4.31-1.34,5.19-2.4.85-.99,8.65-9.66,20.87-9.66s19.98,8.69,20.83,9.66c.92,1.05,3.83,2.4,5.19,2.4h3.63c1.49,0,4.61-1.36,5.63-2.47.92-.97,9.13-9.53,21.27-9.53l-.07-.02c1.39,0,2.75.12,4.14.33,10.01,1.64,15.71,8.57,16.35,9.35.75.97,3.49,2.3,4.75,2.3h3.02c1.26-.45,3.73-2.03,7.33-4.65.31-.23.61-.45.88-.64.31-.62.75-1.93.75-3.1v-3.57c0-1.22-1.32-3.99-2.31-4.75-.78-.63-7.7-6.35-9.33-16.36-2.34-14.26,8.01-24.28,9.19-25.37,1.09-1.01,2.48-4.13,2.48-5.63v-3.02c-.47-1.27-2.04-3.74-4.68-7.35-.24-.33-.44-.62-.64-.9-.61-.33-1.93-.76-3.12-.76h-3.56ZM659.65,468.7c16.39,0,29.72,13.33,29.72,29.71s-13.33,29.71-29.72,29.71c-12.76,0-20.76-9.58-21.65-10.68-.78-.99-3.53-2.32-4.78-2.32h-2.82c-1.29,0-4,1.32-4.82,2.32-.85,1.09-8.86,10.68-21.61,10.68s-20.8-9.58-21.65-10.68c-.81-.99-3.53-2.32-4.82-2.32h-2.82c-1.26,0-4,1.32-4.78,2.32-.88,1.09-8.89,10.68-21.65,10.68s-20.76-9.58-21.65-10.68c-.81-.99-3.53-2.32-4.78-2.32h-2.1c-1.8.76-5.5,3.64-6.95,4.75-.95.76-1.8,1.4-2.38,1.81,0,0-.03.02-.07.04.48.7,1.15,1.57,1.93,2.24.95.82,9.06,8.06,9.64,19.54.44.41,1.05.9,1.76,1.4l5.97,4.07c.27.16,1.26.53,2.54.53.75,0,1.22-.12,1.32-.18,1.19-.55,2.48-.82,3.8-.82h3.94c15.91,0,28.97,12.62,29.65,28.4.44.41,1.05.9,1.76,1.4l5.97,4.07c.27.16,1.26.53,2.54.53.75,0,1.22-.12,1.32-.18,1.19-.54,2.48-.82,3.8-.82h3.94c15.91,0,28.97,12.62,29.65,28.4.44.41,1.05.9,1.76,1.38l6.01,4.07c.24.16,1.26.53,2.54.53.75,0,1.22-.12,1.32-.18,1.19-.54,2.48-.82,3.8-.82h3.9c16.39,0,29.72,13.33,29.72,29.71,0,7.93-3.09,15.39-8.69,21-5.6,5.61-13.06,8.71-21,8.71l-.03.02c-15.91,0-28.97-12.62-29.65-28.4-.44-.41-1.05-.9-1.76-1.4l-5.97-4.07c-.27-.16-1.26-.53-2.54-.53-.75,0-1.22.12-1.32.18-1.19.55-2.48.82-3.8.82h-3.94c-15.91,0-28.97-12.62-29.65-28.4-.44-.41-1.05-.9-1.76-1.4l-5.97-4.07c-.27-.16-1.26-.53-2.54-.53-.75,0-1.22.12-1.32.18-1.19.55-2.48.82-3.8.82h-3.94c-15.91,0-28.97-12.62-29.65-28.4-.44-.41-1.05-.9-1.76-1.4l-6.01-4.07c-.24-.16-1.26-.53-2.54-.53-.75,0-1.22.12-1.32.18-1.19.55-2.48.82-3.8.82h-.14c-.31.49-.61,1.01-.95,1.62l-2.51,4.54c-.44.88-.44,3.29,0,4.17,1.15,2.18,1.7,5.3,1.7,10.09,0,15.04-11.26,27.51-25.75,29.44-.34.55-.71,1.17-1.12,1.89l-2.51,4.54c-.44.88-.48,3.29,0,4.17,1.15,2.18,1.7,5.3,1.7,10.09,0,16.38-13.33,29.71-29.72,29.71s-29.69-13.33-29.69-29.71c0-15.04,11.23-27.51,25.75-29.44.31-.55.68-1.17,1.09-1.89l2.51-4.54c.48-.88.48-3.29.03-4.17-1.15-2.18-1.7-5.3-1.7-10.09,0-15.04,11.23-27.51,25.75-29.44.34-.54.71-1.17,1.12-1.89l2.51-4.54c.44-.88.48-3.29,0-4.17-1.19-2.18-1.7-5.3-1.7-10.09,0-12.21,8.69-20.01,9.67-20.85.61-.55,1.19-1.21,1.63-1.83-.78-1.05-1.76-2.26-2.34-2.98-.98-1.21-1.83-2.3-2.54-3.29-.54-.31-1.76-.74-2.82-.74h-2.82c-1.26,0-4,1.32-4.78,2.32-.88,1.09-8.89,10.68-21.65,10.68-16.39,0-29.72-13.33-29.72-29.71s13.33-29.71,29.72-29.71c12.76,0,20.76,9.58,21.65,10.68.78.99,3.53,2.32,4.78,2.32h2.82c1.29,0,4-1.33,4.78-2.32.88-1.09,8.89-10.68,21.65-10.68s20.76,9.58,21.65,10.68c.81.99,3.53,2.32,4.78,2.32h2.85c1.26,0,3.97-1.33,4.78-2.32.88-1.1,8.89-10.68,21.65-10.68s20.76,9.58,21.65,10.68c.78.99,3.53,2.32,4.78,2.32h2.82c1.29,0,4-1.33,4.82-2.32.85-1.09,8.86-10.68,21.65-10.68s20.76,9.58,21.61,10.68c.81.99,3.53,2.32,4.82,2.32h2.82c1.26,0,4-1.33,4.78-2.32.88-1.1,8.89-10.68,21.65-10.68Z"/>
    <path d="M1165.41,468.7c2.51,0,5.06.19,7.57.6,19.34,3.13,34.47,18.14,37.63,37.31,1.93,11.67-.81,23.28-7.09,32.63,3.56,5.28,6.01,11.34,7.09,17.81,1.93,11.69-.81,23.3-7.09,32.65,3.56,5.28,6.01,11.34,7.09,17.81,1.93,11.69-.81,23.3-7.09,32.65,3.56,5.28,6.01,11.34,7.09,17.81,1.9,11.51-.68,23.16-7.09,32.69,3.53,5.24,6.01,11.26,7.09,17.77,1.93,11.67-.81,23.28-7.09,32.63,3.56,5.28,6.01,11.34,7.09,17.81,1.93,11.69-.81,23.3-7.09,32.65l-.03.06c3.6,5.28,6.01,11.34,7.09,17.81,2.2,13.27-1.53,26.71-10.28,36.88-8.72,10.17-21.44,16.01-34.91,16.01-2.51,0-5.06-.19-7.53-.6-6.51-1.07-12.62-3.49-17.95-7.03-7.4,4.87-16.18,7.64-25.38,7.64-2.51,0-5.06-.19-7.57-.6-6.51-1.07-12.59-3.49-17.91-7.03-7.4,4.87-16.15,7.64-25.38,7.64s-18.08-2.77-25.48-7.67c-7.36,4.91-16.18,7.67-25.41,7.67s-18.08-2.77-25.45-7.67c-7.4,4.91-16.22,7.67-25.45,7.67s-18.08-2.77-25.45-7.67c-7.4,4.91-16.22,7.67-25.45,7.67s-18.08-2.77-25.45-7.67c-7.4,4.91-16.22,7.67-25.45,7.67-25.28,0-45.8-20.38-45.8-45.41,0-9.15,2.78-17.9,7.74-25.23-4.95-7.32-7.74-16.07-7.74-25.23s2.78-17.91,7.74-25.23c-4.95-7.32-7.74-16.07-7.74-25.23,0-13.79,6.21-26.14,16.01-34.48-9.81-8.34-16.01-20.71-16.01-34.48,0-17.83,10.42-33.29,25.51-40.72-.17-1.56-.24-3.11-.24-4.69,0-17.83,10.42-33.3,25.51-40.72-.03-.53-.1-1.05-.14-1.57-1.59.17-3.22.25-4.89.25-25.24,0-45.8-20.38-45.8-45.41s20.56-45.41,45.8-45.41c9.33,0,18.08,2.75,25.45,7.6,7.36-4.87,16.12-7.6,25.45-7.6s18.08,2.75,25.45,7.6c7.36-4.87,16.12-7.6,25.45-7.6s18.08,2.75,25.45,7.6c7.36-4.87,16.12-7.6,25.45-7.6s18.08,2.75,25.45,7.6c7.36-4.87,16.12-7.6,25.45-7.6,25.24,0,45.8,20.38,45.8,45.41,0,1.83-.14,3.6-.34,5.37,1.8-.21,3.63-.33,5.43-.33s3.6.1,5.39.31c-1.46-12.57,2.31-25.11,10.59-34.76,8.72-10.17,21.44-16.01,34.91-16.01ZM1038.18,753.63c-7.36,4.91-16.18,7.68-25.41,7.68s-18.08-2.77-25.45-7.68c-7.4,4.91-16.22,7.68-25.45,7.68s-18.08-2.77-25.45-7.68c-7.4,4.91-16.22,7.68-25.45,7.68-1.83,0-3.63-.1-5.43-.31.2,1.75.34,3.57.34,5.36s-.1,3.59-.34,5.36c1.76-.19,3.6-.31,5.43-.31,9.23,0,18.05,2.77,25.45,7.68,7.36-4.91,16.18-7.68,25.45-7.68s18.05,2.77,25.45,7.68c7.36-4.91,16.18-7.68,25.45-7.68s18.05,2.77,25.41,7.68c7.4-4.91,16.22-7.68,25.48-7.68s18.05,2.77,25.41,7.68c7.4-4.91,16.22-7.68,25.45-7.68,1.8,0,3.63.1,5.43.31-.44-3.62-.41-7.23,0-10.73-1.8.21-3.6.33-5.43.33-2.51,0-5.06-.2-7.57-.6-6.51-1.07-12.59-3.49-17.91-7.03-7.4,4.87-16.15,7.64-25.38,7.64s-18.08-2.77-25.48-7.68ZM926.49,621.55c-4.44,8.94-11.81,16.25-20.83,20.69.17,1.56.24,3.11.24,4.69h0c0,9.41-2.92,18.16-7.9,25.43,4.17-1.21,8.52-1.87,12.99-1.87,9.23,0,18.05,2.77,25.45,7.68,7.36-4.91,16.18-7.68,25.45-7.68s18.05,2.77,25.45,7.68c5.6-3.72,12.01-6.2,18.83-7.19-1.76-2.79-3.26-5.76-4.38-8.92-.51.02-1.02.02-1.56.02-19.92,0-36.91-12.66-43.19-30.29-.51.02-1.05.02-1.56.02-10.99,0-21.07-3.84-28.97-10.25ZM1038.21,551.88c-7.36,4.87-16.12,7.6-25.45,7.6s-18.08-2.75-25.45-7.6c-.37.27-.81.53-1.22.78,5.63,5.02,9.97,11.4,12.55,18.61.51-.02,1.05-.02,1.59-.02,19.88,0,36.88,12.66,43.19,30.29.51-.02,1.02-.02,1.56-.02,25.24.02,45.8,20.38,45.8,45.41,0,9.96-3.22,19.43-9.16,27.24,2.58,1.11,5.12,2.42,7.43,3.97,7.4-4.91,16.22-7.67,25.45-7.67,1.8,0,3.6.14,5.43.35-1.29-10.97,1.49-21.74,7.4-30.54-3.6-5.28-6.04-11.34-7.12-17.81-.68-4.34-.78-8.65-.27-12.86-1.8.21-3.6.33-5.43.33-2.51,0-5.06-.2-7.57-.61-19.3-3.13-34.44-18.13-37.63-37.3l.03-.02c-.71-4.31-.78-8.63-.27-12.86-1.8.22-3.6.33-5.43.33-9.33,0-18.08-2.75-25.45-7.6Z"/>
  </g>
</svg>