<?xml version="1.0" encoding="UTF-8"?>
<svg id="_레이어_2" data-name="레이어 2" xmlns="http://www.w3.org/2000/svg" viewBox="0 0 883.832433024726924 430.866141732285541">
  <defs>
    <style>
      .cls-1 {
        fill: #FF7700;
      }
    </style>
  </defs>
  <g id="Layer_1" data-name="Layer 1">
    <g>
      <circle class="cls-1" cx="73.700727055692369" cy="215.433070866142316" r="73.700654211862172" transform="translate(-153.537521813714903 201.080947604433476) rotate(-67.499987515138173)"/>
      <path class="cls-1" d="M668.091607696062056,0c-82.420723013116003,0-156.581081485366667,45.959220866043324-193.387855322811447,120.125449505344477-8.445243325661068,16.98270393475741-24.502674976440176,28.920942624024065-43.232289803789172,32.127312031469955-3.332464550840086.534293340007935-6.661138597497484.830080278008609-9.989812644154881.830080278008609-15.342004554318919,0-30.267542745528772-5.937432239614282-41.44879644727007-16.803915538363071-20.813291660504547-20.248669474336566-48.226707028554301-31.354877909900097-77.127222780671218-31.354877909900097-61.072236616459122,0-110.726740979724127,49.586175655874285-110.726740979724127,110.570202986964432.000855920301547,60.983174216724365,49.655360283564733,110.566546782540172,110.726740979724127,110.566546782540172,28.900515752116917,0,56.313931120166671-11.165804567695886,77.127222780671218-31.354999783383391,11.181253701741298-10.866361425269133,26.106791892951151-16.803793664879777,41.44879644727007-16.804159285322385,3.328674046657397,0,6.657348093314795.236556426312745,9.989812644154881.830324024969741,18.729614827348996,3.206491280925547,34.787046478128104,15.144608096710726,43.232289803789172,32.127312031469046,36.80677383744478,74.047645742444729,110.908196083324583,120.006866608488053,193.387855322811447,120.006866608488053,118.988083715219545,0,215.740825328664869-96.612764467125089,215.740825328664869-215.43307086614368S787.020510636251856.000731240885216,668.091607696062056,0Z"/>
    </g>
  </g>
</svg>