<?xml version="1.0" encoding="UTF-8"?>
<svg id="_레이어_1" data-name="레이어 1" xmlns="http://www.w3.org/2000/svg" viewBox="0 0 621.999999708099494 202.0000116772826">
  <circle cx="40.818740844726562" cy="35.999965900915413" r="10.998890489066442" transform="translate(-13.500287617097655 39.407354340696116) rotate(-45.000000000000021)"/>
  <circle cx="67.212509155273438" cy="53.999996418493538" r="10.998847604919375" transform="translate(-18.497675500549377 63.342653771184253) rotate(-45.000000000000021)"/>
  <path d="M104.60626220703125,72.0011103100951c-.0006103515625-6.0751953125-4.926025390625-11.00048828125-11.00115966796875-11.0010986328125-6.07513427734375-.00067138671875-10.99945068359375,4.92364501953125-10.99884033203125,10.99884033203125s4.92596435546875,11.00048828125,11.0010986328125,11.00115966796875c6.07513427734375.0006103515625,10.99951171875-4.92364501953125,10.9989013671875-10.9989013671875Z"/>
  <circle cx="120" cy="89.999996418493538" r="10.998882837050642" transform="translate(-28.418632401002299 111.723460956752575) rotate(-45.19693193205611)"/>
  <circle cx="11" cy="131.0000116772826" r="11"/>
  <circle cx="41" cy="131.0000116772826" r="11"/>
  <circle cx="71" cy="131.0000116772826" r="11"/>
  <circle cx="101" cy="131.0000116772826" r="11"/>
  <circle cx="131" cy="131.0000116772826" r="11"/>
  <path d="M162.863287353047781,120.15314888431385c-7.528467041458498-1.23504638671875-13.944930928956637,5.18109130859375-12.710246709106286,12.7095947265625.747683113014318,4.5589599609375,4.424575039071897,8.236083984375,8.9835499324181,8.98406982421875,7.528467041458498,1.23516845703125,13.945114035024744-5.18109130859375,12.710307744462625-12.70965576171875-.747683113014318-4.5589599609375-4.424636074428236-8.236083984375-8.983610967774439-8.9840087890625Z"/>
  <path d="M192.863287353047781,120.15314888431385c-7.528467041458498-1.23504638671875-13.944930928956637,5.18109130859375-12.710246709106286,12.7095947265625.747683113014318,4.5589599609375,4.424575039071897,8.236083984375,8.9835499324181,8.98406982421875,7.528467041458498,1.23516845703125,13.945114035025654-5.18109130859375,12.710307744462625-12.70965576171875-.747683113014318-4.5589599609375-4.424636074428236-8.236083984375-8.983610967774439-8.9840087890625Z"/>
  <circle cx="11" cy="161.0000116772826" r="11"/>
  <path d="M192.863287353047781,150.15314888431385c-7.528467041458498-1.23504638671875-13.944930928956637,5.18109130859375-12.710246709106286,12.7095947265625.747683113014318,4.5589599609375,4.424575039071897,8.236083984375,8.9835499324181,8.98406982421875,7.528467041458498,1.23516845703125,13.945114035025654-5.18109130859375,12.710307744462625-12.70965576171875-.747683113014318-4.5589599609375-4.424636074428236-8.236083984375-8.983610967774439-8.9840087890625Z"/>
  <circle cx="11" cy="191.0000116772826" r="11"/>
  <circle cx="41" cy="191.0000116772826" r="11"/>
  <circle cx="71" cy="191.0000116772826" r="11"/>
  <circle cx="101" cy="191.0000116772826" r="11"/>
  <circle cx="131" cy="191.0000116772826" r="11"/>
  <path d="M162.86328125,180.15314888431385c-7.5284423828125-1.23504638671875-13.94488525390625,5.18109130859375-12.710205078125,12.7095947265625.7476806640625,4.5589599609375,4.424560546875,8.236083984375,8.9835205078125,8.98406982421875,7.5284423828125,1.23516845703125,13.945068359375-5.18109130859375,12.71026611328125-12.70965576171875-.7476806640625-4.5589599609375-4.42462158203125-8.236083984375-8.98358154296875-8.9840087890625Z"/>
  <path d="M192.863287353047781,180.15314888431385c-7.528467041458498-1.23504638671875-13.944930928956637,5.18109130859375-12.710246709106286,12.7095947265625.747683113014318,4.5589599609375,4.424575039071897,8.236083984375,8.9835499324181,8.98406982421875,7.528467041458498,1.23516845703125,13.945114035025654-5.18109130859375,12.710307744462625-12.70965576171875-.747683113014318-4.5589599609375-4.424636074428236-8.236083984375-8.983610967774439-8.9840087890625Z"/>
  <path d="M162.863287353047781,30.15314888431385c-7.528467041458498-1.23504638671875-13.944930928956637,5.18109130859375-12.710246709106286,12.7095947265625.747683113014318,4.5589599609375,4.424575039071897,8.236083984375,8.9835499324181,8.98406982421875,7.528467041458498,1.23516845703125,13.945114035024744-5.18109130859375,12.710307744462625-12.70965576171875-.747683113014318-4.5589599609375-4.424636074428236-8.236083984375-8.983610967774439-8.9840087890625Z"/>
  <path d="M192.863287353047781,30.15314888431385c-7.528467041458498-1.23504638671875-13.944930928956637,5.18109130859375-12.710246709106286,12.7095947265625.747683113014318,4.5589599609375,4.424575039071897,8.236083984375,8.9835499324181,8.98406982421875,7.528467041458498,1.23516845703125,13.945114035025654-5.18109130859375,12.710307744462625-12.70965576171875-.747683113014318-4.5589599609375-4.424636074428236-8.236083984375-8.983610967774439-8.9840087890625Z"/>
  <circle cx="11" cy="11.0000116772826" r="11"/>
  <circle cx="11" cy="90.0000116772826" r="11"/>
  <circle cx="25.90936279296875" cy="62.999981159704475" r="11.00000632055249" transform="translate(-22.136782728842377 14.710638578160236) rotate(-22.499960261216589)"/>
  <circle cx="41" cy="11.0000116772826" r="11"/>
  <circle cx="71" cy="11.0000116772826" r="11"/>
  <circle cx="101" cy="11.0000116772826" r="11"/>
  <circle cx="131" cy="11.0000116772826" r="11"/>
  <path d="M192.863287353047781.15314888431385c-7.528467041458498-1.23504638671875-13.944930928956637,5.18109130859375-12.710246709106286,12.7095947265625.747683113014318,4.5589599609375,4.424575039071897,8.236083984375,8.9835499324181,8.98406982421875,7.528467041458498,1.23516845703125,13.945114035025654-5.18109130859375,12.710307744462625-12.70965576171875-.747683113014318-4.5589599609375-4.424636074428236-8.236083984375-8.983610967774439-8.9840087890625Z"/>
  <path d="M192.863287353047781,60.15314888431385c-7.528467041458498-1.23504638671875-13.944930928956637,5.18109130859375-12.710246709106286,12.7095947265625.747683113014318,4.5589599609375,4.424575039071897,8.236083984375,8.9835499324181,8.98406982421875,7.528467041458498,1.23516845703125,13.945114035025654-5.18109130859375,12.710307744462625-12.70965576171875-.747683113014318-4.5589599609375-4.424636074428236-8.236083984375-8.983610967774439-8.9840087890625Z"/>
  <path d="M192.863287353047781,90.15314888431385c-7.528467041458498-1.23504638671875-13.944930928956637,5.18109130859375-12.710246709106286,12.7095947265625.747683113014318,4.5589599609375,4.424575039071897,8.236083984375,8.9835499324181,8.98406982421875,7.528467041458498,1.23516845703125,13.945114035025654-5.18109130859375,12.710307744462625-12.70965576171875-.747683113014318-4.5589599609375-4.424636074428236-8.236083984375-8.983610967774439-8.9840087890625Z"/>
  <path d="M408.3798828125,110.86701607181385c2.9033203125-3.417724609375,4.1473388671875-7.94183349609375,3.4140625-12.412841796875-.842529296875-5.13916015625-4.40087890625-8.0814208984375-4.80419921875-8.40057373046875-.4964599609375-.3917236328125-1.180419921875-1.80419921875-1.180419921875-2.43695068359375v-1.83306884765625c0-.774169921875.6993408203125-2.3699951171875,1.267333984375-2.894775390625.609130859375-.56207275390625,5.918212890625-5.70306396484375,4.71728515625-13.01953125-.842529296875-5.13916015625-4.40087890625-8.0814208984375-4.80419921875-8.40057373046875-.4964599609375-.3917236328125-1.180419921875-1.80419921875-1.180419921875-2.43695068359375v-1.83306884765625c0-.77423095703125.6993408203125-2.3699951171875,1.267333984375-2.89483642578125.609130859375-.56201171875,5.918212890625-5.7030029296875,4.71728515625-13.01953125-.842529296875-5.13909912109375-4.40087890625-8.08135986328125-4.80419921875-8.4005126953125-.4964599609375-.3917236328125-1.180419921875-1.80426025390625-1.180419921875-2.43695068359375v-1.8331298828125c0-.774169921875.6993408203125-2.36993408203125,1.267333984375-2.894775390625.609130859375-.56201171875,5.918212890625-5.7030029296875,4.71728515625-13.02044677734375-1.0361328125-6.317138671875-6.172119140625-11.45257568359375-12.48974609375-12.4891357421875C398.459716796875.0706903882201,397.602783203125.0000116772826,396.7568359375.0000116772826c-4.482666015625,0-8.71923828125,1.9605712890625-11.6229248046875,5.37921142578125-2.9022216796875,3.417724609375-4.1463623046875,7.94085693359375-3.4132080078125,12.41094970703125.8421630859375,5.14007568359375,4.4013671875,8.08233642578125,4.8043212890625,8.40057373046875.4964599609375.39263916015625,1.1802978515625,1.80517578125,1.1802978515625,2.4378662109375v1.8331298828125c0,.60760498046875-.221435546875,1.2747802734375-.38525390625,1.59393310546875-.13525390625.09771728515625-.28662109375.20843505859375-.451171875.32940673828125-1.84814453125,1.3585205078125-3.1121826171875,2.1614990234375-3.76220703125,2.3931884765625h-1.551025390625c-.6328125,0-2.04541015625-.68389892578125-2.4375-1.17987060546875-.318359375-.40289306640625-3.260498046875-3.96112060546875-8.3992919921875-4.80413818359375-.84442138671875-.138671875-1.70147705078125-.2093505859375-2.54730224609375-.2093505859375-4.48272705078125,0-8.7193603515625,1.9605712890625-11.62298583984375,5.37921142578125-2.90228271484375,3.417724609375-4.1463623046875,7.94085693359375-3.41314697265625,12.41094970703125,1.03564453125,6.318115234375,6.171630859375,11.4544677734375,12.48980712890625,12.49102783203125.695556640625.11444091796875,1.405517578125.172119140625,2.11041259765625.172119140625,6.21856689453125,0,10.44818115234375-4.38818359375,10.90936279296875-4.88787841796875.525146484375-.56854248046875,2.1219482421875-1.26824951171875,2.895751953125-1.26824951171875h1.8330078125c.6099853515625,0,1.2813720703125.2242431640625,1.59912109375.38983154296875.0986328125.1358642578125.2103271484375.2884521484375.3326416015625.45501708984375,1.36181640625,1.85174560546875,2.1680908203125,3.11810302734375,2.3997802734375,3.76947021484375v1.55023193359375c0,.774169921875-.69921875,2.36993408203125-1.267333984375,2.894775390625-.6094970703125.56201171875-5.9171142578125,5.7030029296875-4.71728515625,13.01861572265625.8421630859375,5.1400146484375,4.4013671875,8.082275390625,4.8043212890625,8.4005126953125.4964599609375.39263916015625,1.1802978515625,1.80517578125,1.1802978515625,2.43792724609375v1.83306884765625c0,.774169921875-.69921875,2.3699951171875-1.267333984375,2.894775390625-.6094970703125.56201171875-5.9171142578125,5.7030029296875-4.71728515625,13.01861572265625.90576171875,5.52496337890625,4.947021484375,10.14581298828125,10.1722412109375,11.91217041015625-3.2371826171875,1.33349609375-5.2950439453125,3.46795654296875-5.6085205078125,3.8076171875-.525146484375.56854248046875-2.1220703125,1.268310546875-2.895751953125,1.268310546875h-1.8330078125c-.6328125,0-2.04541015625-.6839599609375-2.4375-1.17987060546875-.318359375-.40289306640625-3.260498046875-3.96112060546875-8.3992919921875-4.80419921875-.695556640625-.11444091796875-1.405517578125-.172119140625-2.11041259765625-.172119140625-6.21905517578125,0-10.4482421875,4.38824462890625-10.9093017578125,4.88787841796875-.5252685546875.56854248046875-2.1220703125,1.268310546875-2.895751953125,1.268310546875h-1.8480224609375c-.7099609375,0-2.2066650390625-.68951416015625-2.668701171875-1.22918701171875-.4345703125-.508056640625-4.4278564453125-4.9642333984375-10.699951171875-4.9642333984375s-10.265380859375,4.4561767578125-10.699951171875,4.9642333984375c-.46197509765625.5396728515625-1.958740234375,1.22918701171875-2.668701171875,1.22918701171875h-1.8480224609375c-.7099609375,0-2.2066650390625-.68951416015625-2.668701171875-1.22918701171875-.43450927734375-.508056640625-4.42779541015625-4.9642333984375-10.699951171875-4.9642333984375-6.2720947265625,0-10.265380859375,4.4561767578125-10.699951171875,4.9642333984375-.46197509765625.5396728515625-1.958740234375,1.22918701171875-2.668701171875,1.22918701171875h-1.84796142578125c-.71002197265625,0-2.20672607421875-.68951416015625-2.668701171875-1.22918701171875-.4345703125-.508056640625-4.4278564453125-4.9642333984375-10.70001220703125-4.9642333984375-6.2720947265625,0-10.265380859375,4.4561767578125-10.699951171875,4.9642333984375-.46197509765625.5396728515625-1.95867919921875,1.22918701171875-2.668701171875,1.22918701171875h-1.84796142578125c-.71002197265625,0-2.20672607421875-.68951416015625-2.668701171875-1.22918701171875-.4345703125-.508056640625-4.4278564453125-4.9642333984375-10.699951171875-4.9642333984375-6.27215576171875,0-10.26544189453125,4.4561767578125-10.699951171875,4.9642333984375-.4620361328125.5396728515625-1.958740234375,1.22918701171875-2.668701171875,1.22918701171875h-1.8480224609375c-.7099609375,0-2.20672607421875-.68951416015625-2.668701171875-1.22918701171875-.4345703125-.508056640625-4.4278564453125-4.9642333984375-10.699951171875-4.9642333984375-8.40625,0-15.2454833984375,6.83917236328125-15.2454833984375,15.24530029296875,0,6.2724609375,4.4566650390625,10.26617431640625,4.9652099609375,10.70074462890625.5396728515625.46148681640625,1.228271484375,1.957763671875,1.228271484375,2.667724609375v1.84796142578125c0,.7099609375-.6885986328125,2.20623779296875-1.228759765625,2.667724609375-.508056640625.4345703125-4.9647216796875,4.42822265625-4.9647216796875,10.70074462890625,0,6.2724609375,4.4566650390625,10.26617431640625,4.9652099609375,10.70074462890625.5396728515625.46148681640625,1.228271484375,1.957763671875,1.228271484375,2.667724609375v1.84796142578125c0,.7099609375-.6885986328125,2.20623779296875-1.228759765625,2.667724609375-.508056640625.4345703125-4.9647216796875,4.42828369140625-4.9647216796875,10.70074462890625,0,8.4061279296875,6.8392333984375,15.24530029296875,15.2454833984375,15.24530029296875,6.2720947265625,0,10.265380859375-4.4561767578125,10.699951171875-4.9642333984375.46197509765625-.5396728515625,1.958740234375-1.22918701171875,2.668701171875-1.22918701171875h1.8480224609375c.7099609375,0,2.2066650390625.68951416015625,2.668701171875,1.22918701171875.43450927734375.508056640625,4.42779541015625,4.9642333984375,10.699951171875,4.9642333984375,6.2720947265625,0,10.265380859375-4.4561767578125,10.699951171875-4.9642333984375.46197509765625-.5396728515625,1.95867919921875-1.22918701171875,2.668701171875-1.22918701171875h1.84796142578125c.71002197265625,0,2.20672607421875.68951416015625,2.668701171875,1.22918701171875.4345703125.508056640625,4.4278564453125,4.9642333984375,10.699951171875,4.9642333984375,6.27215576171875,0,10.26544189453125-4.4561767578125,10.70001220703125-4.9642333984375.46197509765625-.5396728515625,1.95867919921875-1.22918701171875,2.668701171875-1.22918701171875h1.84796142578125c.7099609375,0,2.20672607421875.68951416015625,2.668701171875,1.22918701171875.4345703125.508056640625,4.4278564453125,4.9642333984375,10.699951171875,4.9642333984375,6.27215576171875,0,10.26544189453125-4.4561767578125,10.699951171875-4.9642333984375.4620361328125-.5396728515625,1.958740234375-1.22918701171875,2.668701171875-1.22918701171875h1.8480224609375c.7099609375,0,2.20672607421875.68951416015625,2.668701171875,1.22918701171875.4345703125.508056640625,4.4278564453125,4.9642333984375,10.699951171875,4.9642333984375s10.265380859375-4.4561767578125,10.699951171875-4.9642333984375c.4620361328125-.5396728515625,1.958740234375-1.22918701171875,2.668701171875-1.22918701171875h1.8331298828125c.63275146484375,0,2.04522705078125.68389892578125,2.43743896484375,1.17987060546875.3182373046875.40289306640625,3.26055908203125,3.96112060546875,8.3992919921875,4.80419921875.695556640625.11444091796875,1.405517578125.172119140625,2.11041259765625.172119140625,6.21856689453125,0,10.44818115234375-4.38824462890625,10.90936279296875-4.887939453125.525146484375-.5684814453125,2.1219482421875-1.26824951171875,2.895751953125-1.26824951171875h1.8330078125c.6328125,0,2.0452880859375.68389892578125,2.4375,1.17987060546875.3182373046875.40289306640625,3.260498046875,3.96112060546875,8.3992919921875,4.80419921875.8438720703125.13861083984375,1.7010498046875.2093505859375,2.5467529296875.2093505859375h.00146484375c4.4818115234375,0,8.718017578125-1.9605712890625,11.62109375-5.3782958984375,2.9033203125-3.417724609375,4.1473388671875-7.9417724609375,3.4140625-12.412841796875-.842529296875-5.13824462890625-4.40087890625-8.08135986328125-4.80419921875-8.4005126953125-.4964599609375-.39178466796875-1.180419921875-1.80426025390625-1.180419921875-2.43701171875v-1.83306884765625c0-.774169921875.6993408203125-2.3699951171875,1.267333984375-2.894775390625.609130859375-.56201171875,5.918212890625-5.7030029296875,4.71728515625-13.01953125-.842529296875-5.13824462890625-4.40087890625-8.08135986328125-4.80419921875-8.40057373046875-.4964599609375-.3917236328125-1.180419921875-1.80419921875-1.180419921875-2.43695068359375v-1.83306884765625c0-.774169921875.6993408203125-2.3699951171875,1.267333984375-2.894775390625.609130859375-.56201171875,5.918212890625-5.70306396484375,4.71728515625-13.02044677734375-.881591796875-5.37542724609375-4.736328125-9.88494873046875-9.757080078125-11.75177001953125,2.42919921875-.89727783203125,4.623291015625-2.394775390625,6.343017578125-4.41937255859375ZM387.705322265625,144.80134224368885c0,.774169921875-.69921875,2.3699951171875-1.267333984375,2.894775390625-.6094970703125.56201171875-5.9171142578125,5.7030029296875-4.71728515625,13.01861572265625.8421630859375,5.14007568359375,4.4013671875,8.082275390625,4.8043212890625,8.4005126953125.4964599609375.3927001953125,1.1802978515625,1.80517578125,1.1802978515625,2.43792724609375v1.83306884765625c0,.60760498046875-.220947265625,1.2747802734375-.38525390625,1.59393310546875-.13525390625.09771728515625-.28662109375.20843505859375-.451171875.32940673828125-1.84814453125,1.35760498046875-3.1121826171875,2.16156005859375-3.76220703125,2.39324951171875h-1.551025390625c-.6328125,0-2.04541015625-.68389892578125-2.4375-1.17987060546875-.318359375-.40289306640625-3.260498046875-3.96112060546875-8.3992919921875-4.80413818359375-.695556640625-.114501953125-1.405517578125-.17218017578125-2.11041259765625-.17218017578125-6.21905517578125,0-10.4482421875,4.38824462890625-10.9093017578125,4.887939453125-.5252685546875.5684814453125-2.1220703125,1.26824951171875-2.895751953125,1.26824951171875h-1.8480224609375c-.7099609375,0-2.2066650390625-.68951416015625-2.668701171875-1.22918701171875-.4345703125-.508056640625-4.4278564453125-4.9642333984375-10.699951171875-4.9642333984375s-10.265380859375,4.4561767578125-10.699951171875,4.9642333984375c-.46197509765625.5396728515625-1.958740234375,1.22918701171875-2.668701171875,1.22918701171875h-1.8480224609375c-.7099609375,0-2.2066650390625-.68951416015625-2.668701171875-1.22918701171875-.43450927734375-.508056640625-4.42779541015625-4.9642333984375-10.699951171875-4.9642333984375-6.2720947265625,0-10.265380859375,4.4561767578125-10.699951171875,4.9642333984375-.46197509765625.5396728515625-1.958740234375,1.22918701171875-2.668701171875,1.22918701171875h-1.84796142578125c-.71002197265625,0-2.20672607421875-.68951416015625-2.668701171875-1.22918701171875-.4345703125-.508056640625-4.4278564453125-4.9642333984375-10.70001220703125-4.9642333984375-6.2720947265625,0-10.265380859375,4.4561767578125-10.699951171875,4.9642333984375-.46197509765625.5396728515625-1.95867919921875,1.22918701171875-2.668701171875,1.22918701171875h-1.84796142578125c-.71002197265625,0-2.20672607421875-.68951416015625-2.668701171875-1.22918701171875-.4345703125-.508056640625-4.4278564453125-4.9642333984375-10.699951171875-4.9642333984375-6.27215576171875,0-10.26544189453125,4.4561767578125-10.699951171875,4.9642333984375-.4620361328125.5396728515625-1.958740234375,1.22918701171875-2.668701171875,1.22918701171875h-1.8480224609375c-.607177734375,0-1.2752685546875-.221435546875-1.593505859375-.38525390625-.0986328125-.13580322265625-.2098388671875-.2874755859375-.33123779296875-.453125-1.357177734375-1.8470458984375-2.16064453125-3.11065673828125-2.39190673828125-3.7601318359375v-1.5660400390625c0-.7099609375.6885986328125-2.20623779296875,1.228759765625-2.667724609375.508056640625-.4345703125,4.9647216796875-4.42828369140625,4.9647216796875-10.70074462890625,0-6.27252197265625-4.4566650390625-10.26617431640625-4.9652099609375-10.70074462890625-.5396728515625-.46148681640625-1.228271484375-1.957763671875-1.228271484375-2.667724609375v-1.84796142578125c0-.60760498046875.22100830078125-1.2747802734375.38525390625-1.59393310546875.1353759765625-.09771728515625.2861328125-.20843505859375.4508056640625-.32940673828125,1.84844970703125-1.35760498046875,3.112548828125-2.16156005859375,3.76251220703125-2.39324951171875h1.56610107421875c.7099609375,0,2.2066650390625.68951416015625,2.668701171875,1.22918701171875.43450927734375.508056640625,4.42779541015625,4.9642333984375,10.699951171875,4.9642333984375,6.2720947265625,0,10.265380859375-4.4561767578125,10.699951171875-4.9642333984375.46197509765625-.5396728515625,1.95867919921875-1.22918701171875,2.668701171875-1.22918701171875h1.84796142578125c.71002197265625,0,2.20672607421875.68951416015625,2.668701171875,1.22918701171875.4345703125.508056640625,4.4278564453125,4.9642333984375,10.699951171875,4.9642333984375,6.27215576171875,0,10.26544189453125-4.4561767578125,10.70001220703125-4.9642333984375.46197509765625-.5396728515625,1.95867919921875-1.22918701171875,2.668701171875-1.22918701171875h1.84796142578125c.7099609375,0,2.20672607421875.68951416015625,2.668701171875,1.22918701171875.4345703125.508056640625,4.4278564453125,4.9642333984375,10.699951171875,4.9642333984375,6.27215576171875,0,10.26544189453125-4.4561767578125,10.699951171875-4.9642333984375.4620361328125-.5396728515625,1.958740234375-1.22918701171875,2.668701171875-1.22918701171875h1.8480224609375c.7099609375,0,2.20672607421875.68951416015625,2.668701171875,1.22918701171875.4345703125.508056640625,4.4278564453125,4.9642333984375,10.699951171875,4.9642333984375s10.265380859375-4.4561767578125,10.699951171875-4.9642333984375c.4620361328125-.5396728515625,1.958740234375-1.22918701171875,2.668701171875-1.22918701171875h1.8331298828125c.63275146484375,0,2.04522705078125.68389892578125,2.43743896484375,1.17987060546875.3182373046875.40289306640625,3.26055908203125,3.96112060546875,8.3992919921875,4.80413818359375.695556640625.114501953125,1.405517578125.17218017578125,2.11041259765625.17218017578125,6.21856689453125,0,10.44818115234375-4.38824462890625,10.90936279296875-4.887939453125.525146484375-.56854248046875,2.1219482421875-1.26824951171875,2.895751953125-1.26824951171875h1.8330078125c.6099853515625,0,1.2813720703125.2242431640625,1.59912109375.389892578125.0986328125.1358642578125.2103271484375.2884521484375.3326416015625.45501708984375,1.36181640625,1.8516845703125,2.1680908203125,3.11810302734375,2.3997802734375,3.7694091796875v1.55023193359375Z"/>
  <path d="M223.78271484375,74.44172310306385c-.20147705078125.36474609375-.39312744140625.68853759765625-.5653076171875.9658203125-7.4510498046875.9947509765625-13.2174072265625,7.392822265625-13.2174072265625,15.111328125,0,8.4061279296875,6.8392333984375,15.24530029296875,15.2454833984375,15.24530029296875s15.2454833984375-6.83917236328125,15.2454833984375-15.24530029296875c0-2.4630126953125-.26934814453125-4.0634765625-.87188720703125-5.183837890625-.2293701171875-.4512939453125-.22283935546875-1.691650390625.009765625-2.1373291015625l1.28594970703125-2.328125c.20147705078125-.36474609375.3931884765625-.68853759765625.5653076171875-.9658203125,7.4510498046875-.99566650390625,13.21697998046875-7.392822265625,13.21697998046875-15.111328125,0-2.4630126953125-.26934814453125-4.0634765625-.87188720703125-5.18377685546875-.2293701171875-.4512939453125-.22235107421875-1.691650390625.0107421875-2.1383056640625l1.28546142578125-2.328125c.1697998046875-.3070068359375.33221435546875-.58526611328125.48199462890625-.8309326171875h.06561279296875c.67279052734375,0,1.33294677734375-.1405029296875,1.9466552734375-.4158935546875.05908203125-.02423095703125.2958984375-.08563232421875.67645263671875-.08563232421875.665771484375,0,1.17803955078125.183349609375,1.307373046875.26519775390625l3.06512451171875,2.08990478515625c.37078857421875.25311279296875.67877197265625.50433349609375.91143798828125.715576171875.349853515625,8.09808349609375,7.04815673828125,14.58087158203125,15.23248291015625,14.581787109375h2.0093994140625c.67279052734375,0,1.3330078125-.1405029296875,1.9466552734375-.4158935546875.05908203125-.02423095703125.2958984375-.08563232421875.67645263671875-.08563232421875.666259765625,0,1.17852783203125.183349609375,1.307861328125.26519775390625l3.06463623046875,2.08990478515625c.37078857421875.25311279296875.67926025390625.5052490234375.91192626953125.71649169921875.349853515625,8.09814453125,7.04815673828125,14.5799560546875,15.23199462890625,14.5809326171875h2.0098876953125c.67279052734375,0,1.33294677734375-.1405029296875,1.9466552734375-.41595458984375.05908203125-.024169921875.2958984375-.08563232421875.67645263671875-.08563232421875.665771484375,0,1.17803955078125.183349609375,1.307373046875.26519775390625l3.06463623046875,2.08990478515625c.370849609375.25311279296875.67926025390625.5052490234375.91192626953125.71649169921875.349853515625,8.09814453125,7.049072265625,14.5799560546875,15.23291015625,14.5809326171875h.0009765625c4.0718994140625,0,7.9000244140625-1.5855712890625,10.77899169921875-4.46551513671875,2.8785400390625-2.87890625,4.46417236328125-6.70703125,4.46368408203125-10.77886962890625-.00048828125-8.40521240234375-6.8397216796875-15.24530029296875-15.24639892578125-15.2462158203125h-2.00994873046875c-.6727294921875,0-1.33294677734375.1405029296875-1.94659423828125.41595458984375-.05908203125.024169921875-.2958984375.0855712890625-.67694091796875.0855712890625-.66583251953125,0-1.17803955078125-.18328857421875-1.30694580078125-.26519775390625l-3.0650634765625-2.0908203125c-.370849609375-.25213623046875-.6788330078125-.50433349609375-.91143798828125-.714599609375-.350341796875-8.09814453125-7.04913330078125-14.5809326171875-15.23248291015625-14.58184814453125h-2.00946044921875c-.6727294921875,0-1.33294677734375.1405029296875-1.9466552734375.41595458984375-.05908203125.024169921875-.2958984375.0855712890625-.67694091796875.0855712890625-.66619873046875,0-1.177978515625-.18328857421875-1.307373046875-.26519775390625l-3.06463623046875-2.08984375c-.37078857421875-.25311279296875-.67926025390625-.50531005859375-.911865234375-.71649169921875-.34991455078125-8.09814453125-7.04815673828125-14.58001708984375-15.23199462890625-14.5809326171875h-2.00994873046875c-.6727294921875,0-1.33294677734375.1405029296875-1.94659423828125.41595458984375-.05908203125.024169921875-.2958984375.0855712890625-.67694091796875.0855712890625-.66534423828125,0-1.1776123046875-.18328857421875-1.30694580078125-.26519775390625l-3.06463623046875-2.08990478515625c-.3721923828125-.2540283203125-.68157958984375-.507080078125-.9141845703125-.71832275390625-.2987060546875-5.88726806640625-4.4576416015625-9.61297607421875-4.94708251953125-10.03167724609375-.40618896484375-.34710693359375-.755615234375-.7890625-.991455078125-1.15289306640625.00927734375-.00933837890625.01763916015625-.0177001953125.02606201171875-.02423095703125.30377197265625-.211181640625.7294921875-.536865234375,1.23382568359375-.9285888671875.74163818359375-.57598876953125,2.639404296875-2.0489501953125,3.55780029296875-2.441650390625h1.0826416015625c.6513671875,0,2.05413818359375.67645263671875,2.4603271484375,1.1854248046875.44708251953125.56207275390625,4.55810546875,5.484375,11.10699462890625,5.484375,6.5489501953125,0,10.65997314453125-4.92230224609375,11.1070556640625-5.4833984375.40618896484375-.50994873046875,1.8089599609375-1.1864013671875,2.4603271484375-1.1864013671875h1.45062255859375c.6513671875,0,2.05413818359375.67645263671875,2.46026611328125,1.1854248046875.4471435546875.56207275390625,4.55810546875,5.484375,11.1070556640625,5.484375s10.65997314453125-4.92230224609375,11.1070556640625-5.4833984375c.40618896484375-.50994873046875,1.80889892578125-1.1864013671875,2.46026611328125-1.1864013671875h1.45068359375c.6513671875,0,2.05413818359375.67645263671875,2.46026611328125,1.1854248046875.4471435546875.56207275390625,4.55810546875,5.484375,11.1070556640625,5.484375,8.40625,0,15.2454833984375-6.83917236328125,15.2454833984375-15.24530029296875C354.83221435546875,6.83918404056385,347.99298095703125.0000116772826,339.58673095703125.0000116772826c-6.5489501953125,0-10.659912109375,4.92230224609375-11.1070556640625,5.4833984375-.4061279296875.50994873046875-1.80889892578125,1.1864013671875-2.46026611328125,1.1864013671875h-1.45068359375c-.6513671875,0-2.0540771484375-.67645263671875-2.46026611328125-1.18548583984375C321.661376953125,4.92231392337635,317.55035400390625.0000116772826,311.00140380859375.0000116772826s-10.659912109375,4.92230224609375-11.1070556640625,5.4833984375c-.4061279296875.50994873046875-1.80889892578125,1.1864013671875-2.46026611328125,1.1864013671875h-1.45062255859375c-.6513671875,0-2.05413818359375-.67645263671875-2.4603271484375-1.18548583984375C293.0760498046875,4.92231392337635,288.96502685546875.0000116772826,282.41607666015625.0000116772826c-6.54888916015625,0-10.659912109375,4.92230224609375-11.10699462890625,5.4833984375-.40618896484375.50994873046875-1.8089599609375,1.1864013671875-2.4603271484375,1.1864013671875h-1.45062255859375c-.6513671875,0-2.05413818359375-.67645263671875-2.46026611328125-1.18548583984375C264.49072265625,4.92231392337635,260.3797607421875.0000116772826,253.830810546875.0000116772826s-10.65997314453125,4.92230224609375-11.1070556640625,5.4833984375c-.40618896484375.50994873046875-1.8089599609375,1.1864013671875-2.46026611328125,1.1864013671875h-1.45068359375c-.6513671875,0-2.05413818359375-.67645263671875-2.46026611328125-1.18548583984375C235.9053955078125,4.92231392337635,231.79443359375.0000116772826,225.2454833984375.0000116772826,216.8392333984375.0000116772826,210,6.83918404056385,210,15.2452509350951c0,8.4061279296875,6.8392333984375,15.24530029296875,15.2454833984375,15.24530029296875,6.5489501953125,0,10.659912109375-4.92230224609375,11.1070556640625-5.4833984375.4061279296875-.50994873046875,1.80889892578125-1.1864013671875,2.46026611328125-1.1864013671875h1.45068359375c.54248046875,0,1.1617431640625.222412109375,1.45062255859375.38153076171875.35455322265625.51080322265625.79840087890625,1.064453125,1.29901123046875,1.68792724609375.301513671875.37591552734375.79510498046875.990966796875,1.198974609375,1.533447265625-.22332763671875.3182373046875-.5126953125.665283203125-.83514404296875.94073486328125-.508056640625.43450927734375-4.9647216796875,4.42822265625-4.96429443359375,10.70068359375,0,2.46490478515625.2698974609375,4.06536865234375.87237548828125,5.183837890625.2293701171875.4512939453125.22283935546875,1.691650390625-.009765625,2.1373291015625l-1.28643798828125,2.32904052734375c-.20147705078125.36474609375-.39312744140625.6885986328125-.5653076171875.96588134765625-7.4510498046875.99468994140625-13.2174072265625,7.392822265625-13.2174072265625,15.11126708984375,0,2.46307373046875.26934814453125,4.0634765625.872314453125,5.18475341796875.2293701171875.4512939453125.222412109375,1.69073486328125-.01068115234375,2.1373291015625l-1.2850341796875,2.32720947265625Z"/>
  <path d="M621.6875,174.8473017163451c-.54541015625-3.323974609375-1.7930908203125-6.427978515625-3.611572265625-9.14080810546875,3.193359375-4.8043212890625,4.595458984375-10.7593994140625,3.611572265625-16.756591796875-.54541015625-3.32403564453125-1.7930908203125-6.42803955078125-3.611572265625-9.140869140625,3.193359375-4.803466796875,4.595458984375-10.758544921875,3.611572265625-16.75408935546875-.5477294921875-3.3419189453125-1.810546875-6.4263916015625-3.607421875-9.1195068359375,3.265869140625-4.89251708984375,4.576416015625-10.8709716796875,3.607421875-16.78045654296875-.54541015625-3.323974609375-1.7930908203125-6.427978515625-3.611572265625-9.14080810546875,3.193359375-4.8043212890625,4.595458984375-10.7593994140625,3.611572265625-16.756591796875-.54541015625-3.32403564453125-1.7930908203125-6.427978515625-3.611572265625-9.14080810546875,3.193359375-4.80438232421875,4.595458984375-10.7593994140625,3.611572265625-16.75665283203125-.54541015625-3.323974609375-1.7930908203125-6.427978515625-3.611572265625-9.14080810546875,3.193359375-4.80352783203125,4.595458984375-10.758544921875,3.611572265625-16.75408935546875-1.6126708984375-9.83966064453125-9.3077392578125-17.53558349609375-19.1484375-19.1507568359375C601.26708984375.1062128491576,599.9737548828125.0000116772826,598.694091796875.0000116772826c-6.8546142578125,0-13.3306884765625,2.99688720703125-17.769287109375,8.2227783203125-4.19921875,4.94512939453125-6.129638671875,11.38995361328125-5.377685546875,17.83563232421875-.91552734375-.1070556640625-1.8369140625-.1610107421875-2.750732421875-.1610107421875-.92822265625,0-1.848388671875.0596923828125-2.758544921875.1676025390625.107177734375-.90509033203125.168701171875-1.82391357421875.168701171875-2.75732421875C570.20654296875,10.4559442944701,559.7506103515625.0000116772826,546.898681640625.0000116772826c-4.7445068359375,0-9.2125244140625,1.40277099609375-12.9488525390625,3.89642333984375C530.213623046875,1.40278267337635,525.74560546875.0000116772826,521.0009765625.0000116772826c-4.744140625,0-9.212158203125,1.40277099609375-12.9488525390625,3.897216796875C504.3154296875,1.40278267337635,499.847412109375.0000116772826,495.103271484375.0000116772826s-9.212158203125,1.40277099609375-12.9488525390625,3.897216796875C478.417724609375,1.40278267337635,473.94970703125.0000116772826,469.20556640625.0000116772826s-9.212158203125,1.40277099609375-12.94873046875,3.897216796875C452.52001953125,1.40278267337635,448.052001953125.0000116772826,443.307861328125.0000116772826,430.4560546875.0000116772826,420,10.4559442944701,420,23.30768989993885s10.4560546875,23.30767822265625,23.307861328125,23.30767822265625c.83837890625,0,1.66845703125-.0438232421875,2.487060546875-.12982177734375.0184326171875.271484375.041259765625.54205322265625.069091796875.81182861328125-7.692626953125,3.8121337890625-12.99365234375,11.748291015625-12.99365234375,20.89923095703125,0,.81011962890625.041015625,1.613525390625.1226806640625,2.4093017578125-7.6925048828125,3.811279296875-12.9930419921875,11.7474365234375-12.9930419921875,20.89837646484375,0,7.0745849609375,3.172607421875,13.41845703125,8.1650390625,17.69659423828125-4.992431640625,4.278076171875-8.1650390625,10.6219482421875-8.1650390625,17.696533203125,0,4.70068359375,1.423828125,9.18719482421875,3.9403076171875,12.94873046875-2.5164794921875,3.76153564453125-3.9403076171875,8.248046875-3.9403076171875,12.94873046875,0,4.70062255859375,1.423828125,9.18719482421875,3.9403076171875,12.94873046875-2.5164794921875,3.76153564453125-3.9403076171875,8.248046875-3.9403076171875,12.94873046875,0,12.85174560546875,10.4560546875,23.30767822265625,23.307861328125,23.30767822265625,4.70068359375,0,9.187255859375-1.42388916015625,12.948974609375-3.94024658203125,3.761474609375,2.516357421875,8.248046875,3.94024658203125,12.94873046875,3.94024658203125s9.187255859375-1.42388916015625,12.9488525390625-3.94024658203125c3.7615966796875,2.516357421875,8.2481689453125,3.94024658203125,12.9488525390625,3.94024658203125s9.187255859375-1.42388916015625,12.9488525390625-3.94024658203125c3.7615966796875,2.516357421875,8.2481689453125,3.94024658203125,12.9488525390625,3.94024658203125s9.187255859375-1.42388916015625,12.9488525390625-3.94024658203125c3.7615966796875,2.516357421875,8.2481689453125,3.94024658203125,12.9488525390625,3.94024658203125,4.68798828125,0,9.16357421875-1.416259765625,12.91943359375-3.9208984375,2.7110595703125,1.81585693359375,5.811767578125,3.06103515625,9.1324462890625,3.6064453125,1.2720947265625.20819091796875,2.5653076171875.314453125,3.8441162109375.314453125,4.6888427734375,0,9.16455078125-1.416259765625,12.921142578125-3.9208984375,2.710205078125,1.81585693359375,5.811767578125,3.06182861328125,9.13330078125,3.6064453125,1.271240234375.20819091796875,2.564453125.314453125,3.843994140625.314453125h.001708984375c6.85302734375,0,13.3291015625-2.9969482421875,17.766845703125-8.221923828125,4.4376220703125-5.22418212890625,6.342041015625-12.124267578125,5.225830078125-18.9307861328125ZM466.4931640625,89.09492134525135c4.594970703125-2.276123046875,8.3358154296875-6.0250244140625,10.6044921875-10.62451171875,4.0185546875,3.28778076171875,9.15185546875,5.2637939453125,14.7373046875,5.2646484375.26806640625,0,.53564453125-.00421142578125.802978515625-.01348876953125,3.2030029296875,9.04888916015625,11.846923828125,15.55023193359375,21.9813232421875,15.55194091796875.2681884765625,0,.5357666015625-.00506591796875.8031005859375-.01348876953125.572265625,1.61627197265625,1.3248291015625,3.146728515625,2.2216796875,4.577880859375-3.465576171875.50665283203125-6.73779296875,1.7828369140625-9.5919189453125,3.69207763671875-3.7615966796875-2.516357421875-8.2481689453125-3.94024658203125-12.9488525390625-3.94024658203125s-9.187255859375,1.42388916015625-12.9488525390625,3.94024658203125c-3.7615966796875-2.516357421875-8.2481689453125-3.94024658203125-12.9488525390625-3.94024658203125-2.268310546875,0-4.484375.3387451171875-6.595458984375.964599609375,2.52734375-3.72607421875,4.0057373046875-8.218505859375,4.0057373046875-13.050048828125,0-.8101806640625-.0413818359375-1.613525390625-.1226806640625-2.40936279296875ZM575.547119140625,155.54560493900135c-.9146728515625-.1070556640625-1.835205078125-.1610107421875-2.7490234375-.1610107421875-4.70068359375,0-9.18798828125,1.42388916015625-12.9505615234375,3.94024658203125-3.7615966796875-2.516357421875-8.2481689453125-3.94024658203125-12.9488525390625-3.94024658203125s-9.187255859375,1.42388916015625-12.9488525390625,3.94024658203125c-3.7615966796875-2.516357421875-8.2481689453125-3.94024658203125-12.9488525390625-3.94024658203125s-9.187255859375,1.42388916015625-12.9488525390625,3.94024658203125c-3.7615966796875-2.516357421875-8.2481689453125-3.94024658203125-12.9488525390625-3.94024658203125s-9.187255859375,1.42388916015625-12.9488525390625,3.94024658203125c-3.7615966796875-2.516357421875-8.2481689453125-3.94024658203125-12.9488525390625-3.94024658203125-.927734375,0-1.84619140625.0556640625-2.753173828125.16357421875.108154296875-.9071044921875.1634521484375-1.82598876953125.1634521484375-2.7532958984375s-.0552978515625-1.84619140625-.1634521484375-2.7532958984375c.906982421875.10791015625,1.825439453125.16357421875,2.753173828125.16357421875,4.70068359375,0,9.187255859375-1.42388916015625,12.9488525390625-3.9403076171875,3.7615966796875,2.51641845703125,8.2481689453125,3.9403076171875,12.9488525390625,3.9403076171875s9.187255859375-1.42388916015625,12.9488525390625-3.9403076171875c3.7615966796875,2.51641845703125,8.2481689453125,3.9403076171875,12.9488525390625,3.9403076171875s9.187255859375-1.42388916015625,12.9488525390625-3.9403076171875c3.7615966796875,2.51641845703125,8.2481689453125,3.9403076171875,12.9488525390625,3.9403076171875,4.68798828125,0,9.16357421875-1.41632080078125,12.91943359375-3.9208984375,2.7110595703125,1.81585693359375,5.811767578125,3.06097412109375,9.1324462890625,3.6064453125,1.2720947265625.20819091796875,2.5653076171875.314453125,3.8441162109375.314453125.9315185546875,0,1.854736328125-.0556640625,2.76513671875-.165283203125-.2183837890625,1.8023681640625-.228515625,3.64862060546875-.0126953125,5.5057373046875ZM575.5511474609375,103.77045845462635c-.9169921875-.1072998046875-1.8377685546875-.18072509765625-2.7530517578125-.18072509765625-4.70068359375,0-9.18798828125,1.42388916015625-12.9505615234375,3.94024658203125-1.1949462890625-.79925537109375-2.4693603515625-1.47442626953125-3.7940673828125-2.04266357421875,3.0213623046875-4.0130615234375,4.6580810546875-8.87213134765625,4.6573486328125-13.9847412109375-.001708984375-12.848388671875-10.457763671875-23.3043212890625-23.3087158203125-23.30596923828125-.26806640625,0-.5361328125.0050048828125-.803466796875.01348876953125-3.2034912109375-9.0489501953125-11.847900390625-15.55029296875-21.9814453125-15.552001953125-.26806640625,0-.535400390625.00421142578125-.802978515625.01348876953125-1.3095703125-3.69915771484375-3.528076171875-6.9725341796875-6.38671875-9.55047607421875.210693359375-.13153076171875.41845703125-.26470947265625.6246337890625-.40301513671875,3.7366943359375,2.4945068359375,8.2047119140625,3.89727783203125,12.9488525390625,3.89727783203125,4.74462890625,0,9.212646484375-1.40277099609375,12.9488525390625-3.89642333984375,3.736328125,2.49365234375,8.204345703125,3.89642333984375,12.9488525390625,3.89642333984375.934814453125,0,1.85498046875-.0616455078125,2.76123046875-.169189453125-.2581787109375,2.169921875-.2197265625,4.3895263671875.14306640625,6.5997314453125,1.61181640625,9.84051513671875,9.306884765625,17.5372314453125,19.1484375,19.1524658203125,1.271240234375.20819091796875,2.564453125.314453125,3.84326171875.314453125.9315185546875,0,1.854736328125-.0556640625,2.76513671875-.16522216796875-.2613525390625,2.15557861328125-.224365234375,4.3743896484375.1407470703125,6.5982666015625.54541015625,3.3248291015625,1.7930908203125,6.4288330078125,3.6114501953125,9.14166259765625-3.00390625,4.51824951171875-4.4215087890625,10.053466796875-3.7608642578125,15.68292236328125Z"/>
</svg>