<svg width="21" height="24" viewBox="0 0 21 24" fill="none" xmlns="http://www.w3.org/2000/svg">
<path d="M10.5 21C11.3284 21 12 21.6716 12 22.5C12 23.3284 11.3284 24 10.5 24C9.67157 24 9 23.3284 9 22.5C9 21.6716 9.67157 21 10.5 21Z" fill="#FF7700"/>
<path d="M10.5 0C12.6852 0 14.506 1.55761 14.9141 3.62305C15.0456 4.28582 15.2728 4.48114 15.6719 4.50293H15.8525C15.9014 4.50057 15.9506 4.5 16 4.5C17.636 4.5 18.9648 5.80951 18.998 7.4375C19.0082 7.92948 19.1044 8.03917 19.4814 8.2002C20.3747 8.5815 21 9.46738 21 10.5C21 11.8807 19.8807 13 18.5 13C17.3079 13 16.3117 12.1654 16.0615 11.0488C15.9729 10.6568 15.8838 10.5417 15.4258 10.4443C14.5595 10.2764 13.829 9.73485 13.4023 8.99512L13.4014 8.99805C12.9821 8.27166 12.7989 8.78187 13.21 9.28516C13.7037 9.8885 14 10.6596 14 11.5C14 12.718 13.3774 13.7901 12.4336 14.417C12.787 14.8482 13 15.399 13 16C13 17.3807 11.8807 18.5 10.5 18.5C9.11929 18.5 8 17.3807 8 16C8 15.3992 8.21223 14.8481 8.56543 14.417C7.62196 13.79 7 12.7177 7 11.5C7 10.6596 7.29634 9.8885 7.79004 9.28516C8.20346 8.77905 7.99026 8.31945 7.59863 8.99805L7.59668 8.99512C7.16981 9.7349 6.43972 10.2766 5.57324 10.4443C5.11617 10.5417 5.02704 10.6581 4.93848 11.0498L4.9375 11.0488C4.6872 12.1653 3.69201 13 2.5 13C1.11929 13 0 11.8807 0 10.5C0 9.4677 0.625741 8.5817 1.51855 8.2002L1.64746 8.1416C1.87983 8.02536 1.96739 7.90718 1.99316 7.60449L2.00098 7.4375C2.03425 5.8095 3.36403 4.5 5 4.5C5.0491 4.5 5.09796 4.5006 5.14648 4.50293H5.32812C5.72748 4.48126 5.95431 4.28603 6.08594 3.62305C6.49397 1.55761 8.31484 0 10.5 0Z" fill="#FF7700"/>
</svg>
