<?xml version="1.0" encoding="UTF-8"?>
<svg id="_레이어_2" data-name="레이어 2" xmlns="http://www.w3.org/2000/svg" viewBox="0 0 378.999999999999091 442.999995955678969">
  <g id="_레이어_1-2" data-name="레이어 1">
    <path fill="#070707" d="M194.825829933906789.000139263987876c56.532865532031792-.091782892701303,103.39245023597141,45.195564980234849,105.123598472266167,101.701993244159894,1.673650369408278,54.629639770360882-38.395292524222896,100.241606455576402-90.702434387618268,107.336864912374949-62.978537698882064,8.542791410236532-63.600963529659566,54.630289416869346-40.293300085155352,81.562253068515929,7.040876927427234,8.135720765691076,13.50977355663963,11.512376012122331,22.656948103642208,12.139091885675953,7.757215481635285.531483252223552,15.559968958255922-1.222742990674305,22.213745313403706-5.245692989316012,9.96352599752754-6.024062841725026,11.999383861570095-13.526232731284836,12.019606790179751-26.572656359407119.042876566069026-28.713017459105686,23.812909895455959-51.862787314255911,52.753368074751052-50.892569987403476,26.550421084481059.890092285746505,48.232480028185819,22.50345603648384,49.211208004733635,49.050757511178745.141456048600958,3.836894885676884-.143350893260504,7.582953600904148-.807563140031561,11.194809302396607-2.968017578125,17.74200439453125-.238006591796875,22.39599609375,11.49200439453125,30.391998291015625,10.830207804934616,7.199392128055479,17.952100458027417,19.533255995127547,17.885521411746595,33.527537757458049-.104991537456954,22.068221759191147-19.077142127009211,40.405788798481808-41.137009449794277,39.789600079951924-9.676131063413777-.27027917770647-18.491288108161825-3.978099352891149-25.271522215858568-9.944121479988098-1.079986572265625,38.26898193359375-32.44000244140625,68.959991455078125-70.970001220703125,68.959991455078125-22.363006591796875,0-42.311996459960938-10.3389892578125-55.326004028321222-26.49798583984375-16.039993286131903-19.63800048828125-24.246002197264716-23.2540283203125-52.127998352049872-16.391021728515625-7.513790799514027,2.05168838026475-15.457827767093477,3.062221068510553-23.667050825009937,2.864692242477759-42.471692801305835-1.021946115912215-77.494649244997163-34.879304148853407-79.850404714939941-77.297925996317645-.809881161574594-14.58302577350878,2.19383856127024-28.394367784705537,8.103257618196949-40.530755503972614,11.496799468994141-25.08099365234375,11.500101089477539-32.34600830078125-3.547800064086914-58.499008178710938-7.990259647369385-13.347000122070312-12.583999633789062-28.96099853515625-12.583999633789062-45.647994995117188,0-38.727996826171875,24.736000061035156-71.678001403808594,59.270500183105469-83.913101196289062,23.663803100585938-9.017295837402344,27.669898986816406-11.744796752929688,41.492500305175781-38.444297790527344C117.860956834261742,23.950784383816426,153.55058170616212.067150933107769,194.825829933906789.000139263987876ZM357.377037680329522,390.064113935593923c12.323296042604852-.971756021275723,22.530600361034885,9.235548297163405,21.558844339751886,21.558844339768257-.764446233939452,9.694302935251471-8.618616765150364,17.548473466460564-18.312919700400016,18.312919700400016-12.323296042613947.97175602128118-22.530600361053075-9.235548297163405-21.558844339764619-21.558844339777352.764446233944909-9.69430293525329,8.618616765155821-17.548473466458745,18.312919700412749-18.312919700390921Z"/>
  </g>
</svg>