<?xml version="1.0" encoding="UTF-8"?>
<svg id="_레이어_2" data-name="레이어 2" xmlns="http://www.w3.org/2000/svg" viewBox="0 0 467.338988499139305 357.29693242995927">
  <g id="_레이어_1-2" data-name="레이어 1">
    <path fill="#F4F1ED" stroke="rgba(0, 0, 0, 0.3)" stroke-width="1" d="M134.942457845025274.004670361329772c28.912808569906701-.296211895607485,54.612980581736338,13.520392910506416,70.633546183295039,34.984628661568422,23.220001220706763,30.458599090576172,30.024002075197131,33.019100189208984,62.972000122066675,34.330997467041016,6.989990234380457.208900451660156,13.738006591800513,1.37750244140625,20.117980957040345,3.37890625,27.862030029289599,7.901199340820312,38.611022949209655,3.520294189453125,53.009002685539599-18.838802337646484,12.376076324489986-19.915823389710567,34.769812727219687-32.957294436633674,60.138851491030437-32.082650605518211,35.749458666228747,1.232527719288555,64.706246854899291,30.564401837553305,65.50766462033971,66.326122280961499.578438498459946,25.811701172577159-13.245655984450423,48.444284393346607-33.993500974649578,60.424127048921946-33.364990234371362,20.11199951171875-33.234008789060681,32.735000610351562-28.305999755861194,51.783004760742188,1.033732140351276,3.810092238025391,1.422263240860048,7.885140435886569,1.034812596170013,12.104151562674815-1.508915091329982,16.430814213468693-14.948850332559232,29.54683133290564-31.409791577589203,30.680803906707297-19.845177285649697,1.367108139756965-36.368966322619599-14.327043604203936-36.370016135770129-33.879956690085237,0-8.361007690429688,3.022979736329944-16.014999389648438,8.032989501960401-21.932998657226562h-.002990722659888c2.495499933058454-2.951375966349588,4.723540472659806-5.754900676989564,6.535647209269882-8.59723477170337,5.93465977436972-9.308660177877755-7.832305022449873-18.467085315260192-14.2797303401112-9.505944332224317-2.133009284179934,2.96462478770809-4.284344332589171,6.393175095883635-6.524929320328738,10.325179225997999-12.634002685550513,23.354995727539062-37.34600830078125,39.220993041992188-65.764007568361194,39.220993041992188-20.644989013670056,0-39.333984375-8.373992919921875-52.857986450195312-21.910003662109375v.003005981445312l-.119792632904137-.119885466558117c-2.838970014552615-2.841170082740064-7.582253276133997.089651420015798-6.295661434392969,3.894474624230497.944463777525016,2.793051828622993,1.98230853376117,5.75463148556446,3.11445919425023,8.909416579632307,4.721130469664786,12.234820264888185,7.293695452006432,25.537820759996976,7.251487533971158,39.446906209823283-.182146804334479,60.02417517619142-49.698224803451012,108.903564203734277-109.720051596556004,108.342234123547314C48.099667749547734,356.735258227203303.000073800138125,308.290763083563434,0,248.613005840525148c0-26.019012451171875,9.14445972442627-49.902008056640625,24.393600463867188-68.613006591796875,29.540901184082031-36.516998291015625,30.20880126953125-43.850006103515625,25.385700225830078-80.701202392578125-.742734330895473-5.221894562211673-1.023690391150012-10.593361990400808-.794106500916314-16.070841825969183C50.911424265375899,37.271392518518041,88.947958634355018.47588427905248,134.942457845025274.004670361329772ZM353.594095745196682,260.104825388303652c12.631506730660476-.996849425799155,23.094214556820589,9.465262884970798,22.098759137559682,22.096776179259905-.783079027149142,9.936630963564312-8.832929268019143,17.987515381566482-18.769272998129964,18.771589026147922-12.63140942965947.996740400361887-23.095114823589029-9.465473427260804-22.099413028859999-22.097035401437097.783276463011134-9.936715227269815,8.833490204900954-17.987169100522806,18.76992688943028-18.77132980397073Z"/>
  </g>
</svg>