<?xml version="1.0" encoding="UTF-8"?>
<svg id="_레이어_2" data-name="레이어 2" xmlns="http://www.w3.org/2000/svg" viewBox="0 0 354.999842762139451 441.411562592132213">
  <g id="_레이어_1-2" data-name="레이어 1">
    <g>
      <path d="M295.954096033190581,86.038510673593009c-22.712890625-7.8408203125-26.35498046875-10.14990234375-40.765625-35.028076171875C236.815424158190581,18.383725517343009,200.666986658190581-2.897768623281991,159.877924158190581.320981376718009c-84.801466154349328,6.691860573757367-91.689453125,93.546630859375-91.689453125,93.546630859375-2.17333984375,35.36865234375-7.95849609375,41.24267578125-29.4931640625,52.509033203125C10.608959457331366,160.443875305830261-6.700607150438373,192.845029174232877,2.470951097970101,227.890092324053512c5.163678078390149,19.730717446404014,25.355308916359718,41.268710665442995,44.777719771480406,47.492434536416113,11.08860152905072,3.553235205805322,21.951860914410645,4.351449619325649,32.129253288740074,2.988015063123385,85.586924186531178-11.465822059617494,81.113122571219719,77.595124385667077,56.133601093750258,57.210766673828402-.052373097079908-.042738686823213-3.596139939809291-2.922777396030142-7.689226559989038-4.814842075023989-15.034810841181752-6.949971302274207-33.19475004476044-2.178422954784764-42.892593571450561,11.249140825155337-23.008061772050496,31.856795384126599,14.116896061159423,52.578528709182137,14.963844037689341,52.92915332604025l-.00390625.005859375c9.9150390625,4.0927734375,11.62890625,4.759033203125,18.16064453125,18.411865234375l.005859375-.01025390625c3.6015625,7.69580078125,9.14404296875,14.48876953125,16.40625,19.354248046875,18.427734375,13.1728515625,45.48779296875,11.164794921875,61.8505859375-4.45947265625,4.554141776559845-4.141061049316704,8.111726661520152-9.027708758834706,10.687905145900004-14.328209423929366,6.853577833349846-11.842669252824635,9.980971995561049-14.795798615497915,30.356528447849996-19.398108935445634,33.53857421875-6.9931640625,58.27294921875-37.982177734375,55.41845703125-74.19873046875-2.6748046875-33.930419921875-30.1630859375-61.419677734375-64.0927734375-64.09716796875-5.15625-.406982421875-10.20556640625-.248779296875-15.09619140625.408447265625-30.046674453909873,3.976352211066114-49.742521312429744-1.664966420319615-61.555549264639922-18.789037092530634-12.260322053760319-17.772464618050435,4.946118293621112-40.088549836529637,24.808598741490641-35.369337613368771,12.8566832423694,3.054674710236213,17.887421805598933,8.128366598886714,30.35241927314928,21.797779002774405l.00244140625-.00390625c16.96923828125,18.599609375,42.08544921875,29.637939453125,69.70654296875,27.458251953125,41.19970703125-3.25146484375,74.57861328125-36.63134765625,77.826171875-77.832275390625,3.22021484375-40.849609375-22.46484375-76.22509765625-58.7734375-87.856201171875Z"/>
      <path d="M56.757153517430197,301.370584076738851c-10.221574506358593-7.555359910023981-24.677390540759006-3.902114185697428-30.081406778879682,7.602466746724531-3.998974267598896,8.513394682988292-1.375486847069624,18.893722049891949,6.188013691060405,24.485067490031724,10.221372933159728,7.556187330670582,24.677467851030087,3.902331927703926,30.081727521710491-7.603118440802064,3.998827937868555-8.513343024736969,1.375423852488893-18.893602356156407-6.188334433891214-24.484415795954192Z"/>
    </g>
  </g>
</svg>