<?xml version="1.0" encoding="UTF-8"?>
<svg id="_레이어_2" data-name="레이어 2" xmlns="http://www.w3.org/2000/svg" viewBox="0 0 233.651354128178355 59.269998502709313">
  <defs>
    <style>
      .cls-1 {
        fill: #040000;
      }
    </style>
  </defs>
  <g id="Layer_1" data-name="Layer 1">
    <g>
      <g>
        <g>
          <path class="cls-1" d="M96.43855412818084,10.206168614259695h-4.684600000000501l-4.733400000000984,14.543999999999869c-.003899999999703.011700000000928-.028299999998126.104500000000371-.028299999998126.104500000000371,0,0-.192399999999907.751900000000205-.379899999999907,1.481399999999667-.145500000002357-.539999999999964-.308600000000297-1.074199999999109-.541000000001077-1.827100000000428-.003899999999703-.005899999999201-4.590899999999237-14.302799999999479-4.590899999999237-14.302799999999479h-5.084399999999732l-2.245100000000093,22.342800000000352h3.799799999997049l1.400400000002264-15.64890000000014s.047299999998359-.653800000000047.098099999999249-1.435100000000602c.067900000000009.229500000000371.202099999998609.699200000000928.202099999998609.699200000000928l.272500000002765.863299999999072c0,.005400000000009,4.98149999999805,15.521500000000742,4.98149999999805,15.521500000000742h3.203100000000632l5.377900000001318-16.292000000000371c.055699999997159-.15769999999975.118199999997159-.355999999999767.182600000000093-.55369999999948.00879999999961.228499999999258.034199999998236.721700000000055.034199999998236.721700000000055,0,.006299999999101,1.47360000000117,16.123999999999796,1.47360000000117,16.123999999999796h3.905299999998533l-2.207999999998719-22.342800000000352h-.435499999999593Z"/>
          <path class="cls-1" d="M120.223654128179987,10.206168614259695l-4.872099999998682,8.405300000000352c-.015600000002451.028299999999945-.512700000002951.933600000000297-.898400000001857,1.629899999999907-.377899999999499-.723700000000463-.850599999999758-1.626500000000306-.850599999999758-1.626500000000306l-4.794899999998961-8.408699999999953h-4.757799999999406s8.160099999997328,13.293999999999869,8.298799999998664,13.51760000000013v8.825200000000223h4.003899999999703v-8.666500000000269c.138700000001336-.229000000000269,8.373099999998885-13.676300000000083,8.373099999998885-13.676300000000083h-4.501999999998588Z"/>
          <path class="cls-1" d="M139.515654128179449,9.831668614259797c-6.328099999998813,0-10.264599999998609,4.388199999999415-10.264599999998609,11.449700000000121,0,3.758300000000418,1.064399999999296,6.806700000000092,3.079999999998108,8.818400000000111,1.863300000000891,1.867199999999684,4.395500000002357,2.854500000000371,7.328199999999924,2.854500000000371,2.650400000002264,0,4.603500000001077-.64850000000115,6.533200000001671-2.161200000000463,2.642499999998108-2.100099999999657,3.767499999998108-4.814400000000205,3.767499999998108-9.073200000000725,0-3.550799999999072-.736299999998664-6.16019999999935-2.320299999999406-8.209999999999127-1.302700000000186-1.678200000000288-3.765599999998813-3.678200000000288-8.123999999999796-3.678200000000288ZM139.803754128181026,30.030368614259714c-1.914100000001781,0-4.039100000001781-.918899999999667-4.837900000002264-2.096599999999853-.920899999999165-1.364300000000185-1.494099999999889-4.114300000000185-1.494099999999889-7.180699999999888,0-2.566400000000613.364199999999983-4.306600000000799,1.181599999999889-5.63970000000063.841800000001967-1.379299999999603,2.747999999999593-2.268500000000131,4.862300000000687-2.268500000000131,2.298800000000483,0,4.146499999998923.981400000000576,5.065399999999499,2.683600000000297l.002000000000407.001000000000204c.76759999999922,1.388100000000122,1.122999999999593,3.475599999999758,1.122999999999593,6.565399999999499,0,3.668000000000575-.667900000000373,5.15480000000025-1.668900000000576,6.251900000001115-1.000999999998385,1.135800000000017-2.387699999999313,1.683599999999387-4.233399999997346,1.683599999999387Z"/>
          <path class="cls-1" d="M171.209954128178651,10.267668614259492l.113300000000891,12.079100000000835c.01759999999922,1.329099999999016.089899999999034,2.856499999999869.164100000001781,4.104099999999562-.412100000001374-.805199999999786-.865200000000186-1.679199999999582-1.242200000000594-2.322799999999916-.003899999999703-.004400000000714-8.316399999999703-13.860400000000482-8.316399999999703-13.860400000000482h-4.153300000001764v22.281300000000556h4.012699999999313l-.154299999998329-12.863300000000891c-.021499999998923-1.200199999999313-.069400000000314-2.333999999998923-.135800000000017-3.439399999999296.551800000001094,1.007799999999406,1.176800000001094,2.090799999999945,1.721699999998236,3.005799999999908.001000000000204.002999999999702,8.025400000002264,13.296900000000278,8.025400000002264,13.296900000000278h3.831999999998516V10.267668614259492h-3.867200000000594Z"/>
          <path class="cls-1" d="M192.936554128180433,23.476668614260234h5.246100000000297v5.70509999999922c-.927700000000186.442399999999907-2.064500000000407.694300000001022-3.429700000000594.694300000001022-2.302700000000186,0-4.595700000001671-.860800000000381-5.572299999999814-2.094700000000557-1.042900000000373-1.318299999999908-1.617099999999482-3.512700000000223-1.617099999999482-6.184599999999591,0-1.954999999999927.3125-3.722600000000966.933600000000297-5.245600000000195,1.111299999998664-2.742600000000493,4.191399999999703-3.317800000000716,6.170799999999872-3.317800000000716,3.368199999998978,0,5.323300000000017.807099999999991,7.024499999999534,1.967700000001059l-.013699999999517-3.654300000000148c-1.623100000000704-.811500000000706-4.373100000000704-1.329100000000835-7.082000000002154-1.329100000000835-2.683600000000297,0-5.363299999999072.698800000000119-7.199300000000221,2.130400000000009-2.679599999999482,2.036600000000362-3.984300000000076,5.099100000000362-3.984300000000076,9.353000000000975,0,3.835999999999331,1.015600000002451,6.577199999999721,3.199200000002747,8.638699999999517,1.964799999997922,1.842800000000352,4.691399999999703,2.814500000000407,7.890599999998813,2.814500000000407,2.585899999998219,0,5.328099999998813-.64850000000115,7.156299999998737-1.684600000000501l.242099999999482-.137200000000121v-10.731499999999869h-8.931599999999889l-.033199999998033,3.075700000000325Z"/>
          <path class="cls-1" d="M214.637754128179949,10.206168614259695v14.106499999999869c0,2.109300000000076-.132799999999406,3.023400000000038-.529300000000148,3.636200000000827-.443400000000111.744099999999889-2,1.619099999999889-2.978499999999258,1.865699999999379-.367200000000594.08889999999974-.8125.121099999999387-.8125.121099999999387l-.015699999999924,2.630900000000111s1.417999999997846.104500000000371,2.837899999998626-.215399999999136c2.015699999999924-.45850000000064,3.577199999999721-1.64010000000053,4.423900000001595-2.941899999999805.535099999999147-.860300000000279.828099999998813-1.788000000000466.902299999997922-2.847600000000966,0-.003899999999703.072299999999814-2.308599999999387.072299999999814-2.308599999999387v-14.046900000000278h-3.900399999998626Z"/>
          <polygon class="cls-1" points="232.262754128179949 10.206168614259695 228.91505412817969 10.206168614259695 228.91505412817969 32.548968614260048 232.741254128181026 32.548968614260048 232.741254128181026 10.206168614259695 232.262754128179949 10.206168614259695"/>
        </g>
        <g>
          <path class="cls-1" d="M81.546954128180005,38.298468614259946v5.99120000000039c0,2.268099999999322-.795899999999165,3.322799999999916-2.49960000000101,3.322799999999916-1.706999999998516,0-2.501399999999194-1.054700000000594-2.501399999999194-3.322799999999916v-5.99120000000039h-1.618199999998978v6.185599999999795c0,2.94669999999951,1.46140000000014,4.56880000000001,4.119599999998172,4.56880000000001,2.65480000000025,0,4.119699999999284-1.622100000000501,4.119699999999284-4.56880000000001v-6.185599999999795h-1.620099999998274Z"/>
          <path class="cls-1" d="M100.926754128180619,38.298468614259946v8.294399999999769c-.162100000001374-.298799999999574-4.54490000000078-8.294399999999769-4.54490000000078-8.294399999999769h-2.134699999998702v10.575199999999313h1.617099999999482v-8.476999999998952c.164099999998143.295899999999165,4.667999999997846,8.476999999998952,4.667999999997846,8.476999999998952h2.01470000000154v-10.575199999999313h-1.620199999999386Z"/>
          <polygon class="cls-1" points="113.612354128181323 38.298468614259946 113.612354128181323 48.873668614259259 115.231454128181213 48.873668614259259 115.231454128181213 38.298468614259946 115.168954128181213 38.298468614259946 113.612354128181323 38.298468614259946"/>
          <path class="cls-1" d="M133.325254128179949,38.298468614259946s-3.197299999999814,8.827199999999721-3.281299999998737,9.05619999999999c-.080100000002858-.232500000000073-3.192399999999907-9.05619999999999-3.192399999999907-9.05619999999999h-1.807600000000093l3.984399999997549,10.575199999999313h1.955100000001039l4.044899999998961-10.575199999999313h-1.703099999998813Z"/>
          <path class="cls-1" d="M144.91505412817969,38.298468614259946v10.575199999999313h5.978499999999258v-1.439899999999398h-4.359300000000076v-3.324700000000121h3.970700000001671v-1.438999999999396h-3.970700000001671v-2.932600000000093h4.359300000000076v-1.439000000000306h-5.978499999999258Z"/>
          <path class="cls-1" d="M166.274454128179059,43.596768614260327c1.25-.264600000000428,2.082000000002154-1.215799999999945,2.082000000002154-2.406700000000455,0-2.542000000000371-1.979500000001281-2.891599999999926-4.120100000000093-2.891599999999926h-2.623000000001412v10.575199999999313h1.622000000001208v-4.643999999999323h.835999999999331c.779299999998329,0,1.25,0,1.698199999998906.983400000000074l1.61620000000039,3.660599999999249h1.843799999998737l-2.01759999999922-4.25c-.302700000000186-.594199999999546-.536099999999351-.844199999999546-.9375-1.026899999998932ZM166.645554128179356,41.217868614259714c0,.985400000000482-.820299999999406,1.572300000000723-2.200199999999313,1.572300000000723h-1.209999999999127v-3.052700000000186h1.376000000000204c1.291999999997643,0,2.034199999998236.538499999999658,2.034199999998236,1.480399999999463Z"/>
          <path class="cls-1" d="M182.237354128181323,42.56796861426028c-.949200000002747-.454600000000937-1.765600000002451-.848100000001068-1.765600000002451-1.678200000000288,0-1.202100000000428,1.236300000000483-1.332500000000437,1.765600000002451-1.332500000000437.765599999998813,0,1.179699999996956.130400000000009,1.939399999999296.430200000000696l.072299999999814.028299999999945.228499999999258-1.502000000000407-.046899999999368-.017499999999927c-.67870000000039-.24120000000039-1.5-.378000000000611-2.251899999999296-.378000000000611-2.074200000002747,0-3.414100000001781,1.141600000000835-3.414100000001781,2.905800000000454,0,1.798300000000381,1.357500000001892,2.436999999999898,2.556700000001001,2.998499999999694,1.039000000000669.489300000001094,1.9375.909200000000055,1.9375,1.945300000000316,0,1.206600000000435-1.193400000000111,1.644600000000537-1.994200000001001,1.644600000000537-.855400000000373,0-1.859300000000076-.386700000000928-2.148399999998219-.503400000000511l-.074200000002747-.031799999999748-.164099999998143,1.524400000000242.046900000001187.013699999999517c.679699999996956.221700000000055,1.405299999998533.4375,2.160099999997328.4375,2.466800000001967,0,3.880900000000111-1.157199999999648,3.880900000000111-3.175799999999981,0-1.99119999999948-1.451199999999517-2.691400000000613-2.728499999997439-3.309099999999489Z"/>
          <polygon class="cls-1" points="195.417054128178279 38.298468614259946 195.417054128178279 48.873668614259259 197.038154128178576 48.873668614259259 197.038154128178576 38.298468614259946 196.97755412817969 38.298468614259946 195.417054128178279 38.298468614259946"/>
          <path class="cls-1" d="M206.950254128179949,38.298468614259946v1.439000000000306h3.25v9.136199999999008h1.619099999999889v-9.136199999999008h3.25v-1.439000000000306h-8.119099999999889Z"/>
          <path class="cls-1" d="M233.536154128179987,38.298468614259946h-1.785099999999147s-2.911200000002282,4.485800000000381-3.009799999999814,4.636199999999917c-.097700000002078-.148400000000038-3.080100000001039-4.636199999999917-3.080100000001039-4.636199999999917h-1.900400000000445s4.123100000000704,6.127399999999398,4.14259999999922,6.159200000000055v4.415999999999258h1.619099999999889v-4.433599999999387c.00879999999961.005400000000009,4.063500000000204-6.04740000000038,4.063500000000204-6.04740000000038l.065399999999499-.094199999999546h-.115199999998367Z"/>
        </g>
      </g>
      <g>
        <path class="cls-1" d="M48.00249999999869,47.369074788020043l.892600000001039.874523993249568c.239700000000084.234399994070372.429699999998775.434599989010167.5716999999986.603476006749588.14600000000064.169523973710966.2408000000014.343823969310506.287200000002485.524923964740083l.353499999997439-.360799990889063c-.04149999999936-.166499995790218-.125499999998283-.347199991230809-.25249999999869-.540499986350369-.126899999999296-.194899995060041-.299299999998766-.400399989880498-.518499999998312-.615299984449848,0,0-.914100000001781-.896899977340581-.921900000001187-.905699977120094-.099600000001374-.087899997770364-.206099999999424-.13089999668955-.322299999999814-.123099996880228-.123500000001513.007799999790223-.234300000000076.06199999843011-.333999999998923.162099995889548l-1.98240000000078,2.019599948990617.312999999998283.307599992219366,1.91359999999986-1.946823966149168Z"/>
        <polygon class="cls-1" points="49.729100000000471 49.954598738049754 48.377000000000407 48.62739877156946 47.973200000000361 49.037598761209665 49.324799999998504 50.36619872764004 49.324300000000221 50.367198727620234 48.973200000000361 50.724074788029611 47.62159999999858 49.396398752139248 47.216400000001158 49.808074788020349 48.568400000000111 51.137198708159303 48 51.716798693519195 47.999100000000908 51.716798693519195 48.29989999999998 52.012198686060401 48.29989999999998 52.012198686060401 48.300800000000891 52.013074788020276 51.152900000000955 49.109298759390185 51.152900000000955 49.10789875942919 50.85109999999986 48.812498766899807 49.729100000000471 49.954598738049754"/>
        <path class="cls-1" d="M30.441899999999805,54.810998615360404v1.221699969129986h-.604000000001179v-1.221699969129986h-.563899999997375v2.452076172659872c-.065500000000611.033223764548893-.156300000002375.063523763788908-.270500000002357.090423763119361-.114299999999275.025399999340152-.239299999999275.038576236879635-.374499999998079.038576236879635h-.913100000001577v-2.033276186499279h1.047300000001997v-.39889998992021h-1.638600000002043v2.372599940060354c0,.150399996199667.046800000000076.266099993269563.139100000000326.349099991179173.093300000000454.081999997940329.209500000000844.123476245190432.352999999999156.123476245190432h.981999999999971c.14600000000064,0,.275900000000547-.018476247839317.387700000001132-.049276247070338.097100000000864-.028799999269722.201599999998507-.078099998009748.287600000001476-.141099996430057v1.655299958179967h.563899999997375v-2.801799929219669h.604000000001179v2.801799929219669h.566400000001522v-4.458999887348909h-.566400000001522Z"/>
        <path class="cls-1" d="M20.449799999998504,53.145998657420023l.58640000000014.271399993140221c-.007299999997485,0-1.86869999999908,4.025399898309843-1.864799999999377,4.034199898100269l-.580500000000029-.267599993240765c.009200000000419-.003923767390006,1.864700000001903-4.031699898159786,1.858899999999267-4.037999897999725ZM18.899000000001251,53.023898660499981l-.189000000002125.406699989730441c-.177199999998265.381399990359569-.239699999998265.760299980789569-.155800000000454,1.153799970848922.084500000000844.39359999007047.249100000000908.676299982920682.490300000001298.851099978500315l-.388699999999517.158699995999996c-.165000000000873-.151899996169959-.366700000000492-.321299991889646-.504899999999907-.619599984359411-.139600000002247-.29889999245097-.179700000000594-.594299984980353-.164000000000669-.795899979890237-.146499999998923.145499996319813-.398499999999331.304199992319809-.711999999999534.387699990200417-.316399999999703.083999997879801-.579499999999825.052199998689503-.80370000000039.01799999954892l-.127899999999499-.39789998995002c.291999999999462.073199998150812.615200000000186.01409999965108.966799999998329-.176299995539011.352500000000873-.192399995140477.602100000000064-.486299987710481.77730000000156-.866199978120676l.1875-.407199989719629s-.781200000001263-.362299990830252-.787100000001374-.358899990929785l.168000000001484-.363823888790648,2.192399999999907,1.013723872370065-.167499999999563.361799990860163c-.001900000001115-.004899999869849-.781699999999546-.365699990759822-.781699999999546-.365699990759822Z"/>
        <rect class="cls-1" x="41.213400000000547" y="55.219407143602204" width=".000749999999243" height=".011259105675457"/>
        <rect class="cls-1" x="41.13265993769555" y="55.241148604494811" width=".078480124609449" transform="translate(-17.149968981697917 18.563233625102484) rotate(-21.137100566087803)"/>
        <rect class="cls-1" x="41.171900000000278" y="55.201908542190083" height=".078480124609449"/>
        <path class="cls-1" d="M41.861899999999878,55.483398598379608c-.052800000001298-.140199996460069-.136800000000221-.231499994149999-.252000000000407-.276399993030282-.115699999998469-.044399998879271-.240699999998469-.040999998949701-.372100000000501.009299999780524l-2.580999999998312.98039997521937.156699999999546.411699989600493,2.478500000001077-.939499976269872.464399999997113,1.222176194340136.560100000002421-.211376219870544-.454600000000937-1.196299969769825Z"/>
        <polygon class="cls-1" points="41.006900000000314 53.230398655279714 40.658299999999144 52.309498678549971 40.097200000000157 52.52239867317985 41.024900000000343 54.963298611509344 41.584500000000844 54.75139861685966 41.149900000000343 53.607898645759633 41.149900000000343 53.607898645759633 41.816899999999805 53.354898652140037 41.674399999999878 52.977498661669415 41.006900000000314 53.230398655279714"/>
        <rect class="cls-1" x="41.213400000000547" y="55.219407143602204" width=".000749999999243" height=".011259105675457"/>
        <rect class="cls-1" x="41.13265993769555" y="55.241148604494811" width=".078480124609449" transform="translate(-17.149968981697917 18.563233625102484) rotate(-21.137100566087803)"/>
        <rect class="cls-1" x="41.171900000000278" y="55.201908542190083" height=".078480124609449"/>
        <path class="cls-1" d="M39.606999999999971,53.433074788020349l.238799999999173-.089876135580198-.140199999998003-.36912386441054-.941900000001624.35642386472955-.147899999999936-.394499990029544-.578600000000733.220699994430106.06880000000092.184099995340148.08009999999922.209499994699399-.939500000000407.356399991000217.140699999999924.370099990650488.237300000000687-.090299997720649.370100000000093-.140199996460069c-.100599999997939.136776153351093-.164099999998143.28619999276998-.19289999999819.44977615336029-.027799999999843.162123831200006-.013200000001234.32272382714018.044399999998859.475123823290232.100599999999758.264099993320087.290099999998347.449699988629618.567399999999907.556599985930006.279300000000148.110276190770492.563000000000102.108399997269771.854999999999563-.001999999950385.293900000000576-.111299997190144.506799999999203-.298799992438944.642100000000937-.565399985719523.13379999999961-.263699993340197.152299999997922-.528799986640479.052199999998265-.791499980000481-.058099999998376-.153823843559621-.151799999999639-.283699992839502-.282199999997829-.386699990229317-.120600000002014-.096199997569784-.259300000001531-.163123853330035-.412100000001374-.199699994960611h0c-.011200000000827-.003423858370297-.020000000000437-.005899999849134-.029299999998329-.00929999976961h0l.361299999998664-.136699996529387c.003500000000713-.000500000000102.006400000000212-.002499999950487.006400000000212-.003423862070122ZM39.420900000000984,54.838298614669839c-.059000000001106.153899996109431-.157200000001467.255899993529965-.297300000001997.309599992179756-.136199999999008.050299998730225-.277399999999034.040099998979713-.423800000000483-.036599999079954-.144599999999627-.074223819739927-.248099999998885-.190899995180189-.306699999997363-.346699991239802-.060500000001412-.156199996060423-.060500000001412-.309999992169651-.001900000001115-.463399988299898.060499999999593-.154799996080328.157199999999648-.256799993509958.293899999998757-.308999992179452.140600000002451-.051799998700517.282200000001467-.041123848030111.427700000000186.035099999098748.144599999999627.07669999807058.244699999999284.191899995170388.303800000001502.348599991200899.058999999999287.155799996059613.061499999999796.310099992159849.004300000000512.462399988319703Z"/>
        <path class="cls-1" d="M13.104100000000471,48.941898763619974l-.45850000000064-.467299988190462c.002400000001217.006799999830037-.33350000000064.331476012590429-.33350000000064.331476012590429l-.520499999998719-.528776007609849.251899999999296-.248499993709629-1.555700000000797-1.582499960020868c.001000000000204.006299999829935-1.169899999998961,1.145899971040308-1.169899999998961,1.145899971040308-.104000000001179.102599997409925-.153800000000047.211999994649887-.153800000000047.327699991719783.001999999998588.115699997090815.056200000000899.227499994260143.161600000001272.335399991529812l1.22269999999844,1.244699968550776.289000000000669-.285699992780792.520599999999831.530299986599857-.454099999999016.445299988750776.454499999999825.46189998833961s1.738299999997253-1.713399956720423,1.745699999999488-1.70989995680975ZM10.37749999999869,48.760198768209193l-.65139999999883-.66212398018979.931700000001001-.913575979999223.650399999998626.660699983309314-.930700000000797.914999976879699ZM11.667499999999563,49.439898751040346l-.52100000000064-.529299986620572.335500000001048-.330999991640056.521499999998923.531699986569947-.335999999999331.32859999169068Z"/>
        <path class="cls-1" d="M10.774900000000343,50.609298721499727c-.025300000001153-.314899992049504-.158200000001671-.594223933479952-.398400000001857-.840799978760515-.239199999999983-.241699993879593-.517099999997299-.379899990399281-.831999999998516-.411099989609284-.316900000001624-.03132396510955-.577199999999721.054676034899785-.783200000001671.256299993529865-.207099999999627.204099994830358-.296899999997549.463376041359879-.271499999998923.781299980249969.024400000000242.313899992070219.159200000001874.594199984990155.396499999998923.837899978840142.242200000000594.245099993800068.519500000002154.383299990309752.834000000002561.412599989570481.313399999999092.029799999249008.574199999999109-.055699998591081.781199999997625-.260299993410626.206100000001243-.202123913889409.297400000001289-.46189998833961.273400000001857-.775899980410031ZM9.582599999999729,51.119074788020043c-.172899999999572.016123920199789-.315499999998792-.036076078489714-.428699999998571-.15037607559043-.109400000001187-.11229999716943-.157300000002579-.255799993539767-.141600000002654-.429199989169319.014600000002247-.173299995620255.088800000001356-.324199991810019.215299999999843-.449699988640532.129400000001624-.125999996810606.28070000000298-.197299995009416.455600000001141-.210399994680301.1762000000017-.015199999609649.319299999999203.033199999160388.430599999999686.145999996309911.113300000000891.114199997110518.160200000002078.260199993440438.140200000001641.433999989039876-.018100000001141.17389999560055-.091400000001158.324676062730759-.220300000000861.450199988620625-.127899999999499.126999996789891-.279300000000148.19729999502033-.451100000000224.209476074110171Z"/>
        <path class="cls-1" d="M25.27980000000025,16.30219958816997c.207999999998719-.051299998690411,1.613799999999173-1.830999953749597,1.154299999998329-3.720199906020753-.505299999998897-2.072799947639396-2.794399999998859-3.015099923829439-2.794399999998859-3.015099923829439,0,0-1.590799999999945,1.934999951120517-1.05029999999897,4.146399895250397.459999999999127,1.888699952289244,2.412099999997736,2.657775134459371,2.690399999999499,2.588899934599795Z"/>
        <path class="cls-1" d="M37.131399999998393,12.820299676129252c-.178699999998571-.119224888108874-2.442399999999907.045899998850473-3.524399999998423,1.660599958050625-1.188000000000102,1.769999955299681-.337400000000343,4.097699896479753-.337400000000343,4.097699896479753,0,0,2.502400000001217-.135799996570313,3.770000000000437-2.025899948819642,1.082999999998719-1.614699959200152.329600000000937-3.574199909709932.091799999998329-3.732399905710736Z"/>
        <path class="cls-1" d="M16.248599999998987,29.091299265089219c.095700000001671-.191399995169377-.35989999999947-2.415999938969435-2.100599999997939-3.280799917120021-1.909200000001874-.949199976009368-4.106900000002497.193899995100764-4.106900000002497.193899995100764,0,0,.456500000000233,2.462799937789896,2.49460000000181,3.475999912199768,1.739199999999983.866675532749468,3.585899999998219-.132324467250328,3.712899999998626-.389099990180512Z"/>
        <path class="cls-1" d="M15.714899999999034,41.325598956030262c.20600000000195.05959999848892,2.30710000000181-.796799979880234,2.839299999999639-2.667899932600449.582099999999627-2.051299948189808-.946199999998498-4.000999898929877-.946199999998498-4.000999898929877,0,0-2.33889999999883.902299977210532-2.959999999999127,3.089375663529609-.530300000002171,1.870624211170252.790999999997439,3.502424169940241,1.066899999997986,3.579524168000717Z"/>
        <path class="cls-1" d="M41.786199999998644,29.521899254209529c.005400000001828.213399994610882,1.44970000000103,1.963899950390442,3.394000000000233,1.911699951720948,2.133300000001327-.05669999858037,3.536200000002282-2.096199947060086,3.536200000002282-2.096199947060086,0,0-1.557700000001205-1.961499950450161-3.833099999999831-1.902899951930522-1.941800000000512.052799998679802-3.106400000000576,1.800799954519789-3.097100000002683,2.08739994726966Z"/>
        <path class="cls-1" d="M38.995699999999488,34.76019912187985c-.192399999999907.092799997660222-1.197299999999814,2.128875666149725-.354499999999462,3.879875666139924.925699999999779,1.922924187279932,3.362299999998868,2.365724176080221,3.362299999998868,2.365724176080221,0,0,1.15230000000156-2.22309994383977.165000000000873-4.273899892020381-.841800000000148-1.751499955759755-2.912599999999657-2.096199947039167-3.172800000000279-1.971699950199763Z"/>
        <path class="cls-1" d="M27.177800000001298,26.401299333039788c-.161600000001272-.137699996520496-2.429700000000594-.218699994470626-3.681200000002718,1.268099967969647-1.372999999999593,1.633299958740281-.778299999998126,4.037599897999826-.778299999998126,4.037599897999826,0,0,2.501499999998487.136699996561219,3.965799999998126-1.603499959489454,1.250500000001921-1.489299962379846.714400000000751-3.519099911100056.493700000002718-3.702199906480018Z"/>
        <path class="cls-1" d="M15.12749999999869,18.852999523730432c-.206099999999424.054199998628974-1.5625,1.872075264299383-1.054199999998673,3.74799990532938.560999999999694,2.05907535895949,2.875499999998283,2.93849992575997,2.875499999998283,2.93849992575997,0,0,1.537600000001476-1.977499950050515.941400000001522-4.171899894609851-.511700000000928-1.876399952599968-2.485399999999572-2.59129993453007-2.762700000001132-2.514599936479499Z"/>
        <path class="cls-1" d="M47.715899999999237,36.650799074120187c.1137000000017-.182099995399767-.123599999998987-2.439899938360213-1.77100000000064-3.469724286100245-1.808600000000297-1.130775597679531-4.10649999999805-.205075621060132-4.10649999999805-.205075621060132,0,0,.214899999999034,2.495599936949475,2.144099999997707,3.700199906520538,1.646900000001551,1.03129997394899,3.582000000002154.216299994529436,3.733400000000984-.025399999360161Z"/>
        <path class="cls-1" d="M29.891599999999016,23.413499408519783c.027900000000955.213899994600069,1.643100000001141,1.805699954390548,3.570800000001327,1.556699960679907,2.114799999999377-.273499993079895,3.303799999999683-2.446299938200355,3.303799999999683-2.446299938200355,0,0-1.749099999999089-1.790999954759172-4.005900000000111-1.499999962109541-1.927700000000186.24899999371064-2.906199999999444,2.107399946769874-2.868700000000899,2.389599939629989Z"/>
        <path class="cls-1" d="M43.319400000000314,26.731899324689948c.204600000000937.062499998420208,2.326600000000326-.748499981079476,2.895499999998719-2.605499934180443.626500000002125-2.039499948469711-.85989999999947-4.020499898429989-.85989999999947-4.020499898429989,0,0-2.356400000000576.849599978550032-3.02390000000014,3.025399923580153-.570799999999508,1.857899953060041.715299999999843,3.517099911140576.988300000000891,3.600599909030279Z"/>
        <path class="cls-1" d="M16.024000000001251,31.031199216090499c-.149900000000343-.15329999612004-2.397500000002765-.465799988240178-3.794499999999971.885299977639079-1.531200000001263,1.482399962540512-1.187900000000809,3.934999900580806-1.187900000000809,3.934999900580806,0,0,2.474599999999555.393575693709863,4.110300000000279-1.188899969960403,1.397499999999127-1.35159996586026,1.070799999997689-3.426299913449839.872100000000501-3.631399908259482Z"/>
        <path class="cls-1" d="M21.028900000001158,35.72459909752979c-.211500000001251.030199999239812-1.786200000002282,1.664475690499785-1.512700000001132,3.590799909280577.300699999999779,2.111299946659528,2.489199999999983,3.270999917359404,2.489199999999983,3.270999917359404,0,0,1.768600000001243-1.77049995526977,1.450200000001132-4.023399898359457-.272899999999936-1.923924237780739-2.142600000002858-2.877999927290148-2.426699999999983-2.838399928280523Z"/>
        <path class="cls-1" d="M19.85109999999986,31.714799198810397c.212899999998626-.006299999829935,1.96389999999883-1.450724410780822,1.912100000001374-3.393099914280356-.056100000001607-2.133299946110128-2.095700000001671-3.53662449651074-2.095700000001671-3.53662449651074,0,0-1.964799999999741,1.557624546510851-1.902299999999741,3.830624489080947.050300000000789,1.945299950869412,1.79779999999846,3.106899921519471,2.085900000000038,3.099099921710149Z"/>
        <path class="cls-1" d="M28.875499999998283,23.030699418189215c.211500000001251-.03899999900932,1.706100000003062-1.746099955889804,1.343800000002375-3.657199907599534-.398499999999331-2.095199947079891-2.638200000001234-3.15379992032922-2.638200000001234-3.15379992032922,0,0-1.685999999999694,1.85349995317938-1.261200000000827,4.088899896699331.362300000000687,1.908599951780161,2.273400000001857,2.775799929880122,2.555599999999686,2.722099931229423Z"/>
        <path class="cls-1" d="M26.731999999999971,23.482399406780132c.05029999999897-.209499994710313-.903299999999945-2.267599942710149-2.795900000000984-2.711399931500637-2.0766999999978-.486399987709774-3.952199999999721,1.131299971430053-3.952199999999721,1.131299971430053,0,0,1.006900000000314,2.292499942080212,3.222700000002078,2.811499928970079,1.893499999998312.442899988809586,3.460899999998219-.952599975939847,3.525399999998626-1.231399968899495Z"/>
        <path class="cls-1" d="M23.724200000000565,19.147399516299629c.099599999997736-.189899995209998-.319900000002235-2.420899938849288-2.045000000001892-3.316899916209877-1.892499999998108-.982424812070349-4.108799999998155.124099996860423-4.108799999998155.124099996860423,0,0,.413499999998749,2.47069993759942,2.433600000000297,3.518999911099854,1.724099999999453.894999977389489,3.588299999999435-.07229999817082,3.72019999999975-.3261999917504Z"/>
        <path class="cls-1" d="M35.998599999998987,20.266074788019978c.074200000000928.20022469496962,1.998999999999796,1.401824664600099,3.826199999999517.736824681399412,2.00340000000142-.728999981579364,2.68840000000273-3.109399921449949,2.68840000000273-3.109399921449949,0,0-2.09860000000117-1.367199965449799-4.236300000000483-.589299985109392-1.827100000002247.665999983169968-2.373999999999796,2.692299931990419-2.278300000001764,2.961875225159929Z"/>
        <path class="cls-1" d="M31.49369999999908,26.309999335349858c.139600000002247-.165499995810023,2.36620000000039-.609799984590609,3.840800000001764.655299983450277,1.618199999998978,1.387199964949104,1.420899999999165,3.856399902579142,1.420899999999165,3.856399902579142,0,0-2.446300000001429.540099986360474-4.172300000000178-.939899976259767-1.477100000000064-1.266099968019262-1.274900000000343-3.356899915199392-1.089400000000751-3.571799909769652Z"/>
        <path class="cls-1" d="M39.03859999999986,29.630799251460303c.209999999999127.04099999896971,2.229500000001281-.99749997480103,2.594700000001467-2.906199926580484.400399999998626-2.095199947069887-1.293900000000576-3.902399901419813-1.293900000000576-3.902399901419813,0,0-2.25,1.102099972160431-2.676800000001094,3.337875364559295-.364699999998265,1.907724502940255,1.095300000000861,3.417000000000371,1.376000000000204,3.470724463441002Z"/>
        <path class="cls-1" d="M34.408699999999953,42.424298928269309c.209999999999127.039999998990425,2.227599999998347-.999499974749597,2.591799999998329-2.908224140249331.399400000002061-2.093275733390328-1.292899999998554-3.901875687710344-1.292899999998554-3.901875687710344,0,0-2.248600000000806,1.102099972159522-2.676799999999275,3.337399915690185-.365200000000186,1.908199951790266,1.095699999998033,3.41799991364951,1.377899999999499,3.472699912269491Z"/>
        <path class="cls-1" d="M30.069899999998597,16.603999580550408c.213800000001356.017075207479138,2.105400000000373-1.237299968750449,2.257800000001225-3.175299919780628.165999999999258-2.126999946270189-1.715799999999945-3.736399905620601-1.715799999999945-3.736399905620601,0,0-2.114300000001094,1.344299966040126-2.29149999999936,3.612775032880563-.151900000000751,1.937124826919899,1.464299999999639,3.275424793110687,1.749499999998079,3.298924792520666Z"/>
        <path class="cls-1" d="M40.516599999999016,31.759199197689668c-.053199999998469-.385699990240028-.328600000000733-.61812440966969-.636199999999008-.532199986540036-3.546400000001086,1.29007557686964-5.741700000000492,1.522499961530229-9.215300000001662,1.841799953460395l-.579599999997299-.133799996620837c-.295400000002701-.01799999954892-.400400000002264-.26319999334919-.438500000000204-.417924379969918l-.158200000001671-7.116275429699272c0-.623499984249975-.251000000000204-1.129799971459761-.5625-1.129799971459761-.310999999997875,0-.563500000000204.506299987209786-.563500000000204,1.129799971459761l-.334899999998015,7.057199821719223c-.316399999999703.994599974870653-1.181200000002718.905699977120094-1.181200000002718.905699977120094l.005400000001828.019599999500315c-3.120100000000093.06639999833078-4.699199999999109.111299997190144-7.937000000001717-.751499981000052-.450199999999313-.111299997199239-.799299999998766-.205099994829652-.802299999999377.12159999692085h0c.00879999999961.332999991589531.372100000000501.828099979079525.838900000000649.94139997622915,3.705100000001039,1.509275639209591,5.510299999999916,1.223599969070165,8.919400000000678,2.046399948290855l-.777799999999843,12.356875690918969c-.065399999999499.848623975490227-.567399999999907,1.038123970690322-.567399999999907,1.038123970690322h4.35989999999947c-.233400000000984-.108399997259767-.451700000001438-.637699983889433-.55619999999908-.927699976559779l-.613199999999779-12.557699682760358c3.928699999998571-.842199978729695,6.370100000000093-1.576599960179919,10.329999999998108-3.093724311369442.308600000000297-.076175608560334.511800000000221-.410175600120056.47019999999975-.797875590330477Z"/>
        <path class="cls-1" d="M1.37749999999869,32.557074788020145s-.117199999998775.001524389489532-.256799999999203.003924389419808c.043900000000576-.014199999629454.125-.042499998929998.125-.042499998929998l.144500000000335-.050799998720322,2.671899999999368-.975999975339619-.038099999997939-.495199987480191-2.933600000000297-.600099984840199s-.04490000000078-.006799999829127-.106500000001688-.017499999569736c.045900000000984-.005899999850044.138200000001234-.017099999569837.138200000001234-.017099999569837.001000000000204-.00099999997019,2.817399999999907-.44779998867034,2.817399999999907-.44779998867034l-.046900000001187-.598099984899818-.079099999999016.013175528599277-3.813500000000204.629424455160915.062099999999191.788499980079905,2.616700000000492.524899986739911c.010199999998804.000999999979285.157199999999648.021499999459593.305600000001505.043999998889376-.168400000002293.051299998710419-.337900000002264.103499997390827-.337900000002264.103499997390827l-2.462400000000343.899399977279245.061100000002625.782199980239966,3.945799999997689.037599999050144-.045399999999063-.582524374829518-2.768100000001141.001000000000204Z"/>
        <path class="cls-1" d="M.603100000000268,23.379399409380312l-.01759999999922.120599996958845-.084000000002561.557599985910201,1.356500000001688.961399975720269c.007799999999406.00539999987086.149399999998423.100599997449535.260699999998906.177699995510011-.135299999998097.038099999030237-.299800000000687.084999997859995-.299800000000687.084999997859995l-1.579099999999016.507799987170074-.108400000000984.716799981880285s2.504899999999907-.886699977600074,2.538100000001577-.899899977260247c.03610000000117.005899999860048,1.53859999999986.231899994139894,1.53859999999986.231899994139894l.091300000000047-.608799984619509s-1.475600000001577-.222199994380389-1.510800000000017-.228099994240438c-.028299999999945-.020999999470405-2.185499999999593-1.621999959029381-2.185499999999593-1.621999959029381Z"/>
        <path class="cls-1" d="M4.419999999998254,18.131299541960288c-.583499999997002-.221699994400296-1.051299999999173-.280299992920845-1.473699999998644-.183099995370867-.347600000000966.081099997950332-.813900000001013.310099992160758-1.053199999998469.938999976280684-.347600000000966.909599977029757.158199999998033,1.751399955749548,1.319799999997485,2.193799944579951.61620000000039.234899994069565,1.174399999999878.273899993079795,1.613800000000992.111799997170237.411099999999351-.149899996210479.713900000000649-.453099988550093.875-.876399977860274.146500000000742-.382799990329659.146999999999025-.704599982190302.002000000000407-1.078599972739539-.200699999999415-.509299987141276-.585000000000946-.839899978790527-1.283700000001772-1.106499972060192ZM5.247599999998783,20.119599491739791c-.105999999999767.277799992979453-.369099999999889.519475296289784-.611799999998766.560999985830676-.278800000000047.046399998818742-.770000000000437-.045399998860375-1.279300000000148-.239199993970033-.429200000000492-.164099995839933-.697799999999916-.32719999172059-.876500000000306-.532324695580428-.182099999998172-.207000000000335-.224599999999555-.537999999990461-.110300000000279-.839775269750135.125500000001921-.329099991689873.389600000000428-.530799986589955.722600000000966-.557099985920104h0c.275399999998626-.021499999470507.642100000000937.058599998509635,1.156800000000658.254875255669504.611799999998766.233424731980449.822699999998804.425724727130728.952099999998609.641624721680273.132300000001123.214799994580062.148000000001048.447199988710054.046399999999267.710899982040246Z"/>
        <path class="cls-1" d="M5.700700000001234,11.998999696879764l-.289000000000669.433075091140381,1.775399999998626,1.16800000000967s.368600000001607.223624862749602.654300000001967.397424858359955c-.235400000001391-.039999998990425-.475600000001577-.08099999795013-.475600000001577-.08099999795013-.001499999998487,0-2.748100000000704-.300799992400243-2.748100000000704-.300799992400243l-.356400000000576.534199986500425,3.256800000002841,2.180599944919777.342799999998533-.513199987030021-1.893599999999424-1.239699968679815s-.29490000000078-.177699995520015-.544399999998859-.327599991739589c.199699999997392.029699999249715.419399999998859.056075148009768.606899999998859.078075148009702l2.639699999999721.281724842900076.329099999999016-.492199987559616-3.257299999999304-2.180099944930589-.040599999998449.061499998450017Z"/>
        <path class="cls-1" d="M10.350099999999657,9.44479976140974l.449300000000221.293399992589912s.453099999998813-.43212496597971.539000000000669-.515124965980249c.085499999999229.089424976720693.655299999998533.686524961650321.711899999998423.745624960150963-.048800000000483.155799996059613-.143499999998312.308599992199561-.296299999998155.453599988549286-.255400000001828.244199993820075-.615300000001298.375999990489618-.87460000000101.322299991849832-.28019999999924-.058099998539547-.616199999998571-.280299992909931-.945300000001225-.62552494054944-.240200000000186-.25187503729012-.422299999998359-.513175030690036-.540499999999156-.776875024020228-.212400000000343-.472124975979568.005400000001828-.821199979250196.224099999999453-1.030699973970513.197299999999814-.187999995248902.395500000002357-.275425002009797.75879999999961-.33689999148919l.068900000002031-.0112999997109-.064500000000407-.481399987838813-.066900000001624.002899999929468c-.39890000000014.018599999530124-.754399999997986.175799995549824-1.057600000000093.465399988240279-.299799999997049.285099992809592-.459999999999127.608799984619509-.489299999997456.987799975039707-.048800000000483.541899986320459.17870000000039,1.068299973029752.694400000000314,1.609799959339398.464799999997922.486275054480757.909199999998236.727999981610992,1.400399999998626.759275054480895.443299999998999.027324925649737.867200000000594-.139175070150486,1.224600000001374-.479475061550147.288999999997031-.275399993040082.516599999999016-.651899983530711.593699999997625-.978999975270199l.007799999999406-.039099999009522-1.295399999999063-1.358899965670389-1.042499999999563.994199974889852Z"/>
        <path class="cls-1" d="M15.373599999998987,7.284599815969159l-1.756900000000314-2.689399932059132-.060999999997875.039999998999519-.439900000001217.288099992710158,1.761699999999109,2.697299931870475c.206500000000233.316399991999788.278800000000047.465799988229264.286600000001272.593699985000057.015600000000632.148499996249484-.047400000001289.343299991329332-.163600000001679.509774995539374l-.055599999999686.080124989560318.481400000000576.163499995869643.031800000000658-.041499998959807c.200600000000122-.257299993500055.302200000000084-.543399986269833.284599999999045-.806599979619932-.013599999998405-.168999995729791-.064399999999296-.32759999171958-.156199999997625-.488299987669961l-.212900000002264-.346699991240712Z"/>
        <polygon class="cls-1" points="17.366699999998673 2.574199934969329 16.899499999999534 2.788499929550198 18.533699999999953 6.363199839249319 19.068899999998393 6.118074788029844 17.433199999999488 2.543899935729314 17.366699999998673 2.574199934969329"/>
        <path class="cls-1" d="M28.293499999999767,0l-.073199999998906.006299999839939-.518600000001243.042999998910091.220699999999852,2.645499933169958c.028800000000047.339274856100019.01220000000103.465274856099313-.078099999998813.610274856109754-.089900000000853.141625124900202-.298800000000483.232925122590132-.589400000000751.2574251219703-.388200000001234.032699999180295-.646499999998923-.09129999769084-.725999999998749-.3471999912299-.031300000002375-.10399999737092-.064500000000407-.32322513075087-.084000000002561-.558599985880392l-.207099999999627-2.485399937219881-.591300000000047.048899998770139.225099999999657,2.706999931609971c.036200000002282.435099989010268.073800000001938.514699986999403.175800000000891.682099982779619.225600000001577.376499990479715.627899999999499.536199986439897,1.229500000001281.486899987690776.468300000000454-.03912510850023.779299999998329-.161199995930474,1.010699999998906-.395999989990742.229999999999563-.238799993969224.27639999999883-.445399988750069.229999999999563-1.005399974609645l-.224099999999453-2.694799931919988Z"/>
        <path class="cls-1" d="M33.873599999998987,2.504399936729897s-.040999999999258.42959998915012-.073300000000017.762674851289376c-.065399999999499-.229074864769245-.135200000000623-.463874858839517-.135200000000623-.463874858839517l-.930199999998877-2.602999934229956-.636699999999109-.087399997800276-.009300000001531.073199998150812-.526799999999639,3.80959990375959.611300000000483.083999997889805.287100000001374-2.245199943289663s.030299999998533-.342699991349946.056599999999889-.63332516563969c.061099999998987.193925176739867.131900000000314.403425171439267.194400000000314.57962516698899.000899999999092.001999999950385.901299999997718,2.498599936880055.901299999997718,2.498599936880055l.585999999999331.081499997940227.537100000001374-3.882799901909493-.58889999999883-.08199999792032-.273400000001857,2.10839994673006Z"/>
        <polygon class="cls-1" points="38.40139999999883 1.501899962069729 37.174399999999878 5.158699869679367 37.731499999999869 5.34619986493999 38.983000000000175 1.620074788020247 38.42529999999897 1.432074788020145 38.40139999999883 1.501899962069729"/>
        <path class="cls-1" d="M42.477100000000064,5.958499849469263s-.212900000000445.209899994701118-.382799999999406.37889999043c.047299999998359-.170399995689877.098599999999351-.379899990399281.134799999999814-.578199985389801l.483799999998155-2.563399935239431-.564899999997579-.311599992130141-.020000000000437.099599997480254-.723200000000361,3.979999899469476.483899999999267.267099993239754,3.079099999999016-2.788999929539386-.542499999999563-.299399992440158-1.948199999998906,1.815999954119434Z"/>
        <path class="cls-1" d="M47.839400000000751,7.256299816700448c.101599999998143.08689999778926,1.167999999997846,1.002499974659258,1.167999999997846,1.002499974659258l.405200000001059-.340399991389859-1.690399999999499-1.452099963319597-.047800000000279.056099998579157-2.495200000001205,2.904799926630403,1.722700000002078,1.479999962600232.350599999997939-.40919998966001s-1.161599999999453-.997499974800121-1.263699999999517-1.084499972609592c.081099999999424-.094699997600401.71730000000025-.835899978880661.798800000000483-.93009997650006.099699999998847.084399997869696.984400000001187.843199978698976.984400000001187.843199978698976l.349599999997736-.407699989699722s-.88379999999961-.76019998080028-.983399999997346-.844199978669167c.08009999999922-.093799997640417.623099999997066-.725625007990857.701199999999517-.81839997932002Z"/>
        <path class="cls-1" d="M52.921399999999267,12.265599690140334c.009799999999814-.28659999275078-.111300000000483-.570799985580379-.403299999998126-.950699975980569l-.584000000002561-.756824926139416-.058099999998376.044924944118975-3.0512000000017,2.350075055880552.365700000002107.474624872779714s1.196799999997893-.921399976729845,1.331500000000233-1.025899974089953c.025399999998626.045899998830464.055699999998978.092275101310406.055699999998978.144499996339619,0,.054199998630793-.011199999999008.116699997050091-.032199999999648.201699994910086-.063500000000204.27689999300037-.171399999999267.635299983950972-.329099999999016,1.098199972249859l-.25.579099985370704.023399999998219.041499998959807.430700000000797.558099985900299.365200000000186-1.087399972529965c0-.001499999970292.081999999998516-.258299993470246.081999999998516-.258299993470246l.080100000001039-.258299993470246c.030300000000352-.105999997329491.065400000001318-.258299993489345.086900000000242-.421399989359998.176800000001094.194299995080655.386699999999109.327099991730393.626499999998487.357399990960403.281700000001365.037099999070051.570300000001225-.050299998730225.832500000000437-.252899993610299.363300000000891-.279299992939741.424800000000687-.644599983709668.427700000000186-.838399978819325ZM51.608899999999267,12.78849967692986c-.171800000000076-.022899999420588-.328099999998813-.141099996430057-.524399999998423-.396899989969825,0,0-.129899999999907-.169524898940836-.201199999999517-.260799993410728.099199999996927-.075724905519564.902399999999034-.69479998243969,1.002999999996973-.771999980489454.061000000001513.080099997970137.219700000001467.28719999274017.219700000001467.28719999274017.113300000000891.14639999630981.18119999999908.272899993109604.215799999999945.396899989979829.011700000000928.040999998959705.018099999999322.083499997889703.018099999999322.125499996819599,0,.163599995870754-.082500000000437.333999991560631-.220699999998033.439999988890122-.183100000002014.141599996420155-.365700000002107.205499994800448-.510300000001735.180099995440287Z"/>
        <path class="cls-1" d="M54.43409999999858,18.527299531960125c.097700000002078-.216799994520443.114300000001094-.435999988990261.060600000000704-.806099979639839l-.063500000000204-.452699988560198c-.073199999998906-.496099987470188.04490000000078-.661099983300119.245100000000093-.756299980899712.136699999999109-.066399998309862.270000000000437-.076699998050572.394100000001345-.034199999120574.156699999999546.056599998560159.293900000000576.198699994970411.39600000000064.411599989590286.133299999997689.278799992959648.15769999999975.505399987229794.102499999997235.928199976549877l-.009799999999814.075199998100288.524000000001251.052799998669798.010200000000623-.069399998240442c.066399999999703-.447699988700151.011699999999109-.849599978540027-.170399999999063-1.230399968929305-.334500000000844-.699699982310449-.981000000001586-.968799975510592-1.606000000001586-.669499983080641-.231900000000678.110399997220156-.402299999999741.291499992629724-.492100000001301.519575191629883-.083099999999831.22112478966028-.071799999997893.431124784350686-.01759999999922.789999999989959l.059499999999389.394524765340975c.068900000002031.440475234669066-.026799999999639.706599982138869-.302700000000186.838899978799418-.182099999998172.086399997810076-.359399999997549.084499997859893-.539099999998143-.009799999760617-.165000000000873-.085899997829983-.260700000000725-.196299995039226-.375899999999092-.43649998895944-.160200000002078-.336399991500002-.204100000002654-.647899983639945-.138700000001336-1.012199974439682l.014600000000428-.081099997950332-.555599999999686-.036099999089856-.008300000001327.070275216069604c-.049299999998766.455124770660404.022000000000844.862824760360127.221700000001874,1.280824749799649.154699999999139.324175250190819.335399999999936.531699986569947.60399999999936.697699982370978.371100000000297.214899994589359.778299999998126.24559999379926,1.117200000000594.083475267820177.231399999998757-.111775267100711.430599999999686-.316875261920359.530199999997421-.548775256060253Z"/>
        <polygon class="cls-1" points="57.591400000001158 21.286074788019505 57.520599999999831 21.306074788019941 53.80029999999897 22.323699436060451 53.955600000001141 22.892074788019272 57.74659999999858 21.854499447919807 57.591400000001158 21.286074788019505"/>
        <path class="cls-1" d="M54.642100000000937,26.645499326879872l.055699999998978.579575461149943s3.247600000000602-.30807546800952,3.387700000001132-.322275467649888c.011699999999109.126899996799693.096199999999953,1.016599974310338.096199999999953,1.016599974310338l.529299999998329-.011199999700693-.251499999998487-2.645124506969296-.073700000000827.007924573579658-.451700000001438.042399998929795s.084000000002561.884299977659794.095700000001671,1.010299974480404c-.139600000000428.012699999670076-3.387699999999313.321799991869739-3.387699999999313.321799991869739Z"/>
        <path class="cls-1" d="M58.638200000001234,31.691399199409716l.078199999999924-.722199981760241-.114300000001094.046399998830566s-2.350600000001577.946299976089904-2.38379999999961.959475571549774c-.035100000000966-.004375595680358-1.545900000000984-.167000000009466-1.545900000000984-.167000000009466l-.066399999999703.611324392989445s1.483400000000984.161599995920369,1.518599999999424.164499995849837c.029699999999139.021999999439686,2.250899999999092,1.530799961329649,2.250899999999092,1.530799961329649l.074300000000221-.681624350168931-1.396499999998923-.904775609750686c-.007399999998597-.004399999889756-.152399999999034-.095224390249314-.26759999999922-.165999995800121.133299999999508-.044499998890387.295900000000984-.098224394439967.295900000000984-.098224394439967l1.556599999999889-.572675588619859Z"/>
        <path class="cls-1" d="M5.59230000000025,41.350074788029815c0,.432624156449492-.350600000001577.783724147589965-.783699999999953.783724147589965-.43210000000181,0-.78269999999975-.351099991140472-.78269999999975-.783724147589965,0-.432675821680277.350599999997939-.783675812829642.78269999999975-.783675812829642.433099999998376,0,.783699999999953.350999991149365.783699999999953.783675812829642Z"/>
        <path class="cls-1" d="M54.718300000000454,41.350074788029815c0,.432624156449492-.350600000001577.783724147589965-.783699999999953.783724147589965-.43210000000181,0-.783699999999953-.351099991140472-.783699999999953-.783724147589965,0-.432675821680277.351599999998143-.783675812829642.783699999999953-.783675812829642.433099999998376,0,.783699999999953.350999991149365.783699999999953.783675812829642Z"/>
      </g>
    </g>
  </g>
</svg>