<svg width="237" height="60" viewBox="0 0 237 60" fill="none" xmlns="http://www.w3.org/2000/svg">
<g clip-path="url(#clip0_743_19)">
<path d="M97.8199 10.332H93.0682L88.2669 25.0552C88.263 25.067 88.2382 25.161 88.2382 25.161C88.2382 25.161 88.0431 25.9221 87.8529 26.6606C87.7053 26.1139 87.5399 25.5732 87.3041 24.811C87.3002 24.805 82.6474 10.332 82.6474 10.332H77.4902L75.2129 32.95H79.0671L80.4876 17.1084C80.4876 17.1084 80.5356 16.4465 80.5871 15.6556C80.656 15.8879 80.7921 16.3634 80.7921 16.3634L81.0685 17.2373C81.0685 17.2428 86.1214 32.95 86.1214 32.95H89.3704L94.8254 16.4574C94.8819 16.2977 94.9453 16.097 95.0106 15.8968C95.0195 16.1282 95.0453 16.6274 95.0453 16.6274C95.0453 16.6338 96.54 32.95 96.54 32.95H100.501L98.2617 10.332H97.8199Z" fill="#040000"/>
<path d="M121.947 10.332L117.005 18.8409C116.989 18.8695 116.485 19.786 116.093 20.4908C115.71 19.7582 115.231 18.8443 115.231 18.8443L110.367 10.332H105.541C105.541 10.332 113.818 23.7898 113.959 24.0161V32.95H118.02V24.1768C118.161 23.945 126.513 10.332 126.513 10.332H121.947Z" fill="#040000"/>
<path d="M141.515 9.95312C135.096 9.95312 131.104 14.3954 131.104 21.5438C131.104 25.3484 132.183 28.4344 134.228 30.4709C136.118 32.3611 138.686 33.3605 141.661 33.3605C144.349 33.3605 146.33 32.704 148.288 31.1727C150.968 29.0467 152.109 26.299 152.109 21.9877C152.109 18.3932 151.362 15.7517 149.756 13.6766C148.434 11.9778 145.936 9.95312 141.515 9.95312ZM141.807 30.4006C139.866 30.4006 137.71 29.4704 136.9 28.2782C135.966 26.8971 135.385 24.1132 135.385 21.009C135.385 18.411 135.754 16.6494 136.583 15.2999C137.437 13.9036 139.371 13.0034 141.515 13.0034C143.847 13.0034 145.721 13.9969 146.653 15.7201L146.655 15.7211C147.434 17.1263 147.794 19.2395 147.794 22.3674C147.794 26.0805 147.117 27.5857 146.102 28.6963C145.086 29.8461 143.68 30.4006 141.807 30.4006Z" fill="#040000"/>
<path d="M173.662 10.3945L173.777 22.6224C173.795 23.9679 173.868 25.5141 173.944 26.7771C173.526 25.9619 173.066 25.0772 172.684 24.4256C172.68 24.4212 164.248 10.3945 164.248 10.3945H160.035V32.9503H164.105L163.949 19.9285C163.927 18.7135 163.878 17.5658 163.811 16.4468C164.371 17.467 165.005 18.5633 165.557 19.4896C165.559 19.4926 173.698 32.9503 173.698 32.9503H177.585V10.3945H173.662Z" fill="#040000"/>
<path d="M195.701 23.7654H201.022V29.5408C200.081 29.9886 198.928 30.2436 197.543 30.2436C195.208 30.2436 192.882 29.3722 191.891 28.1231C190.833 26.7886 190.251 24.5671 190.251 21.8623C190.251 19.8833 190.568 18.0939 191.198 16.5521C192.325 13.7758 195.449 13.1935 197.457 13.1935C200.874 13.1935 202.857 14.0105 204.582 15.1854L204.568 11.4861C202.922 10.6646 200.133 10.1406 197.385 10.1406C194.663 10.1406 191.945 10.848 190.082 12.2973C187.364 14.3589 186.041 17.4592 186.041 21.7655C186.041 25.6487 187.071 28.4237 189.286 30.5106C191.279 32.3761 194.045 33.3597 197.29 33.3597C199.913 33.3597 202.694 32.7032 204.549 31.6544L204.794 31.5155V20.6518H195.735L195.701 23.7654Z" fill="#040000"/>
<path d="M217.713 10.332V24.6123C217.713 26.7476 217.578 27.6729 217.176 28.2933C216.726 29.0465 215.147 29.9323 214.155 30.1819C213.782 30.2719 213.33 30.3045 213.33 30.3045L213.314 32.9678C213.314 32.9678 214.753 33.0736 216.193 32.7498C218.238 32.2856 219.821 31.0895 220.68 29.7716C221.223 28.9008 221.52 27.9616 221.596 26.889C221.596 26.885 221.669 24.5519 221.669 24.5519V10.332H217.713Z" fill="#040000"/>
<path d="M235.591 10.332H232.195V32.95H236.076V10.332H235.591Z" fill="#040000"/>
<path d="M82.7141 38.7695V44.8345C82.7141 47.1306 81.9068 48.1982 80.1786 48.1982C78.4472 48.1982 77.6414 47.1306 77.6414 44.8345V38.7695H76V45.0313C76 48.0143 77.4823 49.6564 80.1786 49.6564C82.8715 49.6564 84.3574 48.0143 84.3574 45.0313V38.7695H82.7141Z" fill="#040000"/>
<path d="M102.371 38.7695V47.1661C102.207 46.8636 97.761 38.7695 97.761 38.7695H95.5957V49.475H97.236V40.8936C97.4024 41.1931 101.971 49.475 101.971 49.475H104.014V38.7695H102.371Z" fill="#040000"/>
<path d="M115.238 38.7695V49.475H116.881V38.7695H116.817H115.238Z" fill="#040000"/>
<path d="M135.234 38.7695C135.234 38.7695 131.991 47.7055 131.906 47.9373C131.824 47.7019 128.667 38.7695 128.667 38.7695H126.834L130.875 49.475H132.859L136.961 38.7695H135.234Z" fill="#040000"/>
<path d="M146.99 38.7695V49.475H153.054V48.0173H148.633V44.6517H152.66V43.195H148.633V40.2263H153.054V38.7695H146.99Z" fill="#040000"/>
<path d="M168.656 44.1331C169.924 43.8652 170.767 42.9023 170.767 41.6967C170.767 39.1234 168.76 38.7695 166.588 38.7695H163.928V49.475H165.573V44.7738H166.421C167.211 44.7738 167.689 44.7738 168.143 45.7693L169.783 49.475H171.653L169.607 45.1726C169.3 44.5711 169.063 44.318 168.656 44.1331ZM169.032 41.7249C169.032 42.7224 168.2 43.3166 166.8 43.3166H165.573V40.2263H166.969C168.279 40.2263 169.032 40.7714 169.032 41.7249Z" fill="#040000"/>
<path d="M184.847 43.0924C183.884 42.6322 183.056 42.2339 183.056 41.3935C183.056 40.1766 184.31 40.0446 184.847 40.0446C185.623 40.0446 186.043 40.1766 186.814 40.4801L186.887 40.5088L187.119 38.9883L187.071 38.9705C186.383 38.7264 185.55 38.5879 184.787 38.5879C182.683 38.5879 181.324 39.7436 181.324 41.5295C181.324 43.3499 182.701 43.9965 183.918 44.5649C184.971 45.0602 185.883 45.4853 185.883 46.5342C185.883 47.7556 184.672 48.199 183.86 48.199C182.992 48.199 181.974 47.8076 181.681 47.6894L181.606 47.6572L181.439 49.2004L181.487 49.2143C182.176 49.4387 182.912 49.6572 183.678 49.6572C186.18 49.6572 187.614 48.4857 187.614 46.4423C187.614 44.4265 186.142 43.7177 184.847 43.0924Z" fill="#040000"/>
<path d="M198.217 38.7695V49.475H199.861V38.7695H199.8H198.217Z" fill="#040000"/>
<path d="M209.914 38.7695V40.2263H213.211V49.475H214.853V40.2263H218.15V38.7695H209.914Z" fill="#040000"/>
<path d="M236.882 38.7695H235.072C235.072 38.7695 232.119 43.3106 232.019 43.4628C231.92 43.3126 228.894 38.7695 228.894 38.7695H226.967C226.967 38.7695 231.149 44.9724 231.169 45.0046V49.475H232.811V44.9868C232.82 44.9922 236.933 38.8649 236.933 38.8649L236.999 38.7695H236.882Z" fill="#040000"/>
<path d="M48.6901 47.9524L49.5955 48.8377C49.8387 49.075 50.0314 49.2777 50.1754 49.4486C50.3235 49.6202 50.4197 49.7967 50.4668 49.98L50.8253 49.6148C50.7832 49.4462 50.698 49.2633 50.5692 49.0676C50.4405 48.8703 50.2656 48.6623 50.0433 48.4447C50.0433 48.4447 49.1161 47.5368 49.1082 47.5279C49.0071 47.4389 48.8991 47.3954 48.7812 47.4033C48.656 47.4112 48.5436 47.466 48.4425 47.5674L46.4316 49.6118L46.7491 49.9232L48.6901 47.9524Z" fill="#040000"/>
<path d="M50.4413 50.5701L49.0698 49.2266L48.6602 49.6418L50.0312 50.9868L50.0307 50.9878L49.6746 51.3491L48.3036 50.005L47.8926 50.4218L49.264 51.7673L48.6874 52.354H48.6865L48.9916 52.6531L48.9925 52.6539L51.8855 49.7144V49.713L51.5794 49.4139L50.4413 50.5701Z" fill="#040000"/>
<path d="M30.8785 55.4863V56.7231H30.2659V55.4863H29.6939V57.9686C29.6274 58.0022 29.5353 58.0329 29.4195 58.0601C29.3036 58.0859 29.1768 58.0992 29.0396 58.0992H28.1134V56.0409H29.1758V55.6371H27.5137V58.0389C27.5137 58.1911 27.5611 58.3083 27.6548 58.3923C27.7494 58.4753 27.8673 58.5173 28.0128 58.5173H29.0089C29.157 58.5173 29.2888 58.4986 29.4022 58.4674C29.5006 58.4382 29.6066 58.3883 29.6939 58.3246V60.0002H30.2659V57.1639H30.8785V60.0002H31.453V55.4863H30.8785Z" fill="#040000"/>
<path d="M20.7435 53.8002L21.3383 54.0749C21.3309 54.0749 19.4428 58.1499 19.4468 58.1588L18.8579 57.8879C18.8673 57.8839 20.7494 53.8065 20.7435 53.8002ZM19.1705 53.6766L18.9787 54.0883C18.799 54.4744 18.7356 54.8579 18.8207 55.2563C18.9064 55.6547 19.0734 55.9409 19.318 56.1179L18.9238 56.2785C18.7564 56.1247 18.5518 55.9533 18.4116 55.6513C18.27 55.3487 18.2294 55.0497 18.2453 54.8456C18.0967 54.9929 17.8411 55.1535 17.5231 55.2381C17.2021 55.3231 16.9353 55.2909 16.7079 55.2563L16.5781 54.8535C16.8743 54.9276 17.2021 54.8678 17.5588 54.675C17.9163 54.4802 18.1695 54.1827 18.3472 53.7981L18.5374 53.3859C18.5374 53.3859 17.745 53.0192 17.739 53.0226L17.9094 52.6543L20.1333 53.6805L19.9634 54.0468C19.9614 54.0418 19.1705 53.6766 19.1705 53.6766Z" fill="#040000"/>
<path d="M42.462 56.1667C42.4084 56.0248 42.3232 55.9323 42.2064 55.8869C42.089 55.8419 41.9622 55.8454 41.8289 55.8963L39.2109 56.8888L39.3699 57.3055L41.8839 56.3545L42.355 57.5917L42.9231 57.3777L42.462 56.1667Z" fill="#040000"/>
<path d="M41.5946 53.8854L41.241 52.9531L40.6719 53.1686L41.6129 55.6396L42.1805 55.4251L41.7397 54.2675L42.4162 54.0114L42.2717 53.6294L41.5946 53.8854Z" fill="#040000"/>
<path d="M40.1755 54.0911L40.4177 54.0001L40.2755 53.6264L39.3201 53.9873L39.1701 53.5879L38.5832 53.8113L38.653 53.9977L38.7342 54.2098L37.7812 54.5705L37.924 54.9452L38.1647 54.8538L38.5401 54.7119C38.438 54.8503 38.3736 55.0016 38.3444 55.1672C38.3162 55.3313 38.331 55.4939 38.3894 55.6482C38.4915 55.9155 38.6837 56.1034 38.965 56.2116C39.2483 56.3232 39.536 56.3213 39.8322 56.2096C40.1303 56.0969 40.3463 55.9071 40.4835 55.6372C40.6192 55.3703 40.638 55.1019 40.5365 54.836C40.4775 54.6803 40.3825 54.5488 40.2502 54.4445C40.1279 54.3471 39.9872 54.2794 39.8322 54.2424C39.8209 54.2389 39.8119 54.2364 39.8025 54.2329L40.169 54.0946C40.1725 54.0941 40.1755 54.0911 40.1755 54.0911ZM39.9867 55.5136C39.9269 55.6694 39.8273 55.7727 39.6851 55.827C39.547 55.878 39.4038 55.8676 39.2553 55.79C39.1086 55.7148 39.0036 55.5967 38.9442 55.439C38.8828 55.2809 38.8828 55.1252 38.9423 54.9699C39.0036 54.8132 39.1017 54.7099 39.2404 54.6571C39.383 54.6047 39.5266 54.6155 39.6742 54.6926C39.8209 54.7703 39.9224 54.8869 39.9823 55.0455C40.0422 55.2032 40.0447 55.3594 39.9867 55.5136Z" fill="#040000"/>
<path d="M13.2914 49.5439L12.8263 49.0709C12.8288 49.0777 12.488 49.4064 12.488 49.4064L11.9601 48.8711L12.2156 48.6196L10.6376 47.0176C10.6386 47.024 9.45093 48.1776 9.45093 48.1776C9.34544 48.2815 9.29492 48.3922 9.29492 48.5093C9.29695 48.6265 9.35193 48.7396 9.45884 48.8489L10.6991 50.1089L10.9922 49.8197L11.5203 50.3565L11.0597 50.8073L11.5207 51.2749C11.5207 51.2749 13.2839 49.5404 13.2914 49.5439ZM10.5257 49.36L9.86498 48.6897L10.81 47.7649L11.4698 48.4337L10.5257 49.36ZM11.8342 50.048L11.3057 49.5122L11.646 49.1772L12.175 49.7154L11.8342 50.048Z" fill="#040000"/>
<path d="M10.9295 51.2327C10.9039 50.9139 10.7691 50.6311 10.5254 50.3815C10.2828 50.1368 10.0009 49.9969 9.6815 49.9653C9.36005 49.9336 9.09602 50.0207 8.88707 50.2248C8.677 50.4314 8.58592 50.6939 8.61168 51.0157C8.63643 51.3335 8.77316 51.6172 9.01386 51.8639C9.25953 52.1121 9.54081 52.252 9.85981 52.2816C10.1777 52.3118 10.4422 52.2252 10.6522 52.0181C10.8613 51.8135 10.9539 51.5505 10.9295 51.2327ZM9.72014 51.7487C9.54476 51.765 9.40012 51.7122 9.2853 51.5965C9.17433 51.4828 9.12574 51.3375 9.14167 51.162C9.15648 50.9866 9.23174 50.8338 9.36005 50.7068C9.49131 50.5792 9.64478 50.507 9.82218 50.4938C10.0009 50.4784 10.1461 50.5274 10.259 50.6416C10.3739 50.7572 10.4214 50.905 10.4012 51.0809C10.3828 51.257 10.3085 51.4096 10.1777 51.5367C10.048 51.6652 9.8944 51.7364 9.72014 51.7487Z" fill="#040000"/>
<path d="M25.6414 16.5038C25.8524 16.4519 27.2784 14.6503 26.8123 12.7378C26.2997 10.6395 23.9778 9.68555 23.9778 9.68555C23.9778 9.68555 22.3642 11.6444 22.9125 13.883C23.3791 15.795 25.3591 16.5735 25.6414 16.5038Z" fill="#040000"/>
<path d="M37.6635 12.9783C37.4823 12.8576 35.1861 13.0247 34.0886 14.6593C32.8836 16.4511 33.7464 18.8075 33.7464 18.8075C33.7464 18.8075 36.2847 18.67 37.5704 16.7566C38.669 15.122 37.9048 13.1384 37.6635 12.9783Z" fill="#040000"/>
<path d="M16.482 29.4488C16.5791 29.255 16.117 27.0031 14.3513 26.1276C12.4147 25.1667 10.1855 26.3239 10.1855 26.3239C10.1855 26.3239 10.6486 28.817 12.7159 29.8427C14.48 30.7201 16.3532 29.7087 16.482 29.4488Z" fill="#040000"/>
<path d="M15.9407 41.835C16.1496 41.8954 18.2808 41.0284 18.8207 39.1343C19.4111 37.0577 17.8609 35.084 17.8609 35.084C17.8609 35.084 15.4885 35.9974 14.8585 38.2114C14.3206 40.1051 15.6608 41.757 15.9407 41.835Z" fill="#040000"/>
<path d="M42.3848 29.8859C42.3903 30.1019 43.8553 31.874 45.8275 31.8211C47.9913 31.7637 49.4143 29.6991 49.4143 29.6991C49.4143 29.6991 47.8343 27.7135 45.5263 27.7728C43.5567 27.8262 42.3754 29.5958 42.3848 29.8859Z" fill="#040000"/>
<path d="M39.5537 35.1892C39.3586 35.2832 38.3393 37.3443 39.1941 39.1169C40.1331 41.0635 42.6046 41.5118 42.6046 41.5118C42.6046 41.5118 43.7734 39.2613 42.772 37.1852C41.9181 35.4121 39.8176 35.0632 39.5537 35.1892Z" fill="#040000"/>
<path d="M27.5674 26.7265C27.4035 26.5871 25.1029 26.5051 23.8335 28.0102C22.4408 29.6636 23.044 32.0976 23.044 32.0976C23.044 32.0976 25.5814 32.2359 27.0667 30.4743C28.3351 28.9667 27.7913 26.9119 27.5674 26.7265Z" fill="#040000"/>
<path d="M15.3443 19.0857C15.1352 19.1405 13.7594 20.9808 14.275 22.8798C14.844 24.9643 17.1917 25.8545 17.1917 25.8545C17.1917 25.8545 18.7513 23.8527 18.1466 21.6313C17.6275 19.7317 15.6256 19.008 15.3443 19.0857Z" fill="#040000"/>
<path d="M48.3992 37.1027C48.5146 36.9184 48.2739 34.6328 46.6029 33.5903C44.7683 32.4456 42.4375 33.3827 42.4375 33.3827C42.4375 33.3827 42.6555 35.909 44.6123 37.1284C46.2828 38.1724 48.2457 37.3474 48.3992 37.1027Z" fill="#040000"/>
<path d="M30.3194 23.7014C30.3477 23.9179 31.9861 25.5293 33.9414 25.2773C36.0865 25.0004 37.2925 22.8008 37.2925 22.8008C37.2925 22.8008 35.5184 20.9878 33.2292 21.2824C31.2739 21.5344 30.2814 23.4157 30.3194 23.7014Z" fill="#040000"/>
<path d="M43.94 27.0611C44.1476 27.1244 46.3 26.3034 46.877 24.4235C47.5125 22.3589 46.0048 20.3535 46.0048 20.3535C46.0048 20.3535 43.6146 21.2136 42.9376 23.4162C42.3586 25.297 43.6631 26.9766 43.94 27.0611Z" fill="#040000"/>
<path d="M16.2532 31.4132C16.1011 31.258 13.8213 30.9417 12.4043 32.3094C10.8512 33.8101 11.1994 36.2929 11.1994 36.2929C11.1994 36.2929 13.7095 36.6913 15.3686 35.0894C16.7861 33.7211 16.4547 31.6209 16.2532 31.4132Z" fill="#040000"/>
<path d="M21.3303 36.1653C21.1158 36.1958 19.5185 37.8502 19.7959 39.8003C20.1009 41.9376 22.3208 43.1116 22.3208 43.1116C22.3208 43.1116 24.1148 41.3193 23.7918 39.0386C23.515 37.091 21.6185 36.1252 21.3303 36.1653Z" fill="#040000"/>
<path d="M20.1349 32.1049C20.3508 32.0985 22.1269 30.6363 22.0744 28.67C22.0175 26.5105 19.9486 25.0898 19.9486 25.0898C19.9486 25.0898 17.9557 26.6667 18.0191 28.9676C18.0701 30.9369 19.8426 32.1128 20.1349 32.1049Z" fill="#040000"/>
<path d="M29.2888 23.3148C29.5033 23.2753 31.0193 21.5472 30.6519 19.6126C30.2476 17.4916 27.9758 16.4199 27.9758 16.4199C27.9758 16.4199 26.2657 18.2963 26.6966 20.5592C27.0641 22.4913 29.0026 23.3692 29.2888 23.3148Z" fill="#040000"/>
<path d="M27.1143 23.7707C27.1654 23.5586 26.1981 21.4752 24.2784 21.0259C22.1719 20.5335 20.2695 22.1711 20.2695 22.1711C20.2695 22.1711 21.2909 24.4919 23.5384 25.0173C25.4591 25.4656 27.0489 24.0529 27.1143 23.7707Z" fill="#040000"/>
<path d="M24.0643 19.3827C24.1653 19.1904 23.7398 16.932 21.99 16.0249C20.0703 15.0304 17.8223 16.1505 17.8223 16.1505C17.8223 16.1505 18.2417 18.6517 20.2907 19.7129C22.0396 20.6189 23.9305 19.6397 24.0643 19.3827Z" fill="#040000"/>
<path d="M36.5145 20.516C36.5898 20.7187 38.5421 21.9351 40.3955 21.2619C42.4276 20.524 43.1225 18.1143 43.1225 18.1143C43.1225 18.1143 40.9938 16.7302 38.8254 17.5177C36.9722 18.1919 36.4174 20.2432 36.5145 20.516Z" fill="#040000"/>
<path d="M31.9446 26.6344C32.0862 26.4668 34.3447 26.0171 35.8405 27.2978C37.4819 28.702 37.2817 31.2017 37.2817 31.2017C37.2817 31.2017 34.8004 31.7484 33.0496 30.2502C31.5514 28.9685 31.7565 26.8519 31.9446 26.6344Z" fill="#040000"/>
<path d="M39.5972 29.996C39.8103 30.0375 41.8587 28.9862 42.2291 27.054C42.6353 24.933 40.9167 23.1035 40.9167 23.1035C40.9167 23.1035 38.6344 24.2192 38.2015 26.4825C37.8316 28.4137 39.3125 29.9416 39.5972 29.996Z" fill="#040000"/>
<path d="M34.902 42.9467C35.115 42.9872 37.1615 41.9349 37.531 40.0027C37.9361 37.8836 36.2195 36.0527 36.2195 36.0527C36.2195 36.0527 33.9387 37.1684 33.5044 39.4312C33.1339 41.3629 34.6158 42.8913 34.902 42.9467Z" fill="#040000"/>
<path d="M30.5016 16.8093C30.7184 16.8266 32.6371 15.5568 32.7917 13.5949C32.9601 11.4417 31.0513 9.8125 31.0513 9.8125C31.0513 9.8125 28.9067 11.1734 28.727 13.4698C28.5729 15.4308 30.2123 16.7855 30.5016 16.8093Z" fill="#040000"/>
<path d="M41.0979 32.1507C41.044 31.7603 40.7646 31.525 40.4526 31.612C36.8554 32.918 34.6286 33.1532 31.1052 33.4765L30.5173 33.341C30.2177 33.3228 30.1112 33.0746 30.0726 32.918L29.9121 25.714C29.9121 25.0828 29.6575 24.5703 29.3415 24.5703C29.0261 24.5703 28.7699 25.0828 28.7699 25.714L28.4302 32.8581C28.1093 33.865 27.2321 33.775 27.2321 33.775L27.2376 33.7948C24.0728 33.8621 22.471 33.9075 19.1868 33.0341C18.7302 32.9214 18.3761 32.8265 18.373 33.1572C18.382 33.4943 18.7505 33.9955 19.224 34.1102C22.9822 35.638 24.8132 35.3489 28.2712 36.1818L27.4823 48.6909C27.4159 49.5499 26.9067 49.7418 26.9067 49.7418H31.3291C31.0924 49.632 30.8709 49.0962 30.7649 48.8026L30.1429 36.0903C34.128 35.2377 36.6043 34.4943 40.621 32.9584C40.934 32.8813 41.1401 32.5432 41.0979 32.1507Z" fill="#040000"/>
<path d="M1.39724 32.9588C1.39724 32.9588 1.27836 32.9604 1.13676 32.9628C1.18129 32.9484 1.26355 32.9198 1.26355 32.9198L1.41012 32.8684L4.12032 31.8803L4.08167 31.379L1.10603 30.7715C1.10603 30.7715 1.06048 30.7647 0.998001 30.7538C1.04456 30.7479 1.13818 30.7365 1.13818 30.7365C1.1392 30.7355 3.99596 30.2832 3.99596 30.2832L3.94839 29.6777L3.86815 29.6911L0 30.3283L0.06299 31.1265L2.71719 31.6578C2.72754 31.6588 2.87665 31.6796 3.02717 31.7024C2.85636 31.7543 2.68443 31.8071 2.68443 31.8071L0.186738 32.7176L0.248714 33.5095L4.25106 33.5475L4.20501 32.9578L1.39724 32.9588Z" fill="#040000"/>
<path d="M0.611273 23.668L0.593421 23.7901L0.508217 24.3545L1.88416 25.3278C1.89207 25.3332 2.0357 25.4296 2.14859 25.5077C2.01136 25.5462 1.8445 25.5937 1.8445 25.5937L0.242766 26.1078L0.132812 26.8334C0.132812 26.8334 2.67361 25.9358 2.70729 25.9224C2.74391 25.9284 4.26794 26.1572 4.26794 26.1572L4.36055 25.5409C4.36055 25.5409 2.8638 25.3159 2.82809 25.3099C2.79939 25.2887 0.611273 23.668 0.611273 23.668Z" fill="#040000"/>
<path d="M4.48313 18.3542C3.89126 18.1298 3.41676 18.0705 2.98831 18.1689C2.63572 18.251 2.16274 18.4828 1.92001 19.1194C1.56743 20.0402 2.08048 20.8924 3.25873 21.3403C3.88376 21.578 4.44996 21.6175 4.89565 21.4534C5.31265 21.3017 5.61979 20.9947 5.7832 20.5662C5.93179 20.1787 5.9323 19.853 5.78522 19.4743C5.58165 18.9588 5.19184 18.6241 4.48313 18.3542ZM5.32259 20.367C5.21507 20.6482 4.9482 20.8929 4.70202 20.9349C4.41922 20.9819 3.92098 20.889 3.40438 20.6928C2.96903 20.5267 2.69658 20.3615 2.51532 20.1539C2.33061 19.9443 2.2875 19.6093 2.40344 19.3038C2.53074 18.9706 2.79862 18.7664 3.1364 18.7398C3.41574 18.718 3.7877 18.7991 4.30978 18.9978C4.93035 19.2341 5.14427 19.4288 5.27552 19.6474C5.40972 19.8648 5.42564 20.1001 5.32259 20.367Z" fill="#040000"/>
<path d="M5.78229 12.1462L5.48915 12.5847L7.29 13.767C7.29 13.767 7.66388 13.9934 7.95368 14.1694C7.7149 14.1289 7.47126 14.0874 7.47126 14.0874L4.68377 13.7829L4.32227 14.3236L7.62574 16.5311L7.97345 16.0116L6.05272 14.7566C6.05272 14.7566 5.75359 14.5767 5.50051 14.425C5.70308 14.455 5.92592 14.4817 6.11611 14.504L8.79364 14.7892L9.12746 14.2909L5.82348 12.084L5.78229 12.1462Z" fill="#040000"/>
<path d="M10.499 9.56129L10.9547 9.85831C10.9547 9.85831 11.4143 9.42086 11.5014 9.33684C11.5881 9.42737 12.1661 10.0318 12.2235 10.0916C12.174 10.2494 12.078 10.404 11.923 10.5508C11.6639 10.798 11.2989 10.9315 11.0358 10.8771C10.7516 10.8183 10.4108 10.5934 10.077 10.2439C9.83335 9.9889 9.64864 9.72438 9.52875 9.45743C9.3133 8.97949 9.53422 8.62612 9.75606 8.41404C9.95619 8.22372 10.1572 8.13522 10.5257 8.07299L10.5956 8.06155L10.5302 7.57422L10.4623 7.57715C10.0577 7.59598 9.69713 7.75512 9.38958 8.04829C9.08548 8.3369 8.92299 8.66458 8.89327 9.04825C8.84377 9.59683 9.07453 10.1297 9.59762 10.6779C10.0691 11.1701 10.5198 11.4148 11.0181 11.4465C11.4677 11.4742 11.8977 11.3056 12.2602 10.9611C12.5534 10.6823 12.7842 10.3012 12.8624 9.97007L12.8704 9.93049L11.5564 8.55485L10.499 9.56129Z" fill="#040000"/>
<path d="M15.5948 7.37487L13.8128 4.65234L13.7509 4.69284L13.3047 4.98448L15.0916 7.71501C15.3011 8.0353 15.3744 8.18654 15.3823 8.31602C15.3982 8.46635 15.3343 8.66355 15.2164 8.83207L15.16 8.91318L15.6483 9.0787L15.6806 9.03669C15.884 8.77622 15.9871 8.48659 15.9692 8.22015C15.9554 8.04907 15.9039 7.88852 15.8108 7.72584L15.5948 7.37487Z" fill="#040000"/>
<path d="M17.6165 2.60684L17.1426 2.82378L18.8002 6.44251L19.3431 6.19437L17.6839 2.57617L17.6165 2.60684Z" fill="#040000"/>
<path d="M28.6986 0L28.6244 0.00637759L28.0983 0.0499072L28.3222 2.72799C28.3514 3.07144 28.3346 3.199 28.243 3.34578C28.1518 3.48915 27.9399 3.58158 27.6451 3.60638C27.2514 3.63948 26.9894 3.51395 26.9087 3.2549C26.877 3.14962 26.8433 2.9277 26.8235 2.68942L26.6134 0.17341L26.0137 0.222912L26.242 2.96325C26.2787 3.40371 26.3169 3.48429 26.4203 3.65375C26.6492 4.03489 27.0572 4.19656 27.6674 4.14665C28.1424 4.10704 28.4579 3.98347 28.6926 3.74577C28.9259 3.50403 28.973 3.29489 28.9259 2.72799L28.6986 0Z" fill="#040000"/>
<path d="M34.3583 2.53434C34.3583 2.53434 34.3167 2.96923 34.284 3.30641C34.2176 3.07451 34.1468 2.83682 34.1468 2.83682L33.2033 0.201758L32.5575 0.113281L32.548 0.187383L32.0137 4.0439L32.6337 4.12894L32.9249 1.85609C32.9249 1.85609 32.9557 1.50916 32.9824 1.21496C33.0443 1.41127 33.1161 1.62335 33.1795 1.80172C33.1805 1.80375 34.0938 4.3311 34.0938 4.3311L34.6882 4.4136L35.233 0.482979L34.6356 0.399969L34.3583 2.53434Z" fill="#040000"/>
<path d="M38.9516 1.5199L37.707 5.22174L38.2721 5.41155L39.5416 1.63953L38.9759 1.44922L38.9516 1.5199Z" fill="#040000"/>
<path d="M43.0857 6.03209C43.0857 6.03209 42.8698 6.24457 42.6974 6.41565C42.7454 6.24315 42.7974 6.03107 42.8342 5.83033L43.3249 3.23536L42.7519 2.91992L42.7316 3.02075L41.998 7.04977L42.4889 7.32016L45.6121 4.49681L45.0618 4.19372L43.0857 6.03209Z" fill="#040000"/>
<path d="M48.5245 7.34661C48.6276 7.43458 49.7092 8.36145 49.7092 8.36145L50.1202 8.01686L48.4056 6.54688L48.3571 6.60367L45.8262 9.54424L47.5736 11.0425L47.9292 10.6282C47.9292 10.6282 46.7509 9.61845 46.6474 9.53037C46.7296 9.43451 47.375 8.68418 47.4576 8.58882C47.5588 8.67426 48.4561 9.4424 48.4561 9.4424L48.8107 9.02968C48.8107 9.02968 47.9143 8.26012 47.8132 8.17508C47.8945 8.08013 48.4453 7.44052 48.5245 7.34661Z" fill="#040000"/>
<path d="M53.6807 12.4161C53.6906 12.1259 53.5678 11.8382 53.2716 11.4536L52.6793 10.6875L52.6203 10.733L49.5254 13.112L49.8963 13.5925C49.8963 13.5925 51.1103 12.6597 51.2469 12.5539C51.2727 12.6004 51.3034 12.6473 51.3034 12.7002C51.3034 12.7551 51.2921 12.8184 51.2708 12.9044C51.2063 13.1847 51.0969 13.5475 50.9369 14.0161L50.6834 14.6024L50.7071 14.6444L51.144 15.2093L51.5144 14.1085L51.5976 13.8471L51.6788 13.5856C51.7096 13.4783 51.7452 13.3241 51.767 13.159C51.9463 13.3557 52.1592 13.4901 52.4024 13.5208C52.6882 13.5584 52.9809 13.4699 53.2469 13.2648C53.6154 12.982 53.6778 12.6122 53.6807 12.4161ZM52.3494 12.9454C52.1751 12.9222 52.0166 12.8026 51.8175 12.5436C51.8175 12.5436 51.6857 12.372 51.6134 12.2796C51.714 12.2029 52.5287 11.5762 52.6308 11.4981C52.6926 11.5792 52.8536 11.7888 52.8536 11.7888C52.9685 11.937 53.0374 12.0651 53.0725 12.1906C53.0844 12.2321 53.0909 12.2751 53.0909 12.3177C53.0909 12.4833 53.0072 12.6558 52.867 12.7631C52.6813 12.9064 52.4961 12.9711 52.3494 12.9454Z" fill="#040000"/>
<path d="M55.2152 18.7553C55.3143 18.5359 55.3312 18.314 55.2767 17.9393L55.2123 17.481C55.138 16.9788 55.2578 16.8118 55.4609 16.7154C55.5995 16.6482 55.7348 16.6378 55.8606 16.6808C56.0196 16.7381 56.1587 16.8819 56.2623 17.0975C56.3975 17.3797 56.4223 17.6091 56.3663 18.0371L56.3563 18.1132L56.8878 18.1667L56.8982 18.0964C56.9655 17.6432 56.9101 17.2364 56.7254 16.8509C56.3861 16.1425 55.7303 15.8701 55.0963 16.1731C54.8611 16.2849 54.6883 16.4682 54.5972 16.6991C54.5129 16.9229 54.5244 17.1355 54.5793 17.4988L54.6397 17.8982C54.7096 18.3441 54.6125 18.6135 54.3326 18.7474C54.1479 18.8349 53.9681 18.833 53.7858 18.7375C53.6185 18.6506 53.5214 18.5388 53.4045 18.2956C53.242 17.9551 53.1975 17.6398 53.2638 17.271L53.2787 17.1889L52.7151 17.1523L52.7067 17.2235C52.6567 17.6842 52.729 18.0969 52.9316 18.5201C53.0885 18.8482 53.2718 19.0583 53.5442 19.2264C53.9206 19.4439 54.3337 19.475 54.6774 19.3109C54.9121 19.1977 55.1142 18.9901 55.2152 18.7553Z" fill="#040000"/>
<path d="M58.4177 21.5488L58.3459 21.5691L54.5723 22.5992L54.7298 23.1746L58.5751 22.1243L58.4177 21.5488Z" fill="#040000"/>
<path d="M55.4258 26.9737L55.4823 27.5604C55.4823 27.5604 58.7764 27.2485 58.9185 27.2341C58.9304 27.3626 59.0161 28.2633 59.0161 28.2633L59.553 28.2519L59.2979 25.5742L59.2231 25.5822L58.765 25.6252C58.765 25.6252 58.8502 26.5204 58.862 26.6479C58.7204 26.6608 55.4258 26.9737 55.4258 26.9737Z" fill="#040000"/>
<path d="M59.4787 32.0827L59.558 31.3516L59.442 31.3985C59.442 31.3985 57.0578 32.3565 57.0241 32.3698C56.9885 32.3654 55.456 32.2008 55.456 32.2008L55.3887 32.8196C55.3887 32.8196 56.8933 32.9832 56.929 32.9862C56.9592 33.0084 59.2122 34.5358 59.2122 34.5358L59.2876 33.8458L57.871 32.9299C57.8635 32.9254 57.7165 32.8335 57.5996 32.7618C57.7348 32.7168 57.8998 32.6624 57.8998 32.6624L59.4787 32.0827Z" fill="#040000"/>
<path d="M5.67283 41.8597C5.67283 42.2977 5.31721 42.6531 4.8779 42.6531C4.43961 42.6531 4.08398 42.2977 4.08398 41.8597C4.08398 41.4217 4.43961 41.0664 4.8779 41.0664C5.31721 41.0664 5.67283 41.4217 5.67283 41.8597Z" fill="#040000"/>
<path d="M55.502 41.8597C55.502 42.2977 55.1463 42.6531 54.707 42.6531C54.2687 42.6531 53.9121 42.2977 53.9121 41.8597C53.9121 41.4217 54.2687 41.0664 54.707 41.0664C55.1463 41.0664 55.502 41.4217 55.502 41.8597Z" fill="#040000"/>
</g>
<defs>
<clipPath id="clip0_743_19">
<rect width="237" height="60" fill="white"/>
</clipPath>
</defs>
</svg>
