<?xml version="1.0" encoding="UTF-8"?>
<svg id="_레이어_2" data-name="레이어 2" xmlns="http://www.w3.org/2000/svg" viewBox="0 0 509.000038785011384 323.99999161751839">
  <g id="_레이어_1-2" data-name="레이어 1">
    <g>
      <path d="M443.865528767359137,113.80211277286071l.16650390625-.1492919921875c-54.994873046875-24.67474365234375-57.7451171875-29.15576171875-82.379150390625-70.61651611328125l-.14208984375.1275634765625c-12.0830078125-20.4940185546875-32.302734375-36.28631591796875-57.892822265625-41.33154296875-46.394287109375-9.849853515625-94.06640625,21.05706787109375-103.581787109375,67.6082763671875-1.224609375,5.32470703125-1.86767578125,10.72235107421875-2.00439453125,16.11590576171875l-.011962890625-.00689697265625c-.234627322373854,8.459809564281386-.564283595409506,15.696851395585327-1.10909608100701,22.00930726011029-1.168499272138433,13.538786790157246-18.264137690091957,18.751014723648041-26.855330268357648,8.222218573020655-.085124700439337-.104323190307696-.170549236572697-.209024612428038-.256276775635342-.314106399537195l-.010986328125.013916015625c-19.581787109375-24.0501708984375-53.88330078125-32.1434326171875-82.71044921875-17.59771728515625-31.15966796875,15.72265625-44.859375,52.30645751953125-32.69970703125,84.22088623046875l-.01513671875-.0050048828125c13.6904296875,36.078125,10.71435546875,41.94903564453125-.560791015625,59.16607666015625l.011962890625.00390625c-6.813504375611956,10.423639277676557-8.035589451795204,24.09646243102361-1.995290145852778,36.007295162491573,8.985719661795883,17.718890810298035,30.5892025158264,24.805871462842333,48.325774389651997,15.855102358887962,11.955415761112818-6.033306028961306,19.081658954100931-17.826183517938262,19.729818490575781-30.305940001848285l.01171875.00384521484375c.004663085939683-.091271362303814.009327050782304-.182265466308309.013994618409924-.272984819335761.452121105199694-8.787475068764252,11.825265137060342-11.960538932269628,16.762709707534668-4.677286040097897,2.131772137531698,3.144589344654378,25.514426146577534,48.731256641207437,77.066801533430407,42.612258164121158,33.691650390625-3.9990234375,59.37451171875-30.04962158203125,64.377685546875-62.000244140625l.010009765625.0057373046875c.014987792968896-.095366821287826.029962231445097-.19055499267597.044923812500201-.285565149473769,1.065649106209094-6.767165067851238,10.502540418758144-7.552044809288418,12.672109270442888-1.05411421017925,1.118972218755516,3.351358872134369,2.287143422525332,6.917919215147776,3.51880676080691,10.723285316684269l.000732421875-.00079345703125c3.056884765625,9.49761962890625,7.400390625,18.5821533203125,12.973388671875,26.89459228515625,61.517822265625,90.2386474609375,199.888671875,48.40521240234375,201.670654296875-60.56268310546875v-.19952392578125c.284423828125-44.54669189453125-27.218505859375-82.92120361328125-65.13232421875-100.2099609375Z"/>
      <path d="M18.376191876755911,193.064219137770124c12.323421200637313-.972536025172303,22.530941031045586,9.234402814603527,21.559765012249045,21.557830418791127-.763979538682179,9.69427411079414-8.617491968796458,17.548795494210935-18.311485851834732,18.313745391360499-12.32332627283904.972429658893816-22.531819340081711-9.234608221715462-21.560402954984966-21.558083318474019.764172159035297-9.694356319285362,8.618039224291351-17.548457659046107,18.312123794570653-18.313492491677607Z"/>
    </g>
  </g>
</svg>