<svg width="325" height="60" viewBox="0 0 325 60" fill="none" xmlns="http://www.w3.org/2000/svg">
<g clip-path="url(#clip0_743_100)">
<path d="M10.3668 19.6543C4.64152 19.6543 0 24.2856 0 29.999C0 35.7125 4.64152 40.344 10.3668 40.344C16.0923 40.344 20.7337 35.7125 20.7337 29.999C20.7337 24.2856 16.0923 19.6543 10.3668 19.6543Z" fill="#040000"/>
<path d="M94.3287 0C82.8402 0 72.5029 6.40005 67.3723 16.7281C66.1951 19.0929 63.9569 20.7552 61.3461 21.2017C60.8816 21.2762 60.4177 21.3176 59.9533 21.3176C57.8147 21.3176 55.7341 20.4906 54.1759 18.9772C51.2746 16.1576 47.4532 14.6115 43.4246 14.6115C34.9118 14.6117 27.9904 21.5156 27.9902 30.0084C27.9902 38.5004 34.9118 45.4049 43.4246 45.4049C47.4532 45.4049 51.2746 43.8507 54.1759 41.0394C55.7341 39.526 57.8147 38.699 59.9533 38.699C60.4177 38.699 60.8816 38.7321 61.3461 38.8149C63.9569 39.2612 66.1951 40.923 67.3723 43.288C72.5029 53.5996 82.8318 60 94.3287 60C110.916 60 124.402 46.5459 124.402 29.9999C124.402 13.4538 110.907 0.000169435 94.3287 0Z" fill="#040000"/>
<path d="M152.155 0C150.346 0 148.881 1.46137 148.881 3.26721C148.881 5.07321 150.346 6.53458 152.155 6.53458C153.965 6.53458 155.43 5.07321 155.43 3.26721C155.43 1.46137 153.965 0 152.155 0Z" fill="#040000"/>
<path d="M163.232 16.0385C163.232 14.2327 161.765 12.7715 159.958 12.7715C158.148 12.7715 156.684 14.2327 156.684 16.0385C156.684 17.8447 158.151 19.3059 159.958 19.3059C161.768 19.3059 163.232 17.8447 163.232 16.0385Z" fill="#040000"/>
<path d="M152.155 35.6426C150.346 35.6426 148.881 37.1038 148.881 38.9094C148.881 40.7156 150.346 42.1768 152.155 42.1768C153.965 42.1768 155.43 40.7156 155.43 38.9094C155.43 37.1038 153.965 35.6426 152.155 35.6426Z" fill="#040000"/>
<path d="M155.377 10.693C155.377 8.88715 153.91 7.42578 152.103 7.42578C150.296 7.42578 148.828 8.88715 148.828 10.693C148.828 12.4988 150.296 13.9604 152.103 13.9604C153.912 13.9604 155.377 12.4988 155.377 10.693Z" fill="#040000"/>
<path d="M161.087 0C159.277 0 157.812 1.46137 157.812 3.26721C157.812 5.07321 159.277 6.53458 161.087 6.53458C162.896 6.53458 164.361 5.07321 164.361 3.26721C164.361 1.46137 162.896 0 161.087 0Z" fill="#040000"/>
<path d="M161.087 53.4648C159.277 53.4648 157.812 54.9266 157.812 56.7324C157.812 58.5386 159.277 59.9998 161.087 59.9998C162.896 59.9998 164.361 58.5386 164.361 56.7324C164.361 54.9266 162.896 53.4648 161.087 53.4648Z" fill="#040000"/>
<path d="M161.087 35.6426C159.277 35.6426 157.812 37.1038 157.812 38.9094C157.812 40.7156 159.277 42.1768 161.087 42.1768C162.896 42.1768 164.361 40.7156 164.361 38.9094C164.361 37.1038 162.896 35.6426 161.087 35.6426Z" fill="#040000"/>
<path d="M152.155 53.4648C150.346 53.4648 148.881 54.9266 148.881 56.7324C148.881 58.5386 150.346 59.9998 152.155 59.9998C153.965 59.9998 155.43 58.5386 155.43 56.7324C155.43 54.9266 153.965 53.4648 152.155 53.4648Z" fill="#040000"/>
<path d="M143.227 6.53458C145.037 6.53458 146.501 5.07321 146.501 3.26721C146.501 1.46137 145.037 0 143.227 0C141.417 0 139.953 1.46137 139.953 3.26721C139.953 5.07321 141.417 6.53458 143.227 6.53458Z" fill="#040000"/>
<path d="M170.015 6.53458C171.824 6.53458 173.289 5.07321 173.289 3.26721C173.289 1.46137 171.824 0 170.015 0C168.205 0 166.74 1.46137 166.74 3.26721C166.74 5.07321 168.205 6.53458 170.015 6.53458Z" fill="#040000"/>
<path d="M143.227 53.4648C141.417 53.4648 139.953 54.9266 139.953 56.7324C139.953 58.5386 141.417 59.9998 143.227 59.9998C145.037 59.9998 146.501 58.5386 146.501 56.7324C146.501 54.9266 145.037 53.4648 143.227 53.4648Z" fill="#040000"/>
<path d="M171.089 21.3865C171.089 19.5803 169.622 18.1191 167.815 18.1191C166.009 18.1191 164.541 19.5803 164.541 21.3865C164.541 23.1922 166.009 24.6534 167.815 24.6534C169.625 24.6534 171.089 23.1922 171.089 21.3865Z" fill="#040000"/>
<path d="M150.939 18.713C150.939 16.9067 149.474 15.4453 147.665 15.4453C145.855 15.4453 144.391 16.9067 144.391 18.713C144.391 20.5185 145.855 21.9797 147.665 21.9797C149.474 21.9797 150.939 20.5185 150.939 18.713Z" fill="#040000"/>
<path d="M143.227 44.5527C141.417 44.5527 139.953 46.0139 139.953 47.8201C139.953 49.6258 141.417 51.087 143.227 51.087C145.037 51.087 146.501 49.6258 146.501 47.8201C146.501 46.0139 145.037 44.5527 143.227 44.5527Z" fill="#040000"/>
<path d="M143.227 35.6426C141.417 35.6426 139.953 37.1038 139.953 38.9094C139.953 40.7156 141.417 42.1768 143.227 42.1768C145.037 42.1768 146.501 40.7156 146.501 38.9094C146.501 37.1038 145.037 35.6426 143.227 35.6426Z" fill="#040000"/>
<path d="M143.227 23.4648C141.417 23.4648 139.953 24.9266 139.953 26.7322C139.953 28.5386 141.417 29.9998 143.227 29.9998C145.037 29.9998 146.501 28.5386 146.501 26.7322C146.501 24.9266 145.037 23.4648 143.227 23.4648Z" fill="#040000"/>
<path d="M188.432 8.95792C186.191 8.58957 184.283 10.4966 184.649 12.7331C184.872 14.0876 185.964 15.1804 187.321 15.4002C189.563 15.7683 191.474 13.8615 191.105 11.625C190.881 10.2707 189.789 9.17768 188.432 8.95792Z" fill="#040000"/>
<path d="M197.362 44.6005C195.121 44.2323 193.213 46.1393 193.578 48.3758C193.802 49.7299 194.894 50.8229 196.252 51.0427C198.493 51.4111 200.404 49.5039 200.034 47.2674C199.812 45.9132 198.719 44.8204 197.362 44.6005Z" fill="#040000"/>
<path d="M197.362 35.6905C195.121 35.3216 193.213 37.2288 193.578 39.4653C193.802 40.8199 194.894 41.9129 196.252 42.1325C198.493 42.5009 200.404 40.5939 200.034 38.3572C199.812 37.0031 198.719 35.9102 197.362 35.6905Z" fill="#040000"/>
<path d="M197.362 53.5126C195.121 53.1443 193.213 55.0514 193.578 57.2879C193.802 58.6421 194.894 59.7349 196.252 59.9548C198.493 60.3235 200.404 58.4166 200.034 56.18C199.812 54.8254 198.719 53.7325 197.362 53.5126Z" fill="#040000"/>
<path d="M197.362 26.7802C195.121 26.4118 193.213 28.319 193.578 30.5555C193.802 31.9096 194.894 33.0025 196.252 33.2224C198.493 33.5908 200.404 31.6841 200.034 29.4476C199.812 28.093 198.719 27.0001 197.362 26.7802Z" fill="#040000"/>
<path d="M197.362 0.0477698C195.121 -0.320581 193.213 1.58624 193.578 3.82294C193.802 5.17723 194.894 6.27025 196.252 6.49001C198.493 6.85836 200.404 4.95155 200.034 2.71484C199.812 1.36055 198.719 0.267526 197.362 0.0477698Z" fill="#040000"/>
<path d="M197.362 17.87C195.121 17.5018 193.213 19.4085 193.578 21.645C193.802 22.9995 194.894 24.0925 196.252 24.3122C198.493 24.6806 200.404 22.7734 200.034 20.5369C199.812 19.1828 198.719 18.0899 197.362 17.87Z" fill="#040000"/>
<path d="M197.362 8.95792C195.121 8.58957 193.213 10.4966 193.578 12.7331C193.802 14.0876 194.894 15.1804 196.252 15.4002C198.493 15.7683 200.404 13.8615 200.034 11.625C199.812 10.2707 198.719 9.17768 197.362 8.95792Z" fill="#040000"/>
<path d="M178.946 0C177.136 0 175.672 1.46137 175.672 3.26721C175.672 5.07321 177.136 6.53458 178.946 6.53458C180.756 6.53458 182.22 5.07321 182.22 3.26721C182.22 1.46137 180.756 0 178.946 0Z" fill="#040000"/>
<path d="M178.945 26.7322C178.945 24.9266 177.477 23.4648 175.671 23.4648C173.861 23.4648 172.396 24.9266 172.396 26.7322C172.396 28.5386 173.864 29.9998 175.671 29.9998C177.48 29.9998 178.945 28.5386 178.945 26.7322Z" fill="#040000"/>
<path d="M170.015 35.6426C168.205 35.6426 166.74 37.1038 166.74 38.9094C166.74 40.7156 168.205 42.1768 170.015 42.1768C171.824 42.1768 173.289 40.7156 173.289 38.9094C173.289 37.1038 171.824 35.6426 170.015 35.6426Z" fill="#040000"/>
<path d="M188.432 35.6905C186.191 35.3216 184.283 37.2288 184.649 39.4653C184.872 40.8199 185.964 41.9129 187.321 42.1325C189.563 42.5009 191.474 40.5939 191.105 38.3572C190.881 37.0031 189.789 35.9102 188.432 35.6905Z" fill="#040000"/>
<path d="M178.946 53.4648C177.136 53.4648 175.672 54.9266 175.672 56.7324C175.672 58.5386 177.136 59.9998 178.946 59.9998C180.756 59.9998 182.22 58.5386 182.22 56.7324C182.22 54.9266 180.756 53.4648 178.946 53.4648Z" fill="#040000"/>
<path d="M188.432 53.5126C186.191 53.1443 184.283 55.0514 184.649 57.2879C184.872 58.6421 185.964 59.7349 187.321 59.9548C189.563 60.3235 191.474 58.4166 191.105 56.18C190.881 54.8254 189.789 53.7325 188.432 53.5126Z" fill="#040000"/>
<path d="M170.015 53.4648C168.205 53.4648 166.74 54.9266 166.74 56.7324C166.74 58.5386 168.205 59.9998 170.015 59.9998C171.824 59.9998 173.289 58.5386 173.289 56.7324C173.289 54.9266 171.824 53.4648 170.015 53.4648Z" fill="#040000"/>
<path d="M178.946 35.6426C177.136 35.6426 175.672 37.1038 175.672 38.9094C175.672 40.7156 177.136 42.1768 178.946 42.1768C180.756 42.1768 182.22 40.7156 182.22 38.9094C182.22 37.1038 180.756 35.6426 178.946 35.6426Z" fill="#040000"/>
<path d="M206.26 22.1126C206.198 22.2229 206.141 22.3174 206.091 22.4008C203.873 22.6949 202.156 24.596 202.156 26.8888C202.156 29.3866 204.192 31.4183 206.695 31.4183C209.198 31.4183 211.233 29.3866 211.233 26.8888C211.233 26.1578 211.153 25.6831 210.975 25.35C210.903 25.2164 210.906 24.8483 210.975 24.7149L211.358 24.0228C211.421 23.9125 211.477 23.8179 211.528 23.7346C213.745 23.4404 215.462 21.5394 215.462 19.2466C215.462 18.5156 215.382 18.0409 215.204 17.7083C215.135 17.5743 215.138 17.2061 215.207 17.0726L215.59 16.3804C215.641 16.2884 215.689 16.2083 215.734 16.1337H215.754C215.957 16.1337 216.153 16.0924 216.335 16.009C216.352 16.0002 216.424 15.9824 216.537 15.9824C216.737 15.9824 216.888 16.0385 216.927 16.0624L217.841 16.683C217.951 16.7606 218.043 16.8347 218.112 16.8972C218.216 19.3028 220.21 21.2276 222.644 21.2276H223.242C223.445 21.2276 223.641 21.1863 223.823 21.1029C223.841 21.0941 223.912 21.0761 224.026 21.0761C224.225 21.0761 224.376 21.1324 224.415 21.1561L225.326 21.7769C225.436 21.8545 225.528 21.9284 225.596 21.9911C225.701 24.3967 227.695 26.3215 230.129 26.3215H230.728C230.93 26.3215 231.127 26.28 231.308 26.1968C231.326 26.188 231.397 26.1698 231.51 26.1698C231.71 26.1698 231.862 26.2266 231.9 26.2505L232.811 26.8711C232.921 26.9482 233.013 27.0223 233.082 27.0848C233.186 29.4906 235.18 31.415 237.615 31.415L237.618 31.4127C238.829 31.412 239.969 30.9399 240.826 30.0848C241.68 29.2293 242.154 28.0919 242.154 26.883C242.154 24.3849 240.118 22.353 237.615 22.353H237.017C236.814 22.353 236.618 22.395 236.436 22.4777C236.419 22.4872 236.347 22.5051 236.234 22.5051C236.034 22.5051 235.883 22.4482 235.844 22.4245L234.93 21.8037C234.82 21.7298 234.728 21.6553 234.659 21.5927C234.555 19.1871 232.561 17.2625 230.126 17.2625H229.528C229.326 17.2625 229.13 17.3044 228.948 17.387C228.93 17.3964 228.859 17.414 228.745 17.414C228.546 17.414 228.395 17.3576 228.356 17.3338L227.445 16.7132C227.334 16.6359 227.242 16.5616 227.174 16.499C227.07 14.0934 225.076 12.1686 222.642 12.1686H222.043C221.841 12.1686 221.644 12.2103 221.463 12.2933C221.445 12.3023 221.373 12.3201 221.26 12.3201C221.061 12.3201 220.909 12.2638 220.87 12.2401L219.96 11.6193C219.85 11.5421 219.758 11.4678 219.689 11.4055C219.599 9.65608 218.361 8.55085 218.216 8.42615C218.097 8.32517 217.993 8.19165 217.921 8.08491C217.924 8.08186 217.93 8.07881 217.93 8.07881C218.02 8.01646 218.147 7.91836 218.296 7.80263C218.516 7.6332 219.081 7.19385 219.355 7.07796H219.677C219.87 7.07796 220.287 7.27976 220.409 7.43123C220.543 7.59762 221.767 9.05882 223.715 9.05882C225.665 9.05882 226.888 7.59762 227.022 7.43123C227.144 7.27976 227.561 7.07796 227.754 7.07796H228.186C228.379 7.07796 228.796 7.27976 228.918 7.43123C229.052 7.59762 230.275 9.05882 232.225 9.05882C234.174 9.05882 235.397 7.59778 235.531 7.43123C235.653 7.27976 236.07 7.07813 236.263 7.07796H236.695C236.889 7.07813 237.305 7.27976 237.427 7.43123C237.561 7.59778 238.785 9.05882 240.734 9.05882C243.237 9.05882 245.273 7.0273 245.273 4.52949C245.273 2.03169 243.237 0.000169435 240.734 0C238.785 0 237.562 1.4607 237.427 1.62759C237.305 1.77906 236.889 1.9812 236.695 1.9812H236.263C236.07 1.9812 235.653 1.77906 235.531 1.62759C235.397 1.4607 234.173 0 232.225 0C230.275 0.000169435 229.052 1.4612 228.918 1.62759C228.796 1.77906 228.379 1.9812 228.186 1.9812H227.754C227.561 1.9812 227.144 1.77906 227.022 1.62759C226.888 1.46103 225.665 0 223.715 0C221.767 0 220.543 1.46103 220.409 1.62759C220.287 1.77906 219.87 1.9812 219.677 1.9812H219.245C219.052 1.9812 218.635 1.77906 218.513 1.62759C218.379 1.46137 217.156 0.000169435 215.207 0C213.257 0 212.034 1.46137 211.9 1.62759C211.778 1.77906 211.361 1.9812 211.168 1.9812H210.736C210.543 1.9812 210.126 1.77906 210.004 1.62759C209.87 1.46086 208.647 0 206.698 0C204.195 0.000169435 202.159 2.03169 202.159 4.52949C202.159 7.0273 204.195 9.05882 206.698 9.05882C208.647 9.05882 209.87 7.59762 210.004 7.43123C210.126 7.27976 210.543 7.07813 210.736 7.07796H211.168C211.329 7.07813 211.513 7.14319 211.599 7.1908C211.707 7.34228 211.838 7.50849 211.986 7.69267C212.076 7.80263 212.224 7.98681 212.344 8.14726C212.275 8.24214 212.189 8.34313 212.094 8.42615C211.945 8.5539 210.617 9.74232 210.617 11.6044C210.617 12.335 210.697 12.8104 210.876 13.143C210.948 13.2767 210.945 13.6449 210.876 13.7786L210.493 14.4706C210.43 14.5805 210.373 14.6756 210.323 14.7586C208.106 15.0527 206.388 16.9536 206.388 19.2466C206.388 19.9775 206.468 20.4523 206.647 20.7854C206.716 20.9189 206.712 21.2871 206.644 21.4204L206.26 22.1126Z" fill="#040000"/>
<path d="M260.823 7.64906C261.004 7.48268 262.585 5.9559 262.228 3.78189C261.918 1.90472 260.391 0.381166 258.511 0.0721175C258.257 0.0306061 258.004 0.00976562 257.751 0.00976562C256.418 0.00976562 255.156 0.591943 254.293 1.60787C253.43 2.62363 253.061 3.96606 253.278 5.29375C253.528 6.82036 254.588 7.69362 254.706 7.78851C254.856 7.9044 255.058 8.32595 255.058 8.51318V9.05672C255.058 9.2348 254.989 9.43389 254.942 9.52894C254.903 9.55876 254.855 9.59129 254.808 9.62704C254.257 10.031 253.882 10.2684 253.689 10.3368H253.228C253.037 10.3368 252.618 10.1348 252.502 9.98641C252.406 9.86747 251.531 8.8102 250.001 8.56079C249.748 8.51911 249.495 8.49844 249.243 8.49844C247.909 8.49844 246.647 9.08061 245.784 10.0962C244.921 11.1121 244.552 12.4546 244.769 13.7823C245.079 15.6594 246.605 17.183 248.486 17.4919C248.695 17.5244 248.906 17.5425 249.114 17.5425C250.966 17.5425 252.225 16.2385 252.361 16.0901C252.519 15.9207 252.995 15.713 253.225 15.713H253.769C253.951 15.713 254.15 15.7782 254.245 15.8287C254.275 15.8702 254.308 15.9148 254.344 15.9654C254.748 16.5147 254.989 16.8922 255.058 17.0854V17.5456C255.058 17.7743 254.849 18.2496 254.68 18.4038C254.499 18.5703 252.918 20.0966 253.275 22.2711C253.525 23.7975 254.584 24.6706 254.703 24.7659C254.852 24.8817 255.055 25.3033 255.055 25.4904V26.0341C255.055 26.2626 254.846 26.7381 254.677 26.8923C254.495 27.0586 252.915 28.5856 253.272 30.7596C253.542 32.3952 254.736 33.7621 256.283 34.2913C255.328 34.6879 254.721 35.3165 254.629 35.4168C254.471 35.5865 253.995 35.7938 253.766 35.7938H253.221C253.031 35.7938 252.611 35.592 252.495 35.4436C252.4 35.3247 251.525 34.2674 249.995 34.0177C249.787 33.9851 249.575 33.9675 249.367 33.9675C247.516 33.9675 246.257 35.2715 246.12 35.4199C245.963 35.589 245.486 35.7971 245.257 35.7971H244.707C244.495 35.7971 244.049 35.592 243.912 35.4318C243.784 35.2833 242.593 33.9587 240.727 33.9587C238.861 33.9587 237.671 35.2803 237.543 35.4318C237.406 35.592 236.959 35.7971 236.748 35.7971H236.197C235.986 35.7971 235.54 35.592 235.402 35.4318C235.274 35.2828 234.084 33.9587 232.218 33.9587C230.352 33.9587 229.161 35.2803 229.033 35.4318C228.897 35.592 228.45 35.7971 228.239 35.7971H227.688C227.477 35.7971 227.031 35.592 226.894 35.4318C226.766 35.2833 225.575 33.9587 223.709 33.9587C221.843 33.9587 220.652 35.2803 220.524 35.4318C220.387 35.592 219.941 35.7971 219.73 35.7971H219.179C218.968 35.7971 218.521 35.592 218.385 35.4318C218.257 35.2833 217.066 33.9587 215.2 33.9587C213.334 33.9587 212.143 35.2803 212.015 35.4318C211.878 35.592 211.432 35.7971 211.221 35.7971H210.67C210.459 35.7971 210.012 35.592 209.876 35.4318C209.748 35.2828 208.557 33.9587 206.691 33.9587C204.188 33.9587 202.152 35.9899 202.152 38.4877C202.152 40.3503 203.48 41.5383 203.632 41.6661C203.792 41.8027 203.998 42.2481 203.998 42.4591V43.0084C203.998 43.2193 203.792 43.6648 203.632 43.8018C203.483 43.9296 202.156 45.1171 202.156 46.9797C202.156 48.8418 203.483 50.0299 203.635 50.1577C203.795 50.2942 204 50.7395 204.001 50.9506V51.5004C204 51.7114 203.795 52.1563 203.635 52.2929C203.485 52.4206 202.158 53.6092 202.158 55.4713C202.158 57.9689 204.194 60.0008 206.697 60.0008C208.563 60.0008 209.754 58.6792 209.882 58.5277C210.019 58.3673 210.465 58.1624 210.677 58.1624H211.227C211.438 58.1624 211.884 58.3673 212.022 58.5277C212.15 58.6761 213.34 60.0008 215.206 60.0008C217.072 60.0008 218.262 58.6792 218.39 58.5277C218.527 58.3673 218.974 58.1624 219.186 58.1624H219.736C219.947 58.1624 220.394 58.3673 220.531 58.5277C220.659 58.6761 221.849 60.0008 223.715 60.0008C225.581 60.0008 226.772 58.6792 226.9 58.5277C227.037 58.3673 227.483 58.1624 227.694 58.1624H228.245C228.456 58.1624 228.902 58.3673 229.04 58.5277C229.167 58.6761 230.358 60.0008 232.224 60.0008C234.09 60.0008 235.281 58.6792 235.409 58.5277C235.545 58.3673 235.992 58.1624 236.203 58.1624H236.754C236.965 58.1624 237.412 58.3673 237.549 58.5277C237.677 58.6761 238.867 60.0008 240.733 60.0008L240.724 59.9889C242.59 59.9889 243.781 58.6673 243.909 58.5159C244.046 58.3554 244.492 58.1506 244.704 58.1506H245.248C245.438 58.1506 245.858 58.3522 245.974 58.5008C246.069 58.6197 246.945 59.6768 248.474 59.9262C248.683 59.9594 248.894 59.9771 249.102 59.9771C250.953 59.9771 252.212 58.6734 252.349 58.5245C252.507 58.3554 252.983 58.1475 253.213 58.1475H253.757C253.947 58.1475 254.368 58.3491 254.484 58.4982C254.579 58.6172 255.454 59.6745 256.983 59.9237C257.236 59.965 257.489 59.9857 257.742 59.9857C259.076 59.9857 260.338 59.4006 261.201 58.3879C262.064 57.3752 262.433 56.0299 262.216 54.7022C261.966 53.1756 260.906 52.3027 260.787 52.207C260.638 52.0916 260.436 51.6695 260.436 51.4823V50.9387C260.436 50.71 260.644 50.2347 260.813 50.0806C260.996 49.914 262.576 48.3871 262.219 46.2132C261.968 44.6868 260.909 43.8132 260.79 43.7185C260.641 43.6026 260.439 43.181 260.439 42.994V42.4502C260.439 42.2217 260.647 41.7462 260.817 41.5921C260.998 41.4257 262.579 39.8987 262.221 37.7247C261.96 36.1363 260.826 34.8013 259.344 34.2406C260.057 33.9726 260.699 33.5263 261.204 32.9336C262.067 31.9207 262.436 30.5754 262.219 29.2477C261.968 27.7213 260.909 26.8482 260.79 26.753C260.641 26.6371 260.439 26.2155 260.439 26.0285V25.4848C260.439 25.2562 260.647 24.7808 260.817 24.6266C260.999 24.4602 262.579 22.9332 262.221 20.7592C261.971 19.2328 260.912 18.3599 260.793 18.2646C260.644 18.1488 260.442 17.7267 260.442 17.5395V16.9959C260.442 16.7672 260.65 16.2918 260.82 16.1377C261.002 15.9712 262.582 14.4444 262.224 12.2704C261.975 10.7438 260.915 9.87052 260.796 9.77564C260.647 9.65974 260.445 9.23819 260.445 9.05096V8.50725C260.445 8.27868 260.653 7.80359 260.823 7.64906ZM255.058 43.0146C255.058 43.2432 254.849 43.7181 254.679 43.8726C254.498 44.0392 252.918 45.5656 253.275 47.7402C253.525 49.2659 254.584 50.139 254.703 50.2347C254.852 50.3505 255.055 50.7727 255.055 50.9594V51.503C255.055 51.6815 254.986 51.8805 254.939 51.9753C254.9 52.0052 254.852 52.0377 254.804 52.0736C254.254 52.4743 253.879 52.7148 253.686 52.7832H253.225C253.034 52.7832 252.614 52.5814 252.498 52.433C252.403 52.314 251.528 51.2568 249.998 51.0069C249.79 50.9743 249.578 50.9567 249.37 50.9567L249.376 50.9594C247.525 50.9594 246.266 52.2634 246.129 52.4118C245.971 52.5814 245.495 52.789 245.266 52.789H244.715C244.504 52.789 244.058 52.584 243.921 52.4237C243.793 52.2752 242.602 50.9506 240.736 50.9506C238.87 50.9506 237.68 52.2722 237.551 52.4237C237.415 52.584 236.968 52.789 236.757 52.789H236.206C235.995 52.789 235.548 52.584 235.412 52.4237C235.284 52.2752 234.093 50.9506 232.227 50.9506C230.361 50.9506 229.17 52.2725 229.042 52.4237C228.905 52.584 228.459 52.789 228.248 52.789H227.697C227.486 52.789 227.039 52.584 226.903 52.4237C226.775 52.2752 225.584 50.9506 223.718 50.9506C221.852 50.9506 220.661 52.2725 220.534 52.4237C220.396 52.584 219.95 52.789 219.739 52.789H219.188C218.977 52.789 218.53 52.584 218.393 52.4237C218.265 52.2752 217.075 50.9506 215.209 50.9506C213.343 50.9506 212.153 52.2722 212.025 52.4237C211.888 52.584 211.441 52.789 211.23 52.789H210.679C210.501 52.789 210.301 52.7212 210.206 52.6734C210.176 52.6348 210.144 52.5902 210.108 52.5396C209.703 51.9903 209.465 51.6158 209.397 51.4228V50.9567C209.397 50.7458 209.602 50.3003 209.763 50.1638C209.911 50.036 211.239 48.8476 211.239 46.9855C211.239 45.1234 209.911 43.9353 209.76 43.8076C209.599 43.671 209.394 43.2251 209.394 43.0146V42.4653C209.394 42.2867 209.462 42.0877 209.51 41.9929C209.548 41.9631 209.596 41.9304 209.643 41.8947C210.194 41.4938 210.569 41.2534 210.762 41.1851H211.23C211.441 41.1851 211.888 41.3899 212.025 41.5502C212.153 41.6988 213.343 43.0234 215.209 43.0234C217.075 43.0234 218.265 41.7019 218.393 41.5502C218.53 41.3899 218.977 41.1851 219.188 41.1851H219.739C219.95 41.1851 220.396 41.3899 220.534 41.5502C220.661 41.6988 221.852 43.0234 223.718 43.0234C225.584 43.0234 226.775 41.7019 226.903 41.5502C227.039 41.3899 227.486 41.1851 227.697 41.1851H228.248C228.459 41.1851 228.905 41.3899 229.042 41.5502C229.17 41.6988 230.361 43.0234 232.227 43.0234C234.093 43.0234 235.284 41.7019 235.412 41.5502C235.548 41.3899 235.995 41.1851 236.206 41.1851H236.757C236.968 41.1851 237.415 41.3899 237.551 41.5502C237.679 41.6988 238.87 43.0234 240.736 43.0234C242.602 43.0234 243.793 41.7019 243.921 41.5502C244.058 41.3899 244.504 41.1851 244.715 41.1851H245.26C245.45 41.1851 245.87 41.3867 245.986 41.5351C246.081 41.6542 246.957 42.7113 248.486 42.9608C248.695 42.994 248.906 43.0114 249.114 43.0114C250.965 43.0114 252.224 41.708 252.361 41.559C252.519 41.3899 252.995 41.182 253.225 41.182H253.769C253.95 41.182 254.15 41.2471 254.245 41.2979C254.275 41.3393 254.308 41.3837 254.343 41.4345C254.748 41.9838 254.989 42.3608 255.058 42.5541V43.0146Z" fill="#040000"/>
<path d="M324.906 36.5462C324.74 35.5542 324.362 34.636 323.822 33.8374C324.804 32.3849 325.197 30.6089 324.906 28.8539C324.74 27.8674 324.368 26.9437 323.822 26.1388C324.78 24.7132 325.203 22.9433 324.906 21.1614C324.74 20.1754 324.368 19.2513 323.822 18.4465C324.78 17.0209 325.203 15.251 324.906 13.469C324.74 12.4831 324.368 11.5592 323.822 10.7542C324.78 9.32873 325.203 7.55865 324.906 5.77958C324.423 2.85718 322.111 0.570147 319.157 0.092003C318.776 0.029651 318.385 0 318.001 0C315.945 0 314 0.890887 312.667 2.44138C311.406 3.9114 310.826 5.82431 311.052 7.73994C310.776 7.70724 310.499 7.69233 310.226 7.69233C309.953 7.69233 309.671 7.71012 309.397 7.74282C309.431 7.47257 309.449 7.20216 309.449 6.9231C309.449 3.10658 306.309 0 302.451 0C301.028 0 299.686 0.415792 298.563 1.15825C297.441 0.418673 296.102 0 294.676 0C293.25 0 291.911 0.415792 290.789 1.15825C289.666 0.418673 288.327 0 286.901 0C285.476 0 284.137 0.415792 283.014 1.15825C281.891 0.418673 280.552 0 279.126 0C277.7 0 276.361 0.415792 275.239 1.15825C274.116 0.418673 272.777 0 271.351 0C267.494 0 264.354 3.10658 264.354 6.9231C264.354 10.7396 267.494 13.846 271.351 13.846C271.603 13.846 271.852 13.8342 272.099 13.8076C272.104 13.8877 272.111 13.9678 272.119 14.048C269.811 15.1795 268.22 17.538 268.22 20.2557C268.22 20.4963 268.232 20.7335 268.256 20.9711C265.948 22.1027 264.357 24.4608 264.357 27.1785C264.357 29.2785 265.308 31.1643 266.806 32.4352C265.308 33.7065 264.357 35.5892 264.357 37.6924C264.357 39.0879 264.783 40.4213 265.539 41.5381C264.783 42.6548 264.357 43.9888 264.357 45.3849C264.357 46.7804 264.783 48.1138 265.539 49.2304C264.783 50.3473 264.357 51.6811 264.357 53.0766C264.357 56.8934 267.497 60 271.354 60C272.765 60 274.113 59.5784 275.241 58.8299C276.37 59.5784 277.718 60 279.129 60C280.54 60 281.888 59.5784 283.016 58.8299C284.146 59.5784 285.493 60 286.904 60C288.315 60 289.663 59.5784 290.792 58.8299C291.92 59.5784 293.268 60 294.679 60C296.09 60 297.438 59.5784 298.567 58.8299C299.695 59.5784 301.043 60 302.454 60C303.865 60 305.204 59.5778 306.332 58.8356C307.146 59.3761 308.077 59.7445 309.073 59.9078C309.454 59.9705 309.845 60 310.226 60C311.634 60 312.976 59.5778 314.105 58.8356C314.918 59.3761 315.849 59.7445 316.845 59.9078C317.227 59.9705 317.614 60 317.998 60C320.054 60 322 59.1093 323.333 57.5584C324.666 56.0085 325.236 53.959 324.903 51.9363C324.738 50.9503 324.365 50.0264 323.819 49.2216L323.822 49.2128C324.78 47.7875 325.203 46.0169 324.906 44.235C324.74 43.249 324.368 42.3253 323.822 41.5204C324.78 40.095 325.203 38.3249 324.906 36.5462ZM278.319 26.4569C279.697 25.7798 280.822 24.6658 281.5 23.3028C282.708 24.2798 284.248 24.8649 285.925 24.8649C286.006 24.8649 286.088 24.8649 286.166 24.8623C287.126 27.5499 289.723 29.4801 292.764 29.4801C292.845 29.4801 292.926 29.4801 293.004 29.477C293.176 29.9586 293.4 30.4127 293.671 30.8374C292.629 30.9891 291.647 31.3666 290.792 31.9335C289.663 31.1849 288.315 30.763 286.904 30.763C285.493 30.763 284.146 31.1849 283.016 31.9335C281.888 31.1849 280.54 30.7634 279.129 30.763C278.448 30.763 277.784 30.8644 277.148 31.0484C277.907 29.9406 278.352 28.6072 278.352 27.1722H278.354C278.354 26.9318 278.343 26.6942 278.319 26.4569ZM311.055 46.1953C310.781 46.1626 310.502 46.1477 310.229 46.1477C308.818 46.1477 307.47 46.5698 306.342 47.3182C305.213 46.5698 303.865 46.1477 302.454 46.1477C301.043 46.1477 299.695 46.5698 298.567 47.3182C297.438 46.5698 296.09 46.1477 294.679 46.1477C293.268 46.1477 291.92 46.5698 290.792 47.3182C289.663 46.5698 288.315 46.1477 286.904 46.1477C285.493 46.1477 284.146 46.5698 283.016 47.3182C281.888 46.5698 280.54 46.1477 279.129 46.1477C278.85 46.1477 278.574 46.1658 278.304 46.1953C278.336 45.9254 278.352 45.6516 278.352 45.3785C278.352 45.1055 278.334 44.8292 278.304 44.5618C278.577 44.5943 278.853 44.6094 279.129 44.6094C280.54 44.6094 281.888 44.1873 283.016 43.439C284.146 44.1873 285.493 44.6094 286.904 44.6094C288.315 44.6094 289.663 44.1873 290.792 43.439C291.92 44.1873 293.268 44.6094 294.679 44.6094C296.09 44.6094 297.438 44.1873 298.567 43.439C299.695 44.1873 301.043 44.6094 302.454 44.6094C303.865 44.6094 305.204 44.1879 306.332 43.4452C307.146 43.9857 308.077 44.3539 309.073 44.5174C309.454 44.5794 309.845 44.6094 310.226 44.6094C310.505 44.6094 310.781 44.5913 311.058 44.5588C310.992 45.0935 310.989 45.6428 311.055 46.1953ZM311.055 30.8135C310.779 30.781 310.502 30.7603 310.229 30.7603C308.818 30.7603 307.47 31.1819 306.342 31.9305C305.985 31.6929 305.6 31.4938 305.204 31.3246C306.111 30.1339 306.603 28.6904 306.603 27.1722C306.603 23.356 303.463 20.2527 299.605 20.2495C299.525 20.2495 299.443 20.2495 299.366 20.2527C298.405 17.5644 295.808 15.6342 292.767 15.6341C292.686 15.6341 292.605 15.6341 292.527 15.6369C292.134 14.538 291.467 13.567 290.609 12.8006C290.671 12.7622 290.735 12.7234 290.795 12.6817C291.917 13.4213 293.256 13.8403 294.682 13.8403C296.108 13.8403 297.447 13.4243 298.569 12.6817C299.692 13.4214 301.031 13.8403 302.457 13.8403C302.736 13.8403 303.012 13.8226 303.286 13.7898C303.208 14.4343 303.22 15.0936 303.328 15.7498L303.325 15.753C303.808 18.6756 306.119 20.9623 309.073 21.4401C309.454 21.5028 309.842 21.5328 310.226 21.5328C310.505 21.5328 310.781 21.5146 311.058 21.4821C310.979 22.1234 310.991 22.7798 311.1 23.4418C311.265 24.4282 311.637 25.352 312.183 26.1568C311.283 27.4991 310.857 29.1414 311.055 30.8135Z" fill="#040000"/>
</g>
<defs>
<clipPath id="clip0_743_100">
<rect width="325" height="60" fill="white"/>
</clipPath>
</defs>
</svg>
