<?xml version="1.0" encoding="UTF-8"?>
<svg id="_레이어_2" data-name="레이어 2" xmlns="http://www.w3.org/2000/svg" viewBox="0 0 233.651343126271968 43.2274169921875">
  <defs>
    <style>
      .cls-1 {
        fill: #040000;
      }
    </style>
  </defs>
  <g id="Layer_1" data-name="Layer 1">
    <g>
      <path class="cls-1" d="M7.4530029296875,14.1607666015625c-4.1160888671875,0-7.4530029296875,3.336669921875-7.4530029296875,7.452880859375,0,4.1163330078125,3.3369140625,7.453125,7.4530029296875,7.453125,4.1162109375,0,7.4530029296875-3.3367919921875,7.4530029296875-7.453125,0-4.1162109375-3.3367919921875-7.452880859375-7.4530029296875-7.452880859375Z"/>
      <path class="cls-1" d="M67.8155517578125,0c-8.2593994140625,0-15.691162109375,4.6109619140625-19.379638671875,12.0518798828125-.8463134765625,1.7037353515625-2.4554443359375,2.9013671875-4.3323974609375,3.2230224609375-.333984375.0537109375-.66748046875.08349609375-1.0013427734375.08349609375-1.5374755859375,0-3.0333251953125-.5958251953125-4.153564453125-1.6861572265625-2.0858154296875-2.0313720703125-4.8331298828125-3.145263671875-7.7293701171875-3.145263671875-6.1201171875.0001220703125-11.0960693359375,4.97412109375-11.09619140625,11.0927734375,0,6.1181640625,4.97607421875,11.092529296875,11.09619140625,11.092529296875,2.896240234375,0,5.6435546875-1.1197509765625,7.7293701171875-3.1451416015625,1.1202392578125-1.09033203125,2.6160888671875-1.6861572265625,4.153564453125-1.6861572265625.3338623046875,0,.6673583984375.0238037109375,1.0013427734375.08349609375,1.876953125.321533203125,3.486083984375,1.518798828125,4.3323974609375,3.22265625,3.6884765625,7.4290771484375,11.1142578125,12.040283203125,19.379638671875,12.040283203125,11.9248046875,0,21.620361328125-9.693115234375,21.620361328125-21.61376953125C89.4359130859375,9.69287109375,79.734375.0001220703125,67.8155517578125,0Z"/>
      <path class="cls-1" d="M109.38916015625,0c-1.301025390625,0-2.3541259765625,1.0528564453125-2.3541259765625,2.3538818359375,0,1.3011474609375,1.0531005859375,2.35400390625,2.3541259765625,2.35400390625,1.30126953125,0,2.35400390625-1.0528564453125,2.35400390625-2.35400390625,0-1.301025390625-1.052734375-2.3538818359375-2.35400390625-2.3538818359375Z"/>
      <path class="cls-1" d="M117.351806640625,11.5555419921875c0-1.301025390625-1.054931640625-2.353759765625-2.35400390625-2.353759765625-1.3009033203125,0-2.35400390625,1.052734375-2.35400390625,2.353759765625,0,1.30126953125,1.054931640625,2.35400390625,2.35400390625,2.35400390625,1.30126953125,0,2.35400390625-1.052734375,2.35400390625-2.35400390625Z"/>
      <path class="cls-1" d="M109.38916015625,25.6793212890625c-1.301025390625,0-2.3541259765625,1.052734375-2.3541259765625,2.3536376953125,0,1.30126953125,1.0531005859375,2.35400390625,2.3541259765625,2.35400390625,1.30126953125,0,2.35400390625-1.052734375,2.35400390625-2.35400390625,0-1.3009033203125-1.052734375-2.3536376953125-2.35400390625-2.3536376953125Z"/>
      <path class="cls-1" d="M111.7047119140625,7.7037353515625c0-1.301025390625-1.054931640625-2.3538818359375-2.35400390625-2.3538818359375s-2.3541259765625,1.0528564453125-2.3541259765625,2.3538818359375,1.0550537109375,2.35400390625,2.3541259765625,2.35400390625c1.3009033203125,0,2.35400390625-1.052978515625,2.35400390625-2.35400390625Z"/>
      <path class="cls-1" d="M115.80908203125,0c-1.30126953125,0-2.35400390625,1.0528564453125-2.35400390625,2.3538818359375,0,1.3011474609375,1.052734375,2.35400390625,2.35400390625,2.35400390625,1.3009033203125,0,2.3536376953125-1.0528564453125,2.3536376953125-2.35400390625,0-1.301025390625-1.052734375-2.3538818359375-2.3536376953125-2.3538818359375Z"/>
      <path class="cls-1" d="M115.80908203125,38.5185546875c-1.30126953125,0-2.35400390625,1.0531005859375-2.35400390625,2.3541259765625,0,1.30126953125,1.052734375,2.35400390625,2.35400390625,2.35400390625,1.3009033203125,0,2.3536376953125-1.052734375,2.3536376953125-2.35400390625,0-1.301025390625-1.052734375-2.3541259765625-2.3536376953125-2.3541259765625Z"/>
      <path class="cls-1" d="M115.80908203125,25.6793212890625c-1.30126953125,0-2.35400390625,1.052734375-2.35400390625,2.3536376953125,0,1.30126953125,1.052734375,2.35400390625,2.35400390625,2.35400390625,1.3009033203125,0,2.3536376953125-1.052734375,2.3536376953125-2.35400390625,0-1.3009033203125-1.052734375-2.3536376953125-2.3536376953125-2.3536376953125Z"/>
      <path class="cls-1" d="M109.38916015625,38.5185546875c-1.301025390625,0-2.3541259765625,1.0531005859375-2.3541259765625,2.3541259765625,0,1.30126953125,1.0531005859375,2.35400390625,2.3541259765625,2.35400390625,1.30126953125,0,2.35400390625-1.052734375,2.35400390625-2.35400390625,0-1.301025390625-1.052734375-2.3541259765625-2.35400390625-2.3541259765625Z"/>
      <path class="cls-1" d="M102.969482421875,4.7078857421875c1.3009033203125,0,2.3536376953125-1.0528564453125,2.3536376953125-2.35400390625,0-1.301025390625-1.052734375-2.3538818359375-2.3536376953125-2.3538818359375-1.30126953125,0-2.35400390625,1.0528564453125-2.35400390625,2.3538818359375,0,1.3011474609375,1.052734375,2.35400390625,2.35400390625,2.35400390625Z"/>
      <path class="cls-1" d="M122.228759765625,4.7078857421875c1.3009033203125,0,2.35400390625-1.0528564453125,2.35400390625-2.35400390625,0-1.301025390625-1.0531005859375-2.3538818359375-2.35400390625-2.3538818359375-1.30126953125,0-2.35400390625,1.0528564453125-2.35400390625,2.3538818359375,0,1.3011474609375,1.052734375,2.35400390625,2.35400390625,2.35400390625Z"/>
      <path class="cls-1" d="M102.969482421875,38.5185546875c-1.30126953125,0-2.35400390625,1.0531005859375-2.35400390625,2.3541259765625,0,1.30126953125,1.052734375,2.35400390625,2.35400390625,2.35400390625,1.3009033203125,0,2.3536376953125-1.052734375,2.3536376953125-2.35400390625,0-1.301025390625-1.052734375-2.3541259765625-2.3536376953125-2.3541259765625Z"/>
      <path class="cls-1" d="M123.001220703125,15.4075927734375c0-1.30126953125-1.054931640625-2.35400390625-2.35400390625-2.35400390625-1.2987060546875,0-2.353759765625,1.052734375-2.353759765625,2.35400390625,0,1.3009033203125,1.0550537109375,2.3536376953125,2.353759765625,2.3536376953125,1.30126953125,0,2.35400390625-1.052734375,2.35400390625-2.3536376953125Z"/>
      <path class="cls-1" d="M108.51416015625,13.4818115234375c0-1.3013916015625-1.05322265625-2.354248046875-2.35400390625-2.354248046875-1.3013916015625,0-2.3541259765625,1.0528564453125-2.3541259765625,2.354248046875,0,1.30078125,1.052734375,2.353515625,2.3541259765625,2.353515625,1.30078125,0,2.35400390625-1.052734375,2.35400390625-2.353515625Z"/>
      <path class="cls-1" d="M102.969482421875,32.0989990234375c-1.30126953125,0-2.35400390625,1.052734375-2.35400390625,2.35400390625,0,1.3009033203125,1.052734375,2.3536376953125,2.35400390625,2.3536376953125,1.3009033203125,0,2.3536376953125-1.052734375,2.3536376953125-2.3536376953125,0-1.30126953125-1.052734375-2.35400390625-2.3536376953125-2.35400390625Z"/>
      <path class="cls-1" d="M102.969482421875,25.6793212890625c-1.30126953125,0-2.35400390625,1.052734375-2.35400390625,2.3536376953125,0,1.30126953125,1.052734375,2.35400390625,2.35400390625,2.35400390625,1.3009033203125,0,2.3536376953125-1.052734375,2.3536376953125-2.35400390625,0-1.3009033203125-1.052734375-2.3536376953125-2.3536376953125-2.3536376953125Z"/>
      <path class="cls-1" d="M102.969482421875,16.9052734375c-1.30126953125,0-2.35400390625,1.0531005859375-2.35400390625,2.35400390625,0,1.3013916015625,1.052734375,2.3541259765625,2.35400390625,2.3541259765625,1.3009033203125,0,2.3536376953125-1.052734375,2.3536376953125-2.3541259765625,0-1.3009033203125-1.052734375-2.35400390625-2.3536376953125-2.35400390625Z"/>
      <path class="cls-1" d="M135.468505859375,6.4541015625c-1.611328125-.265380859375-2.98291015625,1.1085205078125-2.719970703125,2.7198486328125.16064453125.975830078125.94580078125,1.76318359375,1.92138671875,1.9215087890625,1.6114501953125.2652587890625,2.9853515625-1.1085205078125,2.719970703125-2.7198486328125-.1605224609375-.9757080078125-.9456787109375-1.76318359375-1.92138671875-1.9215087890625Z"/>
      <path class="cls-1" d="M141.88818359375,32.1331787109375c-1.611328125-.2652587890625-2.9830322265625,1.108642578125-2.719970703125,2.719970703125.16064453125.9755859375.94580078125,1.7630615234375,1.921875,1.92138671875,1.611328125.265380859375,2.9852294921875-1.108642578125,2.719482421875-2.719970703125-.16015625-.9755859375-.94580078125-1.762939453125-1.92138671875-1.92138671875Z"/>
      <path class="cls-1" d="M141.88818359375,25.713623046875c-1.611328125-.2657470703125-2.9830322265625,1.1082763671875-2.719970703125,2.7196044921875.16064453125.9759521484375.94580078125,1.763427734375,1.921875,1.921630859375,1.611328125.265380859375,2.9852294921875-1.1085205078125,2.719482421875-2.719970703125-.16015625-.9755859375-.94580078125-1.762939453125-1.92138671875-1.9212646484375Z"/>
      <path class="cls-1" d="M141.88818359375,38.5528564453125c-1.611328125-.265380859375-2.9830322265625,1.108642578125-2.719970703125,2.719970703125.16064453125.9755859375.94580078125,1.762939453125,1.921875,1.92138671875,1.611328125.265625,2.9852294921875-1.1082763671875,2.719482421875-2.7196044921875-.16015625-.9759521484375-.94580078125-1.7633056640625-1.92138671875-1.9217529296875Z"/>
      <path class="cls-1" d="M141.88818359375,19.2935791015625c-1.611328125-.265380859375-2.9830322265625,1.108642578125-2.719970703125,2.719970703125.16064453125.9755859375.94580078125,1.762939453125,1.921875,1.92138671875,1.611328125.265380859375,2.9852294921875-1.1082763671875,2.719482421875-2.7196044921875-.16015625-.9759521484375-.94580078125-1.7633056640625-1.92138671875-1.9217529296875Z"/>
      <path class="cls-1" d="M141.88818359375.0343017578125c-1.611328125-.265380859375-2.9830322265625,1.1083984375-2.719970703125,2.7198486328125.16064453125.9757080078125.94580078125,1.76318359375,1.921875,1.9215087890625,1.611328125.265380859375,2.9852294921875-1.1083984375,2.719482421875-2.7198486328125-.16015625-.9757080078125-.94580078125-1.76318359375-1.92138671875-1.9215087890625Z"/>
      <path class="cls-1" d="M141.88818359375,12.8739013671875c-1.611328125-.2652587890625-2.9830322265625,1.1083984375-2.719970703125,2.7197265625.16064453125.975830078125.94580078125,1.7633056640625,1.921875,1.921630859375,1.611328125.265380859375,2.9852294921875-1.108642578125,2.719482421875-2.719970703125-.16015625-.9755859375-.94580078125-1.762939453125-1.92138671875-1.92138671875Z"/>
      <path class="cls-1" d="M141.88818359375,6.4541015625c-1.611328125-.265380859375-2.9830322265625,1.1085205078125-2.719970703125,2.7198486328125.16064453125.975830078125.94580078125,1.76318359375,1.921875,1.9215087890625,1.611328125.2652587890625,2.9852294921875-1.1085205078125,2.719482421875-2.7198486328125-.16015625-.9757080078125-.94580078125-1.76318359375-1.92138671875-1.9215087890625Z"/>
      <path class="cls-1" d="M128.6484375,0c-1.301025390625,0-2.353759765625,1.0528564453125-2.353759765625,2.3538818359375,0,1.3011474609375,1.052734375,2.35400390625,2.353759765625,2.35400390625,1.30126953125,0,2.35400390625-1.0528564453125,2.35400390625-2.35400390625,0-1.301025390625-1.052734375-2.3538818359375-2.35400390625-2.3538818359375Z"/>
      <path class="cls-1" d="M128.6484375,19.25927734375c0-1.3009033203125-1.0550537109375-2.35400390625-2.353759765625-2.35400390625-1.30126953125,0-2.35400390625,1.0531005859375-2.35400390625,2.35400390625,0,1.3013916015625,1.054931640625,2.3541259765625,2.35400390625,2.3541259765625,1.301025390625,0,2.353759765625-1.052734375,2.353759765625-2.3541259765625Z"/>
      <path class="cls-1" d="M122.228759765625,25.6793212890625c-1.30126953125,0-2.35400390625,1.052734375-2.35400390625,2.3536376953125,0,1.30126953125,1.052734375,2.35400390625,2.35400390625,2.35400390625,1.3009033203125,0,2.35400390625-1.052734375,2.35400390625-2.35400390625,0-1.3009033203125-1.0531005859375-2.3536376953125-2.35400390625-2.3536376953125Z"/>
      <path class="cls-1" d="M135.468505859375,25.713623046875c-1.611328125-.2657470703125-2.98291015625,1.1082763671875-2.719970703125,2.7196044921875.16064453125.9759521484375.94580078125,1.763427734375,1.92138671875,1.921630859375,1.6114501953125.265380859375,2.9853515625-1.1085205078125,2.719970703125-2.719970703125-.1605224609375-.9755859375-.9456787109375-1.762939453125-1.92138671875-1.9212646484375Z"/>
      <path class="cls-1" d="M128.6484375,38.5185546875c-1.301025390625,0-2.353759765625,1.0531005859375-2.353759765625,2.3541259765625,0,1.30126953125,1.052734375,2.35400390625,2.353759765625,2.35400390625,1.30126953125,0,2.35400390625-1.052734375,2.35400390625-2.35400390625,0-1.301025390625-1.052734375-2.3541259765625-2.35400390625-2.3541259765625Z"/>
      <path class="cls-1" d="M135.468505859375,38.5528564453125c-1.611328125-.265380859375-2.98291015625,1.108642578125-2.719970703125,2.719970703125.16064453125.9755859375.94580078125,1.762939453125,1.92138671875,1.92138671875,1.6114501953125.265625,2.9853515625-1.1082763671875,2.719970703125-2.7196044921875-.1605224609375-.9759521484375-.9456787109375-1.7633056640625-1.92138671875-1.9217529296875Z"/>
      <path class="cls-1" d="M122.228759765625,38.5185546875c-1.30126953125,0-2.35400390625,1.0531005859375-2.35400390625,2.3541259765625,0,1.30126953125,1.052734375,2.35400390625,2.35400390625,2.35400390625,1.3009033203125,0,2.35400390625-1.052734375,2.35400390625-2.35400390625,0-1.301025390625-1.0531005859375-2.3541259765625-2.35400390625-2.3541259765625Z"/>
      <path class="cls-1" d="M128.6484375,25.6793212890625c-1.301025390625,0-2.353759765625,1.052734375-2.353759765625,2.3536376953125,0,1.30126953125,1.052734375,2.35400390625,2.353759765625,2.35400390625,1.30126953125,0,2.35400390625-1.052734375,2.35400390625-2.35400390625,0-1.3009033203125-1.052734375-2.3536376953125-2.35400390625-2.3536376953125Z"/>
      <path class="cls-1" d="M148.2862548828125,15.93115234375c-.0450439453125.0794677734375-.085693359375.1475830078125-.1219482421875.2076416015625-1.5941162109375.2119140625-2.82861328125,1.58154296875-2.82861328125,3.2333984375,0,1.799560546875,1.46337890625,3.2633056640625,3.2628173828125,3.2633056640625,1.799560546875,0,3.262939453125-1.4637451171875,3.262939453125-3.2633056640625,0-.526611328125-.0577392578125-.86865234375-.1859130859375-1.108642578125-.051513671875-.09619140625-.04931640625-.3614501953125,0-.45751953125l.275634765625-.4986572265625c.045166015625-.0794677734375.0858154296875-.1475830078125.122314453125-.2076416015625,1.59375-.2119140625,2.828369140625-1.58154296875,2.828369140625-3.2333984375,0-.526611328125-.0577392578125-.86865234375-.1859130859375-1.1082763671875-.0491943359375-.0965576171875-.0469970703125-.36181640625.0023193359375-.4580078125l.275634765625-.4986572265625c.03662109375-.0662841796875.07080078125-.1240234375.1029052734375-.177734375h.014892578125c.1453857421875,0,.2864990234375-.02978515625.4173583984375-.08984375.0126953125-.00634765625.0640869140625-.0191650390625.145263671875-.0191650390625.1435546875,0,.252685546875.0404052734375.28076171875.0576171875l.656494140625.4471435546875c.079345703125.055908203125.145751953125.1092529296875.1949462890625.154296875.0748291015625,1.733154296875,1.5084228515625,3.119873046875,3.2584228515625,3.119873046875h.4300537109375c.1456298828125,0,.2869873046875-.02978515625.4173583984375-.08984375.0130615234375-.00634765625.064453125-.019287109375.145751953125-.019287109375.14306640625,0,.252197265625.04052734375.2802734375.0576171875l.6546630859375.447265625c.0789794921875.055908203125.1453857421875.109130859375.1944580078125.154296875.074951171875,1.733154296875,1.508544921875,3.119873046875,3.2589111328125,3.119873046875h.4300537109375c.145263671875,0,.286865234375-.0299072265625.4173583984375-.08984375.0130615234375-.00634765625.0640869140625-.0194091796875.1453857421875-.0194091796875.143310546875,0,.2525634765625.0408935546875.2801513671875.05810546875l.6546630859375.4471435546875c.0794677734375.0555419921875.145751953125.10888671875.195068359375.1539306640625.0748291015625,1.7332763671875,1.5084228515625,3.1197509765625,3.2587890625,3.1197509765625l.002197265625-.001708984375c.8704833984375-.00048828125,1.6903076171875-.340576171875,2.306396484375-.9566650390625.614013671875-.6163330078125.954345703125-1.435791015625.954345703125-2.3067626953125,0-1.7998046875-1.46337890625-3.263671875-3.262939453125-3.263671875h-.43017578125c-.1456298828125,0-.286865234375.0302734375-.417236328125.08984375-.0126953125.0068359375-.064208984375.019775390625-.1453857421875.019775390625-.1434326171875,0-.2523193359375-.041015625-.2801513671875-.05810546875l-.657470703125-.447265625c-.0789794921875-.05322265625-.145263671875-.10693359375-.1944580078125-.1519775390625-.074951171875-1.733154296875-1.5084228515625-3.1197509765625-3.2589111328125-3.1197509765625h-.429931640625c-.1453857421875,0-.28662109375.0301513671875-.4169921875.0897216796875-.0130615234375.0067138671875-.064453125.0194091796875-.145751953125.0194091796875-.1435546875,0-.252197265625-.0406494140625-.2802734375-.0577392578125l-.65478515625-.4471435546875c-.079345703125-.0556640625-.1456298828125-.1092529296875-.19482421875-.154296875-.074951171875-1.733154296875-1.508544921875-3.119873046875-3.2584228515625-3.119873046875h-.4300537109375c-.145751953125,0-.286865234375.030029296875-.4173583984375.08984375-.0130615234375.0064697265625-.0645751953125.019287109375-.1456298828125.019287109375-.1431884765625,0-.25244140625-.04052734375-.2802734375-.0576171875l-.65478515625-.447265625c-.0791015625-.0556640625-.145263671875-.109130859375-.194580078125-.154052734375-.064453125-1.2603759765625-.954345703125-2.056640625-1.05908203125-2.146484375-.085693359375-.07275390625-.1605224609375-.1689453125-.2119140625-.245849609375.002197265625-.002197265625.00634765625-.00439453125.00634765625-.00439453125.064453125-.044921875.156005859375-.1156005859375.262939453125-.198974609375.158447265625-.1220703125.56494140625-.4385986328125.76171875-.5220947265625h.2314453125c.1390380859375,0,.4385986328125.1453857421875.526123046875.2545166015625.0966796875.119873046875.97607421875,1.172607421875,2.377197265625,1.172607421875,1.401611328125,0,2.281005859375-1.052734375,2.37744140625-1.172607421875.087646484375-.109130859375.38720703125-.2545166015625.5262451171875-.2545166015625h.31005859375c.1392822265625,0,.43896484375.1453857421875.5264892578125.2545166015625.09619140625.119873046875.9755859375,1.172607421875,2.377197265625,1.172607421875s2.281005859375-1.0526123046875,2.377197265625-1.172607421875c.087890625-.109130859375.387451171875-.25439453125.5264892578125-.2545166015625h.3104248046875c.138916015625.0001220703125.4385986328125.1453857421875.526123046875.2545166015625.0965576171875.1199951171875.97607421875,1.172607421875,2.377197265625,1.172607421875,1.799560546875,0,3.26318359375-1.463623046875,3.26318359375-3.26318359375S174.86962890625.0001220703125,173.070068359375,0c-1.401123046875,0-2.2802734375,1.0523681640625-2.377197265625,1.172607421875-.0875244140625.109130859375-.38720703125.2547607421875-.526123046875.2547607421875h-.3104248046875c-.1390380859375,0-.4385986328125-.1456298828125-.5264892578125-.2547607421875-.0965576171875-.1202392578125-.97607421875-1.172607421875-2.377197265625-1.172607421875-1.401611328125.0001220703125-2.2806396484375,1.052734375-2.377197265625,1.172607421875-.0875244140625.109130859375-.38720703125.2547607421875-.5264892578125.2547607421875h-.31005859375c-.1390380859375,0-.4385986328125-.1456298828125-.5262451171875-.2547607421875-.096435546875-.1199951171875-.975830078125-1.172607421875-2.37744140625-1.172607421875-1.401123046875,0-2.280517578125,1.0526123046875-2.377197265625,1.172607421875-.0875244140625.109130859375-.3870849609375.2547607421875-.526123046875.2547607421875h-.310302734375c-.13916015625,0-.438720703125-.1456298828125-.5262451171875-.2547607421875-.0965576171875-.1197509765625-.9757080078125-1.1724853515625-2.3770751953125-1.172607421875-1.401611328125,0-2.281005859375,1.0528564453125-2.3775634765625,1.172607421875-.0875244140625.109130859375-.38720703125.2547607421875-.5262451171875.2547607421875h-.310302734375c-.13916015625,0-.438720703125-.1456298828125-.5262451171875-.2547607421875-.096923828125-.1201171875-.9759521484375-1.172607421875-2.3770751953125-1.172607421875-1.799560546875.0001220703125-3.263427734375,1.4637451171875-3.263427734375,3.2633056640625s1.4638671875,3.26318359375,3.263427734375,3.26318359375c1.401123046875,0,2.280517578125-1.052734375,2.3770751953125-1.172607421875.0875244140625-.109130859375.3870849609375-.25439453125.5262451171875-.2545166015625h.310302734375c.115478515625.0001220703125.248291015625.0469970703125.31005859375.081298828125.0771484375.109130859375.17138671875.2288818359375.2783203125.361572265625.064208984375.0792236328125.171142578125.2119140625.2568359375.3275146484375-.0491943359375.068359375-.1114501953125.14111328125-.1796875.200927734375-.10693359375.092041015625-1.061279296875.9482421875-1.061279296875,2.289794921875,0,.5263671875.057373046875.868896484375.18603515625,1.1085205078125.0513916015625.0963134765625.049072265625.361572265625,0,.4578857421875l-.27587890625.49853515625c-.0450439453125.0792236328125-.085693359375.147705078125-.1220703125.20751953125-1.593994140625.2119140625-2.828857421875,1.5814208984375-2.828857421875,3.2333984375,0,.526611328125.0577392578125.86865234375.186279296875,1.108642578125.04931640625.09619140625.0469970703125.3614501953125-.002197265625.45751953125l-.2757568359375.4986572265625Z"/>
      <path class="cls-1" d="M187.51318359375,5.51025390625c.13037109375-.119873046875,1.2666015625-1.2198486328125,1.0098876953125-2.7861328125-.2225341796875-1.3524169921875-1.3203125-2.4500732421875-2.6722412109375-2.6727294921875-.1822509765625-.0299072265625-.364013671875-.044921875-.5458984375-.044921875-.95849609375,0-1.865478515625.41943359375-2.486328125,1.1513671875-.6204833984375.7318115234375-.8857421875,1.698974609375-.729736328125,2.655517578125.1800537109375,1.099853515625.941650390625,1.72900390625,1.027099609375,1.79736328125.1072998046875.08349609375.252685546875.38720703125.252685546875.5220947265625v.3916015625c0,.1282958984375-.04931640625.271728515625-.08349609375.3402099609375-.027587890625.021484375-.062255859375.044921875-.09619140625.0706787109375-.3961181640625.291015625-.66552734375.4620361328125-.8045654296875.5113525390625h-.3316650390625c-.1370849609375,0-.4384765625-.1455078125-.52197265625-.25244140625-.068603515625-.085693359375-.69775390625-.847412109375-1.7977294921875-1.027099609375-.181884765625-.030029296875-.3636474609375-.044921875-.545166015625-.044921875-.9588623046875,0-1.8663330078125.41943359375-2.4866943359375,1.151123046875-.6204833984375.73193359375-.8857421875,1.6990966796875-.729736328125,2.6556396484375.222900390625,1.3524169921875,1.3203125,2.4500732421875,2.6727294921875,2.672607421875.1497802734375.0234375.3013916015625.0364990234375.4512939453125.0364990234375,1.3310546875,0,2.236328125-.939453125,2.3345947265625-1.04638671875.11328125-.1220703125.4556884765625-.271728515625.6204833984375-.271728515625h.3916015625c.1304931640625,0,.27392578125.0469970703125.3421630859375.0833740234375.0216064453125.0299072265625.0450439453125.06201171875.07080078125.0985107421875.291015625.395751953125.4642333984375.667724609375.5135498046875.806884765625v.33154296875c0,.164794921875-.14990234375.5072021484375-.271728515625.6182861328125-.13037109375.1199951171875-1.2666015625,1.2196044921875-1.0098876953125,2.7862548828125.1795654296875,1.0997314453125.9410400390625,1.728759765625,1.0267333984375,1.79736328125.10693359375.08349609375.252685546875.38720703125.252685546875.52197265625v.3917236328125c0,.1646728515625-.14990234375.5072021484375-.271728515625.6182861328125-.130859375.119873046875-1.2666015625,1.219970703125-1.0098876953125,2.7862548828125.1937255859375,1.1783447265625,1.0523681640625,2.1632080078125,2.1646728515625,2.54443359375-.686767578125.2857666015625-1.122802734375.7386474609375-1.1890869140625.8109130859375-.1136474609375.1221923828125-.4556884765625.2716064453125-.6204833984375.2716064453125h-.3916015625c-.13720703125,0-.438720703125-.1453857421875-.522216796875-.2523193359375-.0684814453125-.085693359375-.697509765625-.847412109375-1.797119140625-1.02734375-.14990234375-.0234375-.302001953125-.0361328125-.45166015625-.0361328125-1.330810546875,0-2.2359619140625.939453125-2.3343505859375,1.04638671875-.11328125.121826171875-.4556884765625.271728515625-.6204833984375.271728515625h-.395751953125c-.152099609375,0-.472900390625-.147705078125-.5712890625-.26318359375-.092041015625-.10693359375-.947998046875-1.061279296875-2.28955078125-1.061279296875s-2.197509765625.9521484375-2.28955078125,1.061279296875c-.098388671875.115478515625-.4195556640625.26318359375-.5712890625.26318359375h-.395751953125c-.1519775390625,0-.472900390625-.147705078125-.571533203125-.26318359375-.092041015625-.1072998046875-.94775390625-1.061279296875-2.289306640625-1.061279296875s-2.197509765625.9521484375-2.28955078125,1.061279296875c-.098388671875.115478515625-.419189453125.26318359375-.5712890625.26318359375h-.395751953125c-.1519775390625,0-.472900390625-.147705078125-.5712890625-.26318359375-.092041015625-.10693359375-.947998046875-1.061279296875-2.28955078125-1.061279296875s-2.197509765625.9521484375-2.28955078125,1.061279296875c-.098388671875.115478515625-.419189453125.26318359375-.5712890625.26318359375h-.395751953125c-.1519775390625,0-.472900390625-.147705078125-.5711669921875-.26318359375-.0921630859375-.10693359375-.9481201171875-1.061279296875-2.2896728515625-1.061279296875-1.3414306640625,0-2.197509765625.9521484375-2.28955078125,1.061279296875-.098388671875.115478515625-.419189453125.26318359375-.5712890625.26318359375h-.3956298828125c-.152099609375,0-.472900390625-.147705078125-.5712890625-.26318359375-.092041015625-.1072998046875-.9481201171875-1.061279296875-2.28955078125-1.061279296875-1.799560546875,0-3.262939453125,1.46337890625-3.262939453125,3.262939453125,0,1.3419189453125.954345703125,2.1978759765625,1.0635986328125,2.2899169921875.115478515625.098388671875.262939453125.4193115234375.262939453125.5712890625v.395751953125c0,.1519775390625-.1474609375.472900390625-.262939453125.5716552734375-.10693359375.092041015625-1.061279296875.9476318359375-1.061279296875,2.28955078125,0,1.341552734375.954345703125,2.197509765625,1.0634765625,2.28955078125.115478515625.098388671875.2626953125.419189453125.2630615234375.5712890625v.3961181640625c-.0003662109375.1519775390625-.14794921875.4725341796875-.2630615234375.5709228515625-.107421875.092041015625-1.061767578125.9483642578125-1.061767578125,2.2899169921875,0,1.7994384765625,1.4638671875,3.2633056640625,3.263427734375,3.2633056640625,1.341552734375,0,2.197509765625-.9521484375,2.28955078125-1.061279296875.098388671875-.1156005859375.419189453125-.26318359375.5712890625-.26318359375h.395751953125c.1519775390625,0,.472412109375.1475830078125.5712890625.26318359375.0919189453125.10693359375.947998046875,1.061279296875,2.28955078125,1.061279296875,1.3414306640625,0,2.197021484375-.9521484375,2.2890625-1.061279296875.098388671875-.1156005859375.419677734375-.26318359375.5716552734375-.26318359375h.3958740234375c.151611328125,0,.4727783203125.1475830078125.5711669921875.26318359375.092041015625.10693359375.9476318359375,1.061279296875,2.2891845703125,1.061279296875,1.3419189453125,0,2.197998046875-.9521484375,2.2899169921875-1.061279296875.098388671875-.1156005859375.4193115234375-.26318359375.5709228515625-.26318359375h.395751953125c.152099609375,0,.472900390625.1475830078125.5716552734375.26318359375.0916748046875.10693359375.947998046875,1.061279296875,2.28955078125,1.061279296875s2.1971435546875-.9521484375,2.2891845703125-1.061279296875c.098388671875-.1156005859375.419677734375-.26318359375.5712890625-.26318359375h.3961181640625c.1517333984375,0,.472900390625.1475830078125.5712890625.26318359375.092041015625.10693359375.947998046875,1.061279296875,2.2891845703125,1.061279296875l-.00634765625-.008544921875c1.341552734375,0,2.197509765625-.9521484375,2.28955078125-1.061279296875.098388671875-.1156005859375.419189453125-.26318359375.5712890625-.26318359375h.3916015625c.13671875,0,.438720703125.145263671875.5220947265625.2523193359375.0682373046875.085693359375.6976318359375.8472900390625,1.7972412109375,1.0269775390625.14990234375.02392578125.301513671875.03662109375.451416015625.03662109375,1.3306884765625,0,2.23583984375-.939208984375,2.334228515625-1.0465087890625.1136474609375-.121826171875.4560546875-.2716064453125.620849609375-.2716064453125h.3912353515625c.1370849609375,0,.4390869140625.145263671875.5224609375.252685546875.068603515625.085693359375.6976318359375.847412109375,1.7972412109375,1.0269775390625.181884765625.02978515625.36376953125.044677734375.545654296875.044677734375.95849609375,0,1.8658447265625-.4215087890625,2.486328125-1.151123046875.620361328125-.7296142578125.8857421875-1.6988525390625.7296142578125-2.6553955078125-.1795654296875-1.099853515625-.9412841796875-1.728759765625-1.0269775390625-1.7977294921875-.10693359375-.0831298828125-.252685546875-.38720703125-.252685546875-.5220947265625v-.3916015625c0-.164794921875.1497802734375-.5072021484375.2716064453125-.6182861328125.130859375-.1199951171875,1.2669677734375-1.2200927734375,1.01025390625-2.7862548828125-.1800537109375-1.0997314453125-.941650390625-1.7291259765625-1.02734375-1.79736328125-.1070556640625-.08349609375-.2523193359375-.38720703125-.2523193359375-.52197265625v-.3917236328125c0-.1646728515625.14990234375-.5072021484375.271728515625-.6182861328125.13037109375-.119873046875,1.2666015625-1.219970703125,1.009765625-2.7862548828125-.1881103515625-1.1444091796875-1.003173828125-2.106201171875-2.06884765625-2.5101318359375.5126953125-.193115234375.97412109375-.5146484375,1.33740234375-.941650390625.6204833984375-.729736328125.8857421875-1.698974609375.7296142578125-2.655517578125-.1800537109375-1.0997314453125-.9412841796875-1.728759765625-1.0269775390625-1.79736328125-.10693359375-.08349609375-.252685546875-.38720703125-.252685546875-.52197265625v-.3917236328125c0-.1646728515625.14990234375-.5072021484375.271728515625-.6182861328125.1307373046875-.119873046875,1.2666015625-1.219970703125,1.009765625-2.7862548828125-.1795654296875-1.0997314453125-.94091796875-1.7286376953125-1.0269775390625-1.7972412109375-.10693359375-.08349609375-.2523193359375-.3875732421875-.2523193359375-.5224609375v-.3916015625c0-.164794921875.14990234375-.50732421875.271728515625-.6182861328125.130859375-.1199951171875,1.2666015625-1.219970703125,1.0098876953125-2.7862548828125-.1795654296875-1.099853515625-.9412841796875-1.72900390625-1.0269775390625-1.79736328125-.10693359375-.08349609375-.25244140625-.38720703125-.25244140625-.5220947265625v-.3917236328125c0-.1646728515625.1495361328125-.5069580078125.271728515625-.6182861328125ZM183.36865234375,30.9896240234375c0,.1646728515625-.14990234375.5068359375-.2720947265625.6181640625-.1304931640625.1199951171875-1.2662353515625,1.2197265625-1.009521484375,2.786376953125.1795654296875,1.0992431640625.9410400390625,1.728271484375,1.0267333984375,1.7972412109375.10693359375.0833740234375.252685546875.3875732421875.252685546875.5220947265625v.3916015625c0,.128662109375-.04931640625.27197265625-.08349609375.34033203125-.028076171875.021484375-.062255859375.044921875-.0965576171875.07080078125-.3953857421875.2886962890625-.6651611328125.4619140625-.80419921875.51123046875h-.3316650390625c-.13720703125,0-.43896484375-.1453857421875-.5220947265625-.2523193359375-.0684814453125-.085693359375-.6976318359375-.847412109375-1.7972412109375-1.0274658203125-.14990234375-.0234375-.3018798828125-.0361328125-.45166015625-.0361328125l.00439453125.001953125c-1.3306884765625,0-2.23583984375.939453125-2.3345947265625,1.04638671875-.11328125.1221923828125-.4556884765625.271728515625-.6204833984375.271728515625h-.395751953125c-.152099609375,0-.472900390625-.147705078125-.5712890625-.26318359375-.092041015625-.10693359375-.947998046875-1.061279296875-2.28955078125-1.061279296875s-2.1971435546875.9521484375-2.28955078125,1.061279296875c-.098388671875.115478515625-.419189453125.26318359375-.5712890625.26318359375h-.395751953125c-.1519775390625,0-.472900390625-.147705078125-.5712890625-.26318359375-.092041015625-.10693359375-.947998046875-1.061279296875-2.28955078125-1.061279296875s-2.197509765625.952392578125-2.28955078125,1.061279296875c-.098388671875.115478515625-.419189453125.26318359375-.57080078125.26318359375h-.396240234375c-.151611328125,0-.472900390625-.147705078125-.5712890625-.26318359375-.092041015625-.10693359375-.947998046875-1.061279296875-2.28955078125-1.061279296875s-2.197509765625.952392578125-2.2890625,1.061279296875c-.098876953125.115478515625-.419677734375.26318359375-.57177734375.26318359375h-.395751953125c-.1519775390625,0-.472900390625-.147705078125-.5712890625-.26318359375-.09228515625-.10693359375-.947998046875-1.061279296875-2.28955078125-1.061279296875-1.341064453125,0-2.197021484375.9521484375-2.2890625,1.061279296875-.098388671875.115478515625-.419677734375.26318359375-.5712890625.26318359375h-.396240234375c-.128173828125,0-.2716064453125-.048828125-.340087890625-.083251953125-.021240234375-.02783203125-.0447998046875-.0599365234375-.070556640625-.096435546875-.291015625-.395751953125-.4620361328125-.66552734375-.51123046875-.8045654296875v-.3358154296875c0-.1519775390625.1475830078125-.472900390625.26318359375-.5712890625.10693359375-.092041015625,1.061279296875-.9482421875,1.061279296875-2.289794921875s-.954345703125-2.197509765625-1.0635986328125-2.28955078125c-.1156005859375-.098388671875-.2630615234375-.419677734375-.2630615234375-.5712890625v-.395751953125c0-.128662109375.0491943359375-.2720947265625.08349609375-.34033203125.027587890625-.021484375.061767578125-.0450439453125.0960693359375-.07080078125.3958740234375-.288818359375.6656494140625-.4620361328125.8045654296875-.51123046875h.336181640625c.151611328125,0,.472900390625.1475830078125.5712890625.2630615234375.092041015625.1070556640625.947509765625,1.0614013671875,2.2890625,1.0614013671875s2.197509765625-.9521484375,2.28955078125-1.0614013671875c.098388671875-.115478515625.4193115234375-.2630615234375.5712890625-.2630615234375h.395751953125c.152099609375,0,.472900390625.1475830078125.57177734375.2630615234375.091552734375.1070556640625.947509765625,1.0614013671875,2.2890625,1.0614013671875s2.197509765625-.9521484375,2.28955078125-1.0614013671875c.098388671875-.115478515625.419677734375-.2630615234375.5712890625-.2630615234375h.396240234375c.151611328125,0,.472412109375.1475830078125.57080078125.2630615234375.092041015625.1070556640625.947998046875,1.0614013671875,2.28955078125,1.0614013671875s2.197509765625-.9521484375,2.28955078125-1.0614013671875c.098388671875-.115478515625.4193115234375-.2630615234375.5712890625-.2630615234375h.395751953125c.152099609375,0,.472900390625.1475830078125.5712890625.2630615234375.092041015625.1070556640625.947998046875,1.0614013671875,2.28955078125,1.0614013671875s2.197509765625-.9521484375,2.28955078125-1.0614013671875c.098388671875-.115478515625.419189453125-.2630615234375.5712890625-.2630615234375h.3916015625c.1368408203125,0,.438720703125.145263671875.522216796875.252197265625.068115234375.0858154296875.697509765625.847412109375,1.7972412109375,1.027099609375.1497802734375.02392578125.3013916015625.0364990234375.4512939453125.0364990234375,1.3306884765625,0,2.23583984375-.9390869140625,2.334228515625-1.04638671875.1136474609375-.121826171875.4560546875-.2716064453125.620849609375-.2716064453125h.391357421875c.13037109375,0,.2738037109375.046875.3424072265625.08349609375.021240234375.02978515625.0450439453125.061767578125.0704345703125.098388671875.291015625.395751953125.464599609375.6673583984375.513916015625.806640625v.331787109375Z"/>
      <path class="cls-1" d="M233.5838623046875,26.3299560546875c-.1187744140625-.7147216796875-.3905029296875-1.376220703125-.7791748046875-1.9515380859375.705810546875-1.0465087890625.988525390625-2.3260498046875.7791748046875-3.5904541015625-.1187744140625-.710693359375-.3863525390625-1.376220703125-.7791748046875-1.9560546875.688720703125-1.027099609375.99267578125-2.30224609375.7791748046875-3.5860595703125-.1187744140625-.7103271484375-.3863525390625-1.3760986328125-.7791748046875-1.9559326171875.688720703125-1.027099609375.99267578125-2.30224609375.7791748046875-3.5860595703125-.1187744140625-.7103271484375-.3863525390625-1.3759765625-.7791748046875-1.9559326171875.688720703125-1.0269775390625.99267578125-2.30224609375.7791748046875-3.583984375-.3472900390625-2.10546875-2.0093994140625-3.753173828125-4.133056640625-4.09765625-.2738037109375-.044921875-.5545654296875-.0662841796875-.8306884765625-.0662841796875-1.478271484375,0-2.876708984375.641845703125-3.835205078125,1.7589111328125-.90625,1.05908203125-1.322998046875,2.437255859375-1.160888671875,3.8173828125-.198486328125-.0235595703125-.397216796875-.0343017578125-.593505859375-.0343017578125-.196533203125,0-.3995361328125.0128173828125-.595947265625.036376953125.02392578125-.1947021484375.036865234375-.3895263671875.036865234375-.590576171875,0-2.7496337890625-2.257568359375-4.98779296875-5.03076171875-4.98779296875-1.02294921875,0-1.9876708984375.299560546875-2.794921875.83447265625-.80712890625-.5328369140625-1.7696533203125-.83447265625-2.7947998046875-.83447265625s-1.9876708984375.299560546875-2.7947998046875.83447265625c-.8072509765625-.5328369140625-1.769775390625-.83447265625-2.794921875-.83447265625-1.0247802734375,0-1.9873046875.299560546875-2.79443359375.83447265625-.8072509765625-.5328369140625-1.7701416015625-.83447265625-2.79541015625-.83447265625-1.024658203125,0-1.9873046875.299560546875-2.79443359375.83447265625-.80712890625-.5328369140625-1.769775390625-.83447265625-2.794921875-.83447265625-2.773193359375,0-5.03076171875,2.2381591796875-5.03076171875,4.98779296875s2.257568359375,4.9876708984375,5.03076171875,4.9876708984375c.18115234375,0,.3603515625-.008544921875.537353515625-.0277099609375.004150390625.0577392578125.0086669921875.115478515625.014892578125.1732177734375-1.6593017578125.815185546875-2.802978515625,2.514404296875-2.802978515625,4.472412109375,0,.17333984375.008544921875.34423828125.025634765625.515380859375-1.659423828125.8153076171875-2.8033447265625,2.51416015625-2.8033447265625,4.47216796875,0,1.512939453125.6842041015625,2.87158203125,1.7611083984375,3.7872314453125-1.076904296875.9158935546875-1.7611083984375,2.2723388671875-1.7611083984375,3.78759765625,0,1.00537109375.3062744140625,1.966064453125.8499755859375,2.7706298828125-.543701171875.8045654296875-.8499755859375,1.765625-.8499755859375,2.771484375,0,1.00537109375.3062744140625,1.966064453125.8499755859375,2.7705078125-.543701171875.8046875-.8499755859375,1.765625-.8499755859375,2.77099609375,0,2.7498779296875,2.2574462890625,4.988037109375,5.03076171875,4.988037109375,1.0142822265625,0,1.9832763671875-.3037109375,2.7945556640625-.843017578125.8115234375.539306640625,1.78076171875.843017578125,2.795166015625.843017578125,1.013916015625,0,1.983154296875-.3037109375,2.79443359375-.843017578125.811767578125.539306640625,1.780517578125.843017578125,2.794921875.843017578125s1.983642578125-.3037109375,2.794921875-.843017578125c.8115234375.539306640625,1.780517578125.843017578125,2.794921875.843017578125,1.0142822265625,0,1.983154296875-.3037109375,2.7947998046875-.843017578125.811279296875.539306640625,1.780517578125.843017578125,2.7947998046875.843017578125,1.014404296875,0,1.97705078125-.30419921875,2.7882080078125-.8388671875.5850830078125.389404296875,1.2540283203125.65478515625,1.9705810546875.7724609375.27392578125.045166015625.554443359375.06640625.828857421875.06640625,1.011962890625,0,1.976806640625-.30419921875,2.7884521484375-.8388671875.584716796875.389404296875,1.2535400390625.65478515625,1.97021484375.7724609375.2742919921875.045166015625.55224609375.06640625.8287353515625.06640625,1.478271484375,0,2.876953125-.6417236328125,3.8349609375-1.759033203125.95849609375-1.11669921875,1.368408203125-2.59326171875,1.1287841796875-4.050537109375-.1185302734375-.7103271484375-.386474609375-1.3759765625-.7791748046875-1.955810546875l.002197265625-.00634765625c.688720703125-1.02685546875.99267578125-2.302490234375.7791748046875-3.5863037109375-.1187744140625-.7103271484375-.3863525390625-1.3758544921875-.7791748046875-1.9556884765625.688720703125-1.0269775390625.99267578125-2.30224609375.7791748046875-3.583740234375ZM200.09130859375,19.06103515625c.990478515625-.48779296875,1.7998046875-1.2904052734375,2.287353515625-2.2723388671875.8677978515625.703857421875,1.9749755859375,1.1253662109375,3.18115234375,1.1253662109375.0582275390625,0,.11669921875,0,.1729736328125-.0018310546875.6905517578125,1.936279296875,2.55712890625,3.326904296875,4.7435302734375,3.326904296875.05810546875,0,.1165771484375,0,.1728515625-.002197265625.123046875.346923828125.28466796875.674072265625.4788818359375.9801025390625-.7486572265625.1092529296875-1.4544677734375.3812255859375-2.0697021484375.7896728515625-.811279296875-.539306640625-1.780517578125-.84326171875-2.794921875-.84326171875s-1.983154296875.303955078125-2.794921875.84326171875c-.811279296875-.539306640625-1.780029296875-.843017578125-2.79443359375-.84326171875-.489990234375,0-.967041015625.072998046875-1.424560546875.20556640625.5458984375-.798095703125.8656005859375-1.7587890625.8656005859375-2.7926025390625h.0018310546875c0-.1732177734375-.008544921875-.3443603515625-.025634765625-.515380859375ZM223.6259765625,33.28173828125c-.1964111328125-.0235595703125-.39697265625-.0343017578125-.59326171875-.0343017578125-1.014404296875,0-1.983642578125.3040771484375-2.794921875.84326171875-.8115234375-.5391845703125-1.780517578125-.84326171875-2.794921875-.84326171875-1.0142822265625,0-1.9835205078125.3040771484375-2.7947998046875.84326171875-.8116455078125-.5391845703125-1.780517578125-.84326171875-2.7947998046875-.84326171875-1.014404296875,0-1.9833984375.3040771484375-2.794921875.84326171875-.811279296875-.5391845703125-1.780517578125-.84326171875-2.794921875-.84326171875s-1.983154296875.3040771484375-2.794921875.84326171875c-.811279296875-.5391845703125-1.780029296875-.84326171875-2.79443359375-.84326171875-.200927734375,0-.3994140625.0130615234375-.5936279296875.0343017578125.0235595703125-.1944580078125.03466796875-.3917236328125.03466796875-.5885009765625,0-.1966552734375-.0130615234375-.395751953125-.03466796875-.58837890625.1964111328125.0234375.39501953125.0343017578125.5936279296875.0343017578125,1.014404296875,0,1.983154296875-.3040771484375,2.79443359375-.84326171875.811767578125.5391845703125,1.780517578125.84326171875,2.794921875.84326171875s1.983642578125-.3040771484375,2.794921875-.84326171875c.8115234375.5391845703125,1.780517578125.84326171875,2.794921875.84326171875,1.0142822265625,0,1.983154296875-.3040771484375,2.7947998046875-.84326171875.811279296875.5391845703125,1.780517578125.84326171875,2.7947998046875.84326171875,1.014404296875,0,1.97705078125-.3037109375,2.7882080078125-.8387451171875.5850830078125.389404296875,1.2540283203125.6546630859375,1.9705810546875.7724609375.27392578125.044677734375.554443359375.0662841796875.828857421875.0662841796875.200439453125,0,.3990478515625-.0130615234375.59765625-.0364990234375-.04736328125.38525390625-.049560546875.781005859375-.002197265625,1.1790771484375ZM223.6259765625,22.1998291015625c-.1982421875-.0234375-.39697265625-.038330078125-.59326171875-.038330078125-1.014404296875,0-1.983642578125.3037109375-2.794921875.843017578125-.2568359375-.171142578125-.533203125-.3145751953125-.81787109375-.4365234375.651611328125-.8577880859375,1.005615234375-1.8978271484375,1.005615234375-2.9915771484375,0-2.7493896484375-2.2574462890625-4.9852294921875-5.03076171875-4.987548828125-.05810546875,0-.1165771484375,0-.17236328125.0023193359375-.69091796875-1.936767578125-2.5576171875-3.327392578125-4.743896484375-3.3275146484375-.05810546875,0-.11669921875,0-.172607421875.0020751953125-.28271484375-.791748046875-.761962890625-1.4913330078125-1.379150390625-2.04345703125.045166015625-.0277099609375.090576171875-.0556640625.1337890625-.085693359375.80712890625.5328369140625,1.769775390625.834716796875,2.794921875.834716796875s1.9873046875-.2996826171875,2.79443359375-.834716796875c.80712890625.532958984375,1.7701416015625.834716796875,2.7952880859375.834716796875.200439453125,0,.3990478515625-.0126953125.595458984375-.036376953125-.055908203125.46435546875-.0472412109375.9393310546875.0301513671875,1.412109375l-.002197265625.0023193359375c.34765625,2.1055908203125,2.00927734375,3.7530517578125,4.133056640625,4.0972900390625.27392578125.045166015625.552734375.0667724609375.828857421875.0667724609375.200439453125,0,.3990478515625-.0130615234375.59765625-.0364990234375-.0562744140625.4620361328125-.0477294921875.9349365234375.0302734375,1.411865234375.118408203125.710693359375.3863525390625,1.376220703125.779052734375,1.9560546875-.647216796875.967041015625-.953857421875,2.1502685546875-.8115234375,3.35498046875Z"/>
    </g>
  </g>
</svg>