<?xml version="1.0" encoding="UTF-8"?>
<svg id="_레이어_2" data-name="레이어 2" xmlns="http://www.w3.org/2000/svg" viewBox="0 0 1211.210948637663023 861.757897521649284">
  <defs>
    <style>
      .cls-1 {
        fill: #f70;
      }
    </style>
  </defs>
  <g id="Layer_1" data-name="Layer 1">
    <path class="cls-1" d="M266.33068880097926,128.924409865443522c37.489819874452223,0,67.854952560761376,30.379679837249569,67.854952560761376,67.854952560759557,0,37.475272723517264-30.365132686309153,67.854952560756828-67.854952560761376,67.854952560756828-37.476359877138748,0-67.854952560748643-30.379679837239564-67.854952560748643-67.854952560756828,0-37.475272723509988,30.378592683609895-67.854952560759557,67.854952560748643-67.854952560759557Z"/>
    <path class="cls-1" d="M266.33068880097926,128.924409865443522c37.489819874452223,0,67.854952560761376,30.379679837249569,67.854952560761376,67.854952560759557,0,37.475272723517264-30.365132686309153,67.854952560756828-67.854952560761376,67.854952560756828-37.476359877138748,0-67.854952560748643-30.379679837239564-67.854952560748643-67.854952560756828,0-37.475272723509988,30.378592683609895-67.854952560759557,67.854952560748643-67.854952560759557Z"/>
    <path class="cls-1" d="M815.887883325969597,0c108.533963488640438.000870090480021,196.847283643372066,88.247398523706579,196.847283643372066,196.779362426203079,0,108.5319703736468-88.279359546151682,196.779362426206717-196.847283643372066,196.779362426206717-75.250910463768378,0-142.834592309638538-41.981861013040543-176.422876657969027-109.618321579109761-7.701603380250162-15.511637392620287-22.358090905720019-26.412889208820161-39.457671480229692-29.341836391300603-3.019595087400376-.542489660560022-6.072736629630526-.758626155719867-9.126292325619943-.758626155719867-13.978103661360365,0-27.617015390680535,5.424327144130075-37.795258274791195,15.350143309590749-18.99930388625944,18.440273959779006-44.003837338748781,28.636170148049132-70.365552673209095,28.636170148049132-55.743025756321003-.000362384539585-101.036123759869952-45.290483657920049-101.036123759869952-100.993970672165233,0-55.702464572135796,45.293098003548948-100.989874432600118,101.036123759869952-100.990553903617183,26.361715334460314,0,51.366248786949654,10.141260247291939,70.365552673209095,28.636480763378131,10.178242884110659,9.925492607824708,23.81715461343083,15.349806809654183,37.795258274791195,15.350156251895896,3.053555695989417,0,6.106697238219567-.270740080381074,9.126292325619943-.758962655654614,17.099580574509673-2.928960124792866,31.75606809997953-13.832916882758582,39.457671480229692-29.345227275243815C673.053291016331059,41.980162335488785,740.704479925600026,0,815.887883325969597,0Z"/>
    <path class="cls-1" d="M815.887883325969597,0c108.533963488640438.000870090480021,196.847283643372066,88.247398523706579,196.847283643372066,196.779362426203079,0,108.5319703736468-88.279359546151682,196.779362426206717-196.847283643372066,196.779362426206717-75.250910463768378,0-142.834592309638538-41.981861013040543-176.422876657969027-109.618321579109761-7.701603380250162-15.511637392620287-22.358090905720019-26.412889208820161-39.457671480229692-29.341836391300603-3.019595087400376-.542489660560022-6.072736629630526-.758626155719867-9.126292325619943-.758626155719867-13.978103661360365,0-27.617015390680535,5.424327144130075-37.795258274791195,15.350143309590749-18.99930388625944,18.440273959779006-44.003837338748781,28.636170148049132-70.365552673209095,28.636170148049132-55.743025756321003-.000362384539585-101.036123759869952-45.290483657920049-101.036123759869952-100.993970672165233,0-55.702464572135796,45.293098003548948-100.989874432600118,101.036123759869952-100.990553903617183,26.361715334460314,0,51.366248786949654,10.141260247291939,70.365552673209095,28.636480763378131,10.178242884110659,9.925492607824708,23.81715461343083,15.349806809654183,37.795258274791195,15.350156251895896,3.053555695989417,0,6.106697238219567-.270740080381074,9.126292325619943-.758962655654614,17.099580574509673-2.928960124792866,31.75606809997953-13.832916882758582,39.457671480229692-29.345227275243815C673.053291016331059,41.980162335488785,740.704479925600026,0,815.887883325969597,0Z"/>
    <path class="cls-1" d="M292.55656170111979,843.962952778740146c-2.408718286698786-14.670258138099598,10.076568135249545-27.179306632209773,24.767223346181709-24.763703039199754,8.888982219308673,1.441928095759067,16.013669407428097,8.610826198109862,17.47252603826928,17.496443418100171,2.442885972159274,14.670206368869913-10.076361058370821,27.179254862989183-24.733055660719401,24.760234501418381-8.888982219310492-1.441928095759067-16.047837092910413-8.610774428878358-17.506693723731587-17.492974880318798ZM351.013744144489465,843.962952778740146c-2.408925363588423-14.670258138099598,10.076568135251364-27.179306632209773,24.73305566072122-24.763703039199754,8.888982219310492,1.441928095759067,16.047630016020776,8.610826198109862,17.506693723729768,17.496443418100171,2.408718286700605,14.670206368869913-10.076775212130087,27.179254862989183-24.76722334617989,24.760234501418381-8.888982219310492-1.441928095759067-16.01366940744083-8.610774428878358-17.472526038271099-17.492974880318798ZM21.432043091230298,818.887133109759816c11.843969319659664,0,21.428522784241068,9.587918463910682,21.428522784241068,21.431991322009708,0,11.847489626639799-9.584553464581404,21.431991322009708-21.428522784241068,21.431991322009708-11.847489626639799,0-21.432043091230298-9.584501695369909-21.432043091230298-21.431991322009708,0-11.844072858099025,9.584553464590499-21.431991322009708,21.432043091230298-21.431991322009708ZM79.878871690531014,818.887133109759816c11.847489626639799,0,21.432043091219384,9.587918463910682,21.432043091219384,21.431991322009708,0,11.847489626639799-9.584553464579585,21.431991322009708-21.432043091219384,21.431991322009708-11.844176396540206,0-21.432043091230298-9.584501695369909-21.432043091230298-21.431991322009708,0-11.844072858099025,9.587866694690092-21.431991322009708,21.432043091230298-21.431991322009708ZM138.329013519931323,818.887133109759816c11.844176396538387,0,21.428729861119791,9.587918463910682,21.428729861119791,21.431991322009708,0,11.847489626639799-9.584553464581404,21.431991322009708-21.428729861119791,21.431991322009708-11.847282549770171,0-21.431836014351575-9.584501695369909-21.431836014351575-21.431991322009708,0-11.844072858099025,9.584553464581404-21.431991322009708,21.431836014351575-21.431991322009708ZM196.776049196099848,818.887133109759816c11.843969319661483,0,21.431836014349756,9.587918463910682,21.431836014349756,21.431991322009708,0,11.847489626639799-9.587866694688273,21.431991322009708-21.431836014349756,21.431991322009708-11.847489626639799,0-21.432043091228479-9.584501695369909-21.432043091228479-21.431991322009708,0-11.844072858099025,9.58455346458868-21.431991322009708,21.432043091228479-21.431991322009708ZM255.222877795400564,818.887133109759816c11.847489626639799,0,21.432043091230298,9.587918463910682,21.432043091230298,21.431991322009708,0,11.847489626639799-9.584553464590499,21.431991322009708-21.432043091230298,21.431991322009708-11.844176396540206,0-21.428729861130705-9.584501695369909-21.428729861130705-21.431991322009708,0-11.844072858099025,9.584553464590499-21.431991322009708,21.428729861130705-21.431991322009708ZM351.013744144489465,785.516072410220659c-2.408925363588423-14.670258138090503,10.076568135251364-27.179306632211592,24.73305566072122-24.763651269971888,8.888982219310492,1.441928095760886,16.047630016020776,8.610774428891091,17.506693723729768,17.492974880331531,2.408718286700605,14.670258138090503-10.076775212130087,27.179306632198859-24.76722334617989,24.76370303918884-8.888982219310492-1.441928095759067-16.01366940744083-8.610826198109862-17.472526038271099-17.493026649548483ZM21.432043091230298,760.440252741249424c11.843969319659664,0,21.428522784241068,9.584553464579585,21.428522784241068,21.431991322000613,0,11.844124627319616-9.584553464581404,21.428626322689524-21.428522784241068,21.428626322689524-11.847489626639799,0-21.432043091230298-9.584501695369909-21.432043091230298-21.428626322689524,0-11.847437857421028,9.584553464590499-21.431991322000613,21.432043091230298-21.431991322000613ZM292.55656170111979,727.065827042380079c-2.408718286698786-14.670258138090503,10.076568135249545-27.179306632210682,24.767223346181709-24.760286270639881,8.888982219308673,1.441928095759067,16.013669407428097,8.610774428879267,17.47252603826928,17.493026649539388,2.442885972159274,14.670206368869913-10.076361058370821,27.179306632209773-24.733055660719401,24.763651269970069-8.888982219310492-1.441928095760886-16.047837092910413-8.610774428880177-17.506693723731587-17.496391648869576ZM351.013744144489465,727.065827042380079c-2.408925363588423-14.670258138090503,10.076568135251364-27.179306632210682,24.73305566072122-24.760286270639881,8.888982219310492,1.441928095759067,16.047630016020776,8.610774428879267,17.506693723729768,17.493026649539388,2.408718286700605,14.670206368869913-10.076775212130087,27.179306632209773-24.76722334617989,24.763651269970069-8.888982219310492-1.441928095760886-16.01366940744083-8.610774428880177-17.472526038271099-17.496391648869576ZM21.432043091230298,701.993424141949617c11.843969319659664,0,21.428522784241068,9.584501695369909,21.428522784241068,21.428574553459839,0,11.847489626649804-9.584553464581404,21.431991322010617-21.428522784241068,21.431991322010617-11.847489626639799,0-21.432043091230298-9.584501695360814-21.432043091230298-21.431991322010617,0-11.84407285808993,9.584553464590499-21.428574553459839,21.432043091230298-21.428574553459839ZM79.878871690531014,701.993424141949617c11.847489626639799,0,21.432043091219384,9.584501695369909,21.432043091219384,21.428574553459839,0,11.847489626649804-9.584553464579585,21.431991322010617-21.432043091219384,21.431991322010617-11.844176396540206,0-21.432043091230298-9.584501695360814-21.432043091230298-21.431991322010617,0-11.84407285808993,9.587866694690092-21.428574553459839,21.432043091230298-21.428574553459839ZM138.329013519931323,701.993424141949617c11.844176396538387,0,21.428729861119791,9.584501695369909,21.428729861119791,21.428574553459839,0,11.847489626649804-9.584553464581404,21.431991322010617-21.428729861119791,21.431991322010617-11.847282549770171,0-21.431836014351575-9.584501695360814-21.431836014351575-21.431991322010617,0-11.84407285808993,9.584553464581404-21.428574553459839,21.431836014351575-21.428574553459839ZM196.776049196099848,701.993424141949617c11.843969319661483,0,21.431836014349756,9.584501695369909,21.431836014349756,21.428574553459839,0,11.847489626649804-9.587866694688273,21.431991322010617-21.431836014349756,21.431991322010617-11.847489626639799,0-21.432043091228479-9.584501695360814-21.432043091228479-21.431991322010617,0-11.84407285808993,9.58455346458868-21.428574553459839,21.432043091228479-21.428574553459839ZM255.222877795400564,701.993424141949617c11.847489626639799,0,21.432043091230298,9.584501695369909,21.432043091230298,21.428574553459839,0,11.847489626649804-9.584553464590499,21.431991322010617-21.432043091230298,21.431991322010617-11.844176396540206,0-21.428729861130705-9.584501695360814-21.428729861130705-21.431991322010617,0-11.84407285808993,9.584553464590499-21.428574553459839,21.428729861130705-21.428574553459839ZM351.013744144489465,668.618946673869686c-2.408925363588423-14.670258138089594,10.076568135251364-27.179306632209773,24.73305566072122-24.763651269980073,8.888982219310492,1.441928095759977,16.047630016020776,8.610774428890181,17.506693723729768,17.496391648870485,2.408718286700605,14.670258138099598-10.076775212130087,27.175889863669909-24.76722334617989,24.760286270649885-8.888982219310492-1.441928095759977-16.01366940744083-8.610826198100767-17.472526038271099-17.493026649540298ZM21.432043091230298,622.111187452110244c11.843969319659664,0,21.428522784241068,9.587866694679178,21.428522784241068,21.431991321999703,0,11.847437857430123-9.584553464581404,21.431939552790027-21.428522784241068,21.431939552790027-11.847489626639799,0-21.432043091230298-9.584501695359904-21.432043091230298-21.431939552790027,0-11.844124627320525,9.584553464590499-21.431991321999703,21.432043091230298-21.431991321999703ZM233.794147934269859,622.111187452110244c11.823882862139726,0,21.428729861130705,9.587866694679178,21.428729861130705,21.431991321999703,0,11.847437857430123-9.584553464590499,21.431939552790027-21.428729861130705,21.431939552790027-11.826989015360596,0-21.431836014338842-9.584501695359904-21.431836014338842-21.431939552790027,0-11.844124627320525,9.584553464579585-21.431991321999703,21.431836014338842-21.431991321999703ZM182.377165311339922,587.043752938549915c11.827196092241138,0,21.432043091219384,9.584501695359904,21.432043091219384,21.431939552780022,0,11.844124627319616-9.584553464579585,21.428626322689524-21.432043091219384,21.428626322689524-11.823675785259184,0-21.428522784250163-9.584501695369909-21.428522784250163-21.428626322689524,0-11.847437857420118,9.604846998990979-21.431939552780022,21.428522784250163-21.431939552780022ZM351.013744144489465,610.168701306030016c-2.408925363588423-14.670258138100507,10.076568135251364-27.175889863669909,24.73305566072122-24.760286270650795,8.888982219310492,1.441928095760886,16.047630016020776,8.610826198110772,17.506693723729768,17.493026649540298,2.408718286700605,14.670206368879917-10.076775212130087,27.179306632219777-24.76722334617989,24.763651269980073-8.888982219310492-1.441928095759977-16.01366940744083-8.610774428889272-17.472526038271099-17.496391648869576ZM50.48078804124998,569.509983912549615c11.843969319661483,0,21.431836014349756,9.584553464580495,21.431836014349756,21.431991322010617,0,11.844124627319616-9.587866694688273,21.42862632267952-21.431836014349756,21.42862632267952-11.847489626639799,0-21.432043091219384-9.584501695359904-21.432043091219384-21.42862632267952,0-11.847437857430123,9.584553464579585-21.431991322010617,21.432043091219384-21.431991322010617ZM130.942995307230376,551.976266655769905c11.827196092241138,0,21.432043091230298,9.58455346458959,21.432043091230298,21.428626322690434,0,11.847489626639799-9.584553464590499,21.431991321999703-21.432043091230298,21.431991321999703-11.826989015369691,0-21.431836014349756-9.584501695359904-21.431836014349756-21.431991321999703,0-11.844072858100844,9.587866694690092-21.428626322690434,21.431836014349756-21.428626322690434ZM292.55656170111979,551.721820937519624c-2.408718286698786-14.670206368879917,10.076568135249545-27.179306632219777,24.767223346181709-24.763651269980073,8.888982219308673,1.441928095759977,16.013669407428097,8.610774428890181,17.47252603826928,17.496391648870485,2.442885972159274,14.670258138089594-10.076361058370821,27.179306632209773-24.733055660719401,24.760286270649885-8.888982219310492-1.441928095759977-16.047837092910413-8.610826198109862-17.506693723731587-17.493026649540298ZM351.013744144489465,551.721820937519624c-2.408925363588423-14.670206368879917,10.076568135251364-27.179306632219777,24.73305566072122-24.763651269980073,8.888982219310492,1.441928095759977,16.047630016020776,8.610774428890181,17.506693723729768,17.496391648870485,2.408718286700605,14.670258138089594-10.076775212130087,27.179306632209773-24.76722334617989,24.760286270649885-8.888982219310492-1.441928095759977-16.01366940744083-8.610826198109862-17.472526038271099-17.493026649540298ZM79.529325914390938,516.905467142889393c11.827196092259328,0,21.432043091230298,9.584501695360814,21.432043091230298,21.431991322010617,0,11.844072858099935-9.587866694691911,21.431991322009708-21.432043091230298,21.431991322009708-11.826989015360596,0-21.431836014340661-9.587918463909773-21.431836014340661-21.431991322009708,0-11.847489626649804,9.604846998980065-21.431991322010617,21.431836014340661-21.431991322010617ZM351.013744144489465,493.274992338219818c-2.408925363588423-14.670258138090503,10.076568135251364-27.179306632209773,24.73305566072122-24.76370303918975,8.888982219310492,1.441928095749972,16.047630016020776,8.610826198099858,17.506693723729768,17.493026649539388,2.408718286700605,14.670258138090503-10.076775212130087,27.179306632210682-24.76722334617989,24.763651269970069-8.888982219310492-1.441928095759977-16.01366940744083-8.610774428879267-17.472526038271099-17.492974880319707ZM21.432043091230298,468.199172669239488c11.843969319659664,0,21.428522784241068,9.584501695369909,21.428522784241068,21.431991322010617,0,11.844072858099935-9.584553464581404,21.428574553459839-21.428522784241068,21.428574553459839-11.847489626639799,0-21.432043091230298-9.584501695359904-21.432043091230298-21.428574553459839,0-11.847489626640709,9.584553464590499-21.431991322010617,21.432043091230298-21.431991322010617ZM79.878871690531014,468.199172669239488c11.847489626639799,0,21.432043091219384,9.584501695369909,21.432043091219384,21.431991322010617,0,11.844072858099935-9.584553464579585,21.428574553459839-21.432043091219384,21.428574553459839-11.844176396540206,0-21.432043091230298-9.584501695359904-21.432043091230298-21.428574553459839,0-11.847489626640709,9.587866694690092-21.431991322010617,21.432043091230298-21.431991322010617ZM138.329013519931323,468.199172669239488c11.844176396538387,0,21.428729861119791,9.584501695369909,21.428729861119791,21.431991322010617,0,11.844072858099935-9.584553464581404,21.428574553459839-21.428729861119791,21.428574553459839-11.847282549770171,0-21.431836014351575-9.584501695359904-21.431836014351575-21.428574553459839,0-11.847489626640709,9.584553464581404-21.431991322010617,21.431836014351575-21.431991322010617ZM196.776049196099848,468.199172669239488c11.843969319661483,0,21.431836014349756,9.584501695369909,21.431836014349756,21.431991322010617,0,11.844072858099935-9.587866694688273,21.428574553459839-21.431836014349756,21.428574553459839-11.847489626639799,0-21.432043091228479-9.584501695359904-21.432043091228479-21.428574553459839,0-11.847489626640709,9.58455346458868-21.431991322010617,21.432043091228479-21.431991322010617ZM255.222877795400564,468.199172669239488c11.847489626639799,0,21.432043091230298,9.584501695369909,21.432043091230298,21.431991322010617,0,11.844072858099935-9.584553464590499,21.428574553459839-21.432043091230298,21.428574553459839-11.844176396540206,0-21.428729861130705-9.584501695359904-21.428729861130705-21.428574553459839,0-11.847489626640709,9.584553464590499-21.431991322010617,21.428729861130705-21.431991322010617Z"/>
    <path class="cls-1" d="M771.035859080220689,468.256843580769782c1.662413205438497,0,3.324826410869719.139103895209701,4.987239616310035.410529917759959,12.315690455930962,2.025470748089901,22.290583842319393,12.020502361209765,24.326149588390763,24.332776048589949,2.340797069538894,14.259728220339639-8.006834703721324,24.275105137080573-9.19462769654092,25.36759099514984-1.119457621900438,1.011052874380766-2.476639503869592,4.128957711320254-2.476639503869592,5.628556718610525v3.565760362609581c0,1.228172984730008,1.323221273389208,3.993270584660422,2.307250614718214,4.753242740110181.780265689851149.624285028789927,7.701603380250162,6.351255035369832,9.330055977101438,16.363215183569991,2.340797069549808,14.259728220329634-8.00683470371041,24.275156906290249-9.19421354277074,25.367590995139835-1.085911167079757,1.011052874379857-2.477053657628858,4.128957711330258-2.477053657628858,5.628556718609616v3.565812131830171c0,1.228172984740013,1.323221273378294,3.99663558399061,2.307250614718214,4.756607739440369.780265689851149.624285028779923,7.735563988830108,6.351255035369832,9.364016585681384,16.363215183559987,2.340797069549808,14.259728220339639-8.00683470371041,24.275105137079663-9.19421354277074,25.36759099514984-1.119871775659703,1.011052874379857-2.477053657628858,4.128957711330258-2.477053657628858,5.628556718609616v3.565812131830171c0,1.228172984730918,1.323221273378294,3.993218815439832,2.307250614718214,4.7531909708905.780265689851149.624285028789927,7.701603380250162,6.351255035369832,9.330055977101438,16.363266952789672,1.425103099129046,8.709135947639879-.984029341329006,17.533717256780619-6.649652821739437,24.176691849090275-3.291279956061771,3.888075528810077-7.498253882531571,6.816039096120221-12.146301566790498,8.573500590199728,9.669247909159822,3.677737186339982,17.099580574509673,12.434397278309916,18.829914997109881,22.853522344930752,2.340797069549808,14.259728220339639-8.00683470371041,24.275105137079663-9.19421354277074,25.36759099514893-1.119871775659703,1.011001105160176-2.477053657628858,4.128957711320254-2.477053657628858,5.628556718609616v3.5657603626114c0,1.228172984729099,1.323221273378294,3.993270584660422,2.307250614718214,4.753242740109272.746305081271203.620868260240968,7.701603380250162,6.351255035380746,9.330055977101438,16.363215183569991,2.340797069540713,14.259728220329634-8.006834703719505,24.275105137070568-9.194213542781654,25.367590995139835-1.119871775659703,1.011052874380766-2.477053657617944,4.128957711331168-2.477053657617944,5.628556718609616v3.565812131830171c0,1.228172984740013,1.323221273378294,3.996635583989701,2.307250614718214,4.753242740111091.780265689851149.627650028109201,7.701603380250162,6.35456826547852,9.364016585681384,16.366580182890175,1.425103099129046,8.709187716869565-1.017989949908952,17.53371725677971-6.649652821739437,24.176743618319961-5.666037634189706,6.642974592319661-13.910596597970653,10.48016097747859-22.629775774370501,10.48016097747859-1.662413205440316,0-3.324826410880632-.135687126659832-4.98723961631913-.407113149209181-10.008853994972014-1.635286133949194-15.742398692542338-8.570083821659864-16.353275493251203-9.350401280729784-.780265689840235-.977092265789906-3.528175908601042-2.300261769960343-4.749515356239499-2.300261769960343h-3.562550670940254c-1.526570771111437,0-4.614087075678981,1.363860111399845-5.666037634180611,2.473274504540314-.882147515590987.977144035019592-9.126292325619943,9.526830783830519-21.238633283819581,9.526830783830519-1.356767728209888,0-2.747910218749894-.11534182304058-4.105092100719048-.332461933390732-10.042400449790875-1.635337903169784-15.742398692551433-8.570083821659864-16.386821948071884-9.350401280720689-.746719235030469-.973727266478818-3.494629453789457-2.296896770649255-4.749929510009679-2.296896770649255h-3.562550670940254c-1.390728336788015,0-4.308855752220552,1.343514807789688-5.19058911403954,2.395258289399862-.848186907011041.994072570090793-8.651672113008317,9.66256967973095-20.865480743190346,9.66256967973095l.067921217170806.078016215138632c-12.214222783961304,0-19.98333322759936-8.688842413248494-20.8315201346104-9.662569679729131-.916108124170933-1.051743481610174-3.833821385838746-2.395258289399862-5.224963876380571-2.395258289399862h-3.596511279529295c-1.39072833677892,0-4.308441598450372,1.343514807789688-5.19058911403954,2.395258289399862-.848186907009222.994124339320479-8.617711504419276,9.662569679729131-20.831520134601305,9.662569679729131-12.213808630189305,0-20.017293836179306-8.688842413248494-20.865480743188527-9.662569679729131-.882147515590987-1.051743481610174-3.799860777249705-2.395258289399862-5.191003267800625-2.395258289399862h-3.596097125760934c-1.3911424905491,0-4.308855752209638,1.343514807789688-5.224963876378752,2.395258289399862-.814226298429276.994124339320479-8.617711504419276,9.662569679729131-20.8315201346104,9.662569679729131-12.21380863018021,0-20.017293836179306-8.688842413248494-20.8315201346104-9.662569679729131-.916108124169114-1.051743481610174-3.833821385829651-2.395258289399862-5.224549722610391-2.395258289399862h-3.596511279529295c-1.3911424905491,0-4.308855752209638,1.343514807789688-5.191003267800625,2.395258289399862-.848186907020136.994124339320479-8.651257959238137,9.662569679729131-20.865066589429262,9.662569679729131-12.214222783939476,0-19.983333227590265-8.688842413248494-20.831520134599486-9.662569679729131-.882147515590987-1.051743481610174-3.833821385829651-2.395258289399862-5.19100326780972-2.395258289399862h-3.630471888100146c-1.356767728209888,0-4.274480989870426,1.343514807789688-5.190589114041359,2.395258289399862-.848186907009222.994124339320479-8.617711504419276,9.662569679729131-20.831520134599486,9.662569679729131-16.387236101840244,0-29.720502353909978-13.326691561089319-29.720502353909978-29.710303817499153,0-12.213860399400801,8.685218567810807-20.010408529860797,9.669247909150727-20.848396900450098,1.051950558499811-.895711051340186,2.408718286698786-3.813476082219495,2.408718286698786-5.197733266450086v-3.606450969849902c0-1.384257184239686-1.356767728198975-4.305438983659769-2.408718286698786-5.201098265779365-.984029341339919-.83798837059112-9.669247909150727-8.631171501721838-9.669247909150727-20.845031901131733,0-12.217277167948851,8.685218567810807-20.0070435305297,9.635287300559867-20.845031901129914,1.05195055850163-.899076050649455,2.409132440470785-3.820257850078633,2.409132440470785-5.204515034320139v-3.603085970518805c0-1.384257184230592-1.357181881969154-4.305387214440998-2.409132440470785-5.201098265779365-.98361518756974-.83798837059112-9.669247909148908-8.631119732501247-9.669247909148908-20.848396900451007,0-16.383612256409833,13.333680405849009-29.706938818169874,29.720502353909978-29.706938818169874,12.213808630189305,0,19.98333322759936,8.685477413920125,20.831520134608581,9.662569679720036.882147515590987,1.051743481620178,3.833821385840565,2.395258289399862,5.191003267800625,2.395258289399862h3.630057734349975c1.357181881970973,0,4.274895143629692-1.343514807779684,5.191003267800625-2.395258289399862.848186907000127-.994072570089884,8.61729735066001-9.662569679720036,20.831520134599486-9.662569679720036,12.213808630191124,0,20.016879682409126,8.688842413249404,20.865066589429262,9.662569679720036.882147515590987,1.051743481620178,3.799860777251524,2.395258289399862,5.191003267800625,2.395258289399862h3.5965112795202c1.390728336789834,0,4.308855752209638-1.343514807779684,5.19058911403954-2.395258289399862.848186907011041-.994072570089884,8.651672113001041-9.662569679720036,20.865480743190346-9.662569679720036,12.21380863018021,0,19.983333227590265,8.688842413249404,20.8315201346104,9.662569679720036.916108124160019,1.051743481620178,3.833821385829651,2.395258289399862,5.191003267789711,2.395258289399862h3.630057734349975c1.357181881960059,0,4.308855752209638-1.343514807779684,5.191003267800625-2.395258289399862.848186907009222-.994072570089884,8.617711504419276-9.662569679720036,20.831520134608581-9.662569679720036,12.213808630182029,0,20.01729383617203,8.685477413920125,20.865480743181251,9.662569679720036.882147515589168,1.051743481620178,3.799860777249705,2.395258289399862,5.191003267798806,2.395258289399862h3.596097125760934c1.391142490550919,0,4.308855752209638-1.343514807779684,5.224963876389666-2.395258289399862.814226298431095-.994072570089884,8.617297350649096-9.662569679720036,20.831520134599486-9.662569679720036,12.213808630191124,0,20.016879682421859,8.688842413249404,20.8315201346104,9.662569679720036.915693970409848,1.051743481620178,3.833407232059471,2.395258289399862,5.224549722619486,2.395258289399862h3.596511279531114c1.492610162520577,0,4.614087075669886-1.363860111399845,5.631662871830486-2.473274504539404.916108124169114-.973727266470632,9.160667087959155-9.526830783840524,21.272593892399527-9.526830783840524,1.357181881970973,0,2.748324372520074.115341823049675,4.105506254480133.329096934079644,10.00843984120911,1.638651133270287,15.741984538790348,8.573448820980047,16.352861339490119,9.353766280039963.78026568984933.973727266480637,3.528590062360308,2.296896770650164,4.749929510009679,2.296896770650164h3.562136517179169c1.526984924870703,0,4.648047684260746-1.360495112079661,5.666037634180611-2.473326273759994.610876800699771-.658193868150192,4.580126467100854-4.780369811599485,10.823080293390376-7.382601444160173-10.110735820710033-3.470763843179157-17.947767481520714-12.43781404684978-19.712062512700868-23.165690743930099-2.340797069540713-14.259676451109044,8.00683470371041-24.275105137069659,9.194213542781654-25.367539225929249,1.119871775659703-1.011052874379857,2.477053657617944-4.129009480539935,2.477053657617944-5.628608487820202v-3.565760362609581c0-1.228172984740013-1.323221273378294-3.993270584670427-2.307250614718214-4.753242740120186-.780265689842054-.624233259560242-7.701603380241067-6.351203266150151-9.330055977101438-16.363215183559987-2.34121122329816-14.263093219659822,8.006834703719505-24.275105137080573,9.19421354277074-25.36759099514984,1.119871775670617-1.011001105160176,2.476639503869592-4.128957711320254,2.476639503869592-5.628556718610525v-3.019543318179785c-.474620212609807-1.265498592640142-2.035565746058637-3.742189865730325-4.682008292840692-7.345275836240035-.237310106309451-.332513702630422-.440659604028042-.624285028789927-.644423255518632-.895711051340186-.610876800699771-.332461933399827-1.933683920331532-.759972155449759-3.121476913151128-.759972155449759h-3.562136517179169c-1.493024316288938,0-4.614087075678981,1.363911880619526-5.666037634180611,2.473326273759994-.882147515589168.973727266469723-9.126292325619943,9.526830783839614-21.238633283819581,9.526830783839614-1.357181881969154,0-2.747910218749894-.118758591599544-4.105092100719048-.332513702619508-12.315690455930962-2.025470748090811-22.324130297130978-12.020502361219769-24.326149588390763-24.332776048600863-1.42468894536978-8.70918771685956.984029341339919-17.513371953159549,6.650066975509617-24.17669184909937,5.631662871841399-6.663371665150407,13.910182444211387-10.48021274670009,22.629361620609416-10.48021274670009,1.662413205442135,0,3.290865802289773.135687126669836,4.953693161491174.407113149220095,10.00843984120911,1.635337903169784,15.741984538790348,8.573500590199728,16.352861339490119,9.35040128071978.78026568984933.977144035019592,3.528590062369403,2.300313539190029,4.783890118578711,2.300313539190029h3.01959508741129c1.255300056229316-.447855525670093,3.697978951509867-2.005125444479745,7.294076077279897-4.654881221359574.339606085810374-.234048645420444.644837409279717-.447803756440408.882147515578254-.644578563180403.339191932051108-.624285028779923.780265689851149-1.927109229330199.780265689851149-3.097611302549922v-3.565760362599576c0-1.228172984740013-1.322807119619029-3.993270584670427-2.306836460949853-4.753242740110181-.780265689851149-.620868260250063-7.701603380250162-6.351203266160155-9.364016585690479-16.363215183569991-1.425103099129046-8.709187716870474,1.017989949919865-17.513371953160458,6.649652821750351-24.176743618319961,5.666037634180611-6.663319895939821,13.910182444211387-10.483577746020273,22.629775774370501-10.483577746020273ZM741.417238552050549,738.319575480280037c-1.493024316288938,0-4.614087075678981,1.363860111399845-5.666037634180611,2.473274504540314-.882147515589168.977144035019592-9.126292325619943,9.526882553060204-21.238633283819581,9.526882553060204-1.357181881969154,0-2.747910218749894-.115393592270266-4.105092100719048-.332513702620417-10.008853994972014-1.635286133951013-15.742398692549614-8.570083821659864-16.353275493251203-9.350401280720689-.78026568984933-.973727266478818-3.528175908601042-2.296896770649255-4.783475964819445-2.296896770649255h-3.562550670951168c-1.357181881969154,0-4.274895143629692,1.343514807789688-5.191003267798806,2.395258289399862-.848186907009222.994072570088974-8.61729735066001,9.662569679729131-20.8315201346104,9.662569679729131-12.21380863018021,0-20.016879682409126-8.688842413250313-20.865066589420167-9.662569679729131-.882147515590987-1.051743481610174-3.799860777249705-2.395258289399862-5.191003267800625-2.395258289399862h-3.596511279529295c-1.39072833677892,0-4.308441598439458,1.343514807789688-5.224549722619486,2.395258289399862-.814226298429276.994072570088974-8.617711504419276,9.662569679729131-20.831520134601305,9.662569679729131-12.213808630189305,0-20.017293836179306-8.688842413250313-20.831520134608581-9.662569679729131-.916108124170933-1.051743481610174-3.833821385829651-2.395258289399862-5.224963876380571-2.395258289399862h-3.596097125760934c-1.3911424905491,0-4.308855752209638,1.343514807789688-5.19100326780972,2.395258289399862-.848186906998308.994072570088974-8.617711504408362,9.662569679729131-20.831520134599486,9.662569679729131-12.21380863018021,0-20.017293836179306-8.688842413250313-20.865480743190346-9.662569679729131-.882147515589168-1.051743481610174-3.799860777249705-2.395258289399862-5.190589114030445-2.395258289399862h-3.596511279529295c-1.3911424905491,0-4.308855752209638,1.343514807789688-5.224963876380571,2.395258289399862-.814226298429276.994072570088974-8.617297350658191,9.662569679729131-20.831520134608581,9.662569679729131-12.21380863018021,0-20.016879682410945-8.688842413250313-20.831105980840221-9.662569679729131-.916108124170933-1.051743481610174-3.833821385829651-2.395258289399862-5.224963876389666-2.395258289399862h-3.053555695971227c-1.255300056229316.447855525670093-3.731939560098908,2.025470748099906-7.328450839630023,4.654829452139893-.305231323458429.234100414640125-.610462646929591.447855525670093-.882147515589168.644630332399174-.305231323460248.620868260240968-.746305081260289,1.927109229331109-.746305081260289,3.097611302549922v3.603085970511529c0,1.380840415689818,1.357181881970973,4.305387214448274,2.409132440470785,5.201046496558774.98361518756974.838040139809891,9.669247909148908,8.631171501730933,9.669247909148908,20.845083670350505,0,12.213860399409896-8.685632721579168,20.010408529869892-9.669247909148908,20.848396900459193-1.051950558499811.895711051331091-2.375171831890839,3.816841081541497-2.375171831890839,5.201098265781184v3.05686892608901c.441073757800041,1.265498592640142,2.001605137489605,3.721844562111073,4.648047684260746,7.324930532620783.237724260079631.332513702629512.441073757800041.624285028789018.644837409288812.878730747050213.610462646940505.312116629778757,1.933683920320618.756607156119571,3.087102150801002.756607156119571h3.5965112795202c1.391142490560014,0,4.308855752218733-1.343566577001184,5.224963876389666-2.395310058609539.814226298429276-.994072570099888,8.61729735066001-9.66251791051036,20.831105980840221-9.66251791051036,12.21422278395039,0,20.017293836179306,8.688790644029723,20.831520134608581,9.66251791051036.916108124170933,1.051743481608355,3.83382138583147,2.395310058609539,5.224963876380571,2.395310058609539h3.596511279529295c1.390728336780739,0,4.308441598441277-1.343566577001184,5.190589114030445-2.395310058609539.848186907011041-.99065580155002,8.651672113010136-9.66251791051036,20.865480743190346-9.66251791051036,12.213808630191124,0,19.983333227601179,8.688790644029723,20.831520134599486,9.66251791051036.882147515600082,1.051743481608355,3.799860777260619,2.395310058609539,5.19100326780972,2.395310058609539h3.596097125760934c1.391142490550919,0,4.308855752209638-1.343566577001184,5.224963876380571-2.395310058609539.814226298429276-.99065580155002,8.617711504419276-9.66251791051036,20.831520134608581-9.66251791051036,12.213808630182029,0,20.01729383617203,8.688790644029723,20.831520134601305,9.66251791051036.916108124180028,1.051743481608355,3.833821385840565,2.395310058609539,5.224549722619486,2.395310058609539h3.596511279529295c1.391142490550919,0,4.308855752209638-1.343566577001184,5.191003267800625-2.395310058609539.848186907011041-.994072570099888,8.651257959239956-9.66251791051036,20.865066589420167-9.66251791051036,12.21422278395039,0,19.983333227601179,8.688790644029723,20.8315201346104,9.66251791051036.916108124169114,1.051743481608355,3.833821385829651,2.395310058609539,5.191003267798806,2.395310058609539h3.63047188811106c1.492610162529672,0,4.614087075678981-1.360495112070566,5.631662871830486-2.473326273760904.916108124169114-.973727266469723,9.126706479379209-9.5268307838287,21.272593892399527-9.5268307838287l-.067921217159892-.016980304289973c1.391142490550919,0,2.748324372520074.115341823038762,4.139466863060079.32909693406873,10.00843984120911,1.638702902489968,15.708023930210402,8.573500590200638,16.352861339490119,9.353818049261463.746305081269384.973727266478818,3.494629453780362,2.296896770649255,4.749929510009679,2.296896770649255h3.019595087400376c1.255300056229316-.447855525670093,3.731939560089813-2.025470748090811,7.328036685859843-4.654881221360483.305645477230428-.234100414640125.610876800699771-.447803756438589.882147515578254-.644630332399174.305645477241342-.620868260240968.746719235030469-1.927057460119613.746719235030469-3.09755953333115v-3.565760362598667c0-1.224807985410735-1.323221273378294-3.993270584671336-2.307250614718214-4.753242740120186-.780265689842054-.62765002811102-7.701603380241067-6.354620034690015-9.330055977101438-16.363215183560897-2.34121122329816-14.263144988879503,8.006834703719505-24.275105137068749,9.19421354277074-25.36759099514893,1.085911167090671-1.014417873710045,2.476639503869592-4.128957711320254,2.476639503869592-5.628556718609616v-3.019543318181604c-.474620212609807-1.268915361190011-2.035565746058637-3.742189865728506-4.682008292840692-7.34532760546972-.237310106309451-.332461933399827-.440659604028042-.624233259559333-.644423255518632-.895659282108682-.610876800699771-.332513702620417-1.933683920331532-.759972155450669-3.121476913151128-.759972155450669h-3.562136517179169ZM659.652103547090519,468.199172669239488c16.38682194806097,0,29.720088200139799,13.326691561090229,29.720088200139799,29.710303817500062,0,16.383560487180148-13.333266252078829,29.710303817490058-29.720088200139799,29.710303817490058-12.756764213729184,0-20.763598917450508-9.584553464579585-21.645746433041495-10.676987553430081-.780679843608596-.994072570089884-3.528590062358489-2.317242074259411-4.783890118589625-2.317242074259411h-2.815831435909786c-1.289260664798348,0-4.00362442874939,1.323169504169527-4.817850727169571,2.317242074259411-.848186907009222,1.092434088850496-8.855021610728727,10.676987553430081-21.611785824450635,10.676987553430081-12.79072482230913,0-20.797559526028635-9.584553464579585-21.645746433039676-10.676987553430081-.814226298420181-.994072570089884-3.528590062358489-2.317242074259411-4.817850727160476-2.317242074259411h-2.815831435918881c-1.255300056220221,0-4.003624428740295,1.323169504169527-4.783890118589625,2.317242074259411-.882147515590987,1.092434088850496-8.888982219310492,10.676987553430081-21.645746433030581,10.676987553430081-12.756764213729184,0-20.763598917439595-9.584553464579585-21.645746433028762-10.676987553430081-.814226298431095-.994072570089884-3.528175908601042-2.317242074259411-4.783475964830359-2.317242074259411h-2.103901116990528c-1.797841486000834.759972155449759-5.496234591269967,3.643776577749122-6.954884145219694,4.753242740110181-.950068732759973.759972155449759-1.798255639771014,1.401185719309069-2.375171831890839,1.811715637069938,0,0-.03354645482068.020345303609247-.067507063400626.040690607229408.475034366379987.698936244600191,1.153418230480383,1.574250223100535,1.933683920331532,2.23922585911987.950068732759973.817643066970049,9.058785262208403,8.064557384460386,9.635287300568962,19.542207700580548.441073757800041.407164918429771,1.05195055850163.895711051330181,1.764295031191068,1.401237488529659l5.97126895763904,4.071286799799964c.271270714891216.156084199499674,1.255300056220221.525871740810544,2.544560721029484.525871740810544.746305081260289,0,1.221339447640275-.118758591600454,1.323221273391027-.176429503120744,1.187378839060329-.546217044429795,2.476639503860497-.817643066979144,3.79986077724061-.817643066979144h3.935703211580403c15.911787581699173,0,28.973783118888605,12.624390317168945,29.652581136759181,28.404062848399917.441073757789127.41052991775905,1.051536404729632.89907605065946,1.764295031180154,1.404602487859847l5.971268957649954,4.071286799799964c.271270714889397.156084199499674,1.255300056220221.525923510029315,2.54456072101857.525923510029315.746305081271203,0,1.221339447651189-.115393592269356,1.322807119631761-.176429503119834,1.187792992819595-.542852045099607,2.477053657628858-.817694836199735,3.800274931008971-.817694836199735h3.935289057821137c15.912201735449344,0,28.974197272647871,12.624442086390445,29.652581136750086,28.404114617619598.441073757800041.410529917760869,1.051950558499811.899076050660369,1.764295031178335,1.384257184240596l6.005229566231719,4.071286799799964c.237310106309451.156032430279993,1.255300056218402.529236740129818,2.544560721027665.529236740129818.746305081262108,0,1.221339447642094-.118706822369859,1.323221273381932-.179794502440018,1.187378839069424-.542852045100517,2.476639503869592-.817643066970049,3.799860777260619-.817643066970049h3.901742602998638c16.386821948059151,0,29.720502353909978,13.326691561090229,29.720502353909978,29.713668816820245,0,7.928870257799645-3.087516304569363,15.389487917090264-8.685632721580987,21.001116100629588-5.5981164170189,5.608211414990365-13.061995537198527,8.705770948320605-21.000909023749045,8.70918771686047l-.033960608579946.016928535070292c-15.912201735460258,0-28.974197272660604-12.62439031716076-29.652581136759181-28.404062848400827-.441073757790946-.410529917759959-1.051950558499811-.895659282109591-1.764295031180154-1.401185719299974l-5.971268957649954-4.071286799809968c-.271270714880302-.156084199499674-1.255300056220221-.529288509349499-2.544560721020389-.529288509349499-.746305081269384,0-1.22133944764937.118758591599544-1.323221273389208.176429503119834-1.187378839060329.546217044419791-2.476639503860497.817643066970049-3.799860777251524.817643066970049h-3.935703211578584c-15.911787581691897,0-28.973783118890424-12.62439031715985-29.652581136750086-28.404062848399917-.441073757800041-.410529917759959-1.051536404740546-.895711051330181-1.764295031180154-1.404602487849843l-5.971268957649954-4.071338569020554c-.271270714891216-.156032430279993-1.255300056231135-.525871740809635-2.544560721031303-.525871740809635-.74630508125847,0-1.221339447638456.11875859158954-1.322807119619029.176429503119834-1.187792992830509.546268813640381-2.477053657630677.817643066970049-3.800274931019885.817643066970049h-3.935289057819318c-15.912201735451163,0-28.974197272640595-12.62439031715985-29.652581136750086-28.404062848399917-.441073757790946-.410529917759959-1.051950558490717-.8956592821105-1.764295031171059-1.404602487849843l-6.0052295662299-4.071286799799964c-.237310106309451-.156084199500583-1.255300056231135-.525871740810544-2.544560721029484-.525871740810544-.746305081271203,0-1.221339447651189.118758591600454-1.323221273391027.176429503120744-1.187378839060329.546217044418881-2.476639503869592.81764306696914-3.799860777249705.81764306696914h-.135842434328879c-.305231323471162.48854613290041-.610462646940505,1.014417873710045-.949654578991613,1.618357598880721l-2.510600112449538,4.539487629089308c-.441073757790946.875313978500344-.441073757790946,3.290969340730044,0,4.169648318560576,1.153418230491297,2.181554947589575,1.696373814031176,5.296094785209789,1.696373814031176,10.090079901769968,0,15.040045679399555-11.264154051201331,27.508351797069736-25.751252687521628,29.438826025729213-.339191932060203.546268813640381-.712344472689438,1.16713707388044-1.119457621898619,1.889783621430979l-2.510600112451357,4.539487629079304c-.441073757789127.875313978500344-.475034366369073,3.290969340730044,0,4.166283319230388,1.153418230480383,2.184971716150358,1.696373814020262,5.299511553759658,1.696373814020262,10.093444901110161,0,16.383560487180148-13.333680405849009,29.710303817490058-29.720502353919073,29.710303817490058-16.38682194806097,0-29.686541745320937-13.32674333030991-29.686541745320937-29.710303817490058,0-15.040045679400464,11.229779288840291-27.508403566290326,25.750838533751448-29.438877794949804.305231323469343-.546217044430705.678798017868758-1.167085304660759,1.085911167079757-1.889731852210389l2.510600112449538-4.539539398299894c.475034366369073-.875313978500344.475034366369073-3.290969340740048.033960608579946-4.166283319240392-1.153832384250563-2.184919946919763-1.696373814020262-5.299459784529972-1.696373814020262-10.093393131879566,0-15.040097448620145,11.229779288849386-27.508403566280322,25.750838533749629-29.438877794940709.339191932049289-.542852045099607.712344472680343-1.167137073889535,1.119457621900438-1.886366852879291l2.510600112440443-4.542904397640086c.441073757800041-.87531397849034.475034366379987-3.290969340730044,0-4.166283319230388-1.187378839051235-2.181554947589575-1.696373814011167-5.299459784539977-1.696373814011167-10.093444901099247,0-12.213860399410805,8.685632721580987-20.007043530540614,9.669662062920906-20.845031901130824.610462646938686-.546217044429795,1.187378839060329-1.207827681119852,1.628452596849456-1.832060940679185-.78026568984933-1.051795250840769-1.764295031180154-2.259571162740031-2.341211223299979-2.982269479500246-.983615187578835-1.207775911900171-1.83180209458078-2.296845001420479-2.544560721029484-3.290969340740048-.542541429769699-.312116629780576-1.764295031180154-.739575082609917-2.8158314359207-.739575082609917h-2.815831435909786c-1.255714209990401,0-4.003624428740295,1.323169504169527-4.783890118589625,2.317242074259411-.882147515590987,1.092434088850496-8.888982219310492,10.676987553430081-21.645746433030581,10.676987553430081-16.387236101840244,0-29.720502353909978-13.32674333030991-29.720502353909978-29.710303817490058,0-16.383612256409833,13.333266252069734-29.710303817500062,29.720502353909978-29.710303817500062,12.756764213720089,0,20.763598917439595,9.58113669604063,21.645746433030581,10.676987553440085.78026568984933.990655801540015,3.528175908599223,2.317242074250316,4.783890118589625,2.317242074250316h2.815831435909786c1.289260664811081,0,4.003210274981029-1.326586272710301,4.783890118591444-2.317242074250316.882147515600082-1.092485858070177,8.888982219308673-10.676987553440085,21.645746433028762-10.676987553440085,12.756350059969918,0,20.763598917450508,9.584501695369909,21.645746433039676,10.676987553440085.814226298420181.990655801540015,3.528175908601042,2.317242074250316,4.783475964821264,2.317242074250316h2.850206198259912c1.255300056229316,0,3.969249666399264-1.326586272710301,4.783475964830359-2.317242074250316.882147515589168-1.095850857399455,8.888982219299578-10.676987553440085,21.645746433028762-10.676987553440085,12.756764213720089,0,20.763598917439595,9.584501695369909,21.645746433030581,10.676987553440085.78026568984933.990655801540015,3.528590062369403,2.317242074250316,4.783890118589625,2.317242074250316h2.815831435918881c1.289260664801986,0,4.003624428740295-1.326586272710301,4.817850727160476-2.317242074250316.848186907011041-1.092485858070177,8.855021610730546-10.676987553440085,21.645746433039676-10.676987553440085,12.756764213721908,0,20.763598917441414,9.58113669604063,21.611785824450635,10.676987553440085.814226298420181.990655801540015,3.528590062371222,2.317242074250316,4.817850727169571,2.317242074250316h2.815831435909786c1.255300056231135,0,4.003210274981029-1.326586272710301,4.783890118589625-2.317242074250316.882147515590987-1.095850857399455,8.888982219312311-10.676987553440085,21.645746433041495-10.676987553440085Z"/>
    <path class="cls-1" d="M1165.408810231050666,468.199172669239488c2.510600112449538,0,5.055160833480841.193409807410717,7.565760945919465.603887955950086,19.338909972078909,3.134936910450051,34.470431863930571,18.137656981950386,37.625455231891465,37.306660372670194,1.934098074088979,11.667695124199781-.814226298431095,23.277667567659591-7.090726579550392,32.631485616930149,3.562550670949349,5.279114480919816,6.005229566238995,11.338546420899547,7.090726579550392,17.805091510099373,1.934098074088979,11.688040427819942-.814226298431095,23.298012871280662-7.090726579550392,32.648414152000441,3.562550670949349,5.279114480919816,6.005229566238995,11.341963189450325,7.090726579550392,17.808560047869832,1.934098074088979,11.687988658600261-.814226298431095,23.298012871270657-7.090726579550392,32.648414151990437,3.562550670949349,5.279114480919816,6.005229566238995,11.338546420909552,7.090726579550392,17.808508278659247,1.900137465509033,11.511610924701017-.678383864102216,23.162273975390235-7.090726579550392,32.68915652845044,3.528590062369403,5.238372104459813,6.005229566238995,11.260530205760006,7.090726579550392,17.76781767140983,1.934098074088979,11.6676433549801-.814226298431095,23.27761579844082-7.090726579550392,32.62801707915969,3.562550670949349,5.279114480919816,6.005229566238995,11.338598190130142,7.090726579550392,17.805143279330878,1.934098074088979,11.688040427809028-.814226298431095,23.301429639819617-7.090726579550392,32.651830920540306l-.033960608579946.057670911519381c3.596511279529295,5.279114480919816,6.005229566228081,11.338546420909552,7.091140733307839,17.805143279329059,2.204954635210015,13.269020649560844-1.526984924868884,26.711105802931343-10.280124709857773,36.879150150620262-8.719593330160933,10.171461116240607-21.442396935301076,16.013772945880191-34.911505621710603,16.013772945880191-2.510600112449538,0-5.055160833480841-.193409807408898-7.531800337341338-.603887955949176-6.514224541188014-1.072140554450016-12.620921779398486-3.487744147470949-17.947767481518895-7.033210975680049-7.395957903019735,4.868636332379538-16.183472450349655,7.637098931629225-25.377685993129489,7.637098931629225-2.510600112451357,0-5.055160833471746-.193409807408898-7.565760945919465-.603887955949176-6.514224541191652-1.072140554450016-12.586961170822178-3.487744147470949-17.913806872940768-7.033210975680049-7.395957903019735,4.868636332379538-16.149511841769709,7.637098931629225-25.377685993131308,7.637098931629225-9.262134759937908,0-18.083195762090327-2.765097599929504-25.479567818860232-7.674372770319678-7.362411448199055,4.909275170390174-16.183472450349655,7.674372770319678-25.411646601698521,7.674372770319678-9.262134759950641,0-18.083195762090327-2.765097599929504-25.445607210289381-7.674372770319678-7.39637205678082,4.909275170390174-16.217433058929601,7.674372770319678-25.445607210280286,7.674372770319678-9.262134759950641,0-18.083195762090327-2.765097599929504-25.4456072102912-7.674372770319678-7.396372056779001,4.909275170390174-16.217433058918687,7.674372770319678-25.445607210280286,7.674372770319678-9.262134759937908,0-18.083195762099422-2.765097599929504-25.445607210289381-7.674372770319678-7.396372056779001,4.909275170390174-16.217433058929601,7.674372770319678-25.445607210289381,7.674372770319678-25.275804167369643,0-45.8020929785107-20.376831071849665-45.8020929785107-45.411908364369083,0-9.153626473989789,2.781870827338935-17.903556567311171,7.735563988830108-25.228487099930135-4.953693161491174-7.324930532629878-7.735563988830108-16.071443857410486-7.735563988830108-25.22507033139118,0-9.157043242528744,2.781870827338935-17.906921566629535,7.735563988830108-25.231852099259413-4.953693161491174-7.324982301849559-7.735563988830108-16.071443857399572-7.735563988830108-25.225122100609951,0-13.794892390369569,6.208579063959405-26.144491685659887,16.01366940744083-34.48389186121949-9.805090343481424-8.335931637790054-16.01366940744083-20.705928005920214-16.01366940744083-34.480475092680535,0-17.825488582939215,10.41555299042011-33.293044484389611,25.513528427449273-40.716336535779192-.169803042908825-1.557269918810562-.237724260068717-3.114539837620214-.237724260068717-4.692206829260613,0-17.825488582940125,10.41596714419029-33.296409483719799,25.513528427440178-40.71975330432997-.033960608581765-.525871740809635-.101881825741657-1.04832671307031-.135842434321603-1.574198453879944-1.594491988267691.173012734569966-3.222944585129881.251028949710417-4.885357790568378.251028949710417-25.241843558789697,0-45.8020929785107-20.37683107184057-45.8020929785107-45.408543365040714,0-25.035077292519418,20.560249419721004-45.411908364369992,45.8020929785107-45.411908364369992,9.330055977108714,0,18.083195762090327,2.748117295640441,25.445607210289381,7.596356555180137,7.36241144818996-4.868584563159857,16.115551233180668-7.596356555180137,25.445607210280286-7.596356555180137,9.330055977110533,0,18.083195762090327,2.748117295640441,25.445607210280286,7.596356555180137,7.362411448209969-4.868584563159857,16.115551233189763-7.596356555180137,25.445607210289381-7.596356555180137,9.330055977110533,0,18.083195762090327,2.748117295640441,25.4456072102912,7.596356555180137,7.36241144818996-4.868584563159857,16.115551233178849-7.596356555180137,25.445607210280286-7.596356555180137,9.3300559770978,0,18.083195762088508,2.748117295640441,25.445607210287562,7.596356555180137,7.36241144818996-4.868584563159857,16.115551233182487-7.596356555180137,25.445607210280286-7.596356555180137,25.24184355880061,0,45.802092978519795,20.376831071850575,45.802092978519795,45.411908364369992,0,1.82869594136082-.135842434328879,3.603137739740305-.339191932060203,5.37411100035024,1.798255639771014-.213703341799373,3.630057734349975-.329096934069639,5.428313374111895-.329096934069639,1.798255639758281,0,3.596511279529295.098413287979383,5.394352765528311.312168398999347-1.458649553947907-12.566771174859241,2.307250614721852-25.11314527687955,10.585356033330754-34.755317883769749,8.719593330159114-10.171461116239698,21.442396935301076-16.013772945880191,34.911505621710603-16.013772945880191ZM1038.180774179629225,753.12888574435965c-7.362411448199055,4.909326939619859-16.183472450349655,7.677789538869547-25.411646601698521,7.677789538869547-9.262134759950641,0-18.083195762090327-2.768462599249688-25.445607210289381-7.677789538869547-7.39637205678082,4.909326939619859-16.217433058929601,7.677789538869547-25.445607210280286,7.677789538869547-9.262134759950641,0-18.083195762090327-2.768462599249688-25.4456072102912-7.677789538869547-7.396372056779001,4.909326939619859-16.217433058918687,7.677789538869547-25.445607210280286,7.677789538869547-1.832216248349141,0-3.630471888118336-.098361518759702-5.428313374108257-.312116629778757.203349497729505,1.754044725539643.339191932049289,3.565760362598667.339191932049289,5.357130696049353s-.101881825739838,3.586157435449422-.339191932049289,5.357182465279038c1.76429503116924-.193409807399803,3.596097125759115-.312168398999347,5.428313374108257-.312168398999347,9.2281741513616,0,18.049235153501286,2.768514368470278,25.445607210280286,7.677789538869547,7.362411448200874-4.909275170399269,16.18347245034056-7.677789538869547,25.4456072102912-7.677789538869547,9.228174151350686,0,18.049235153499467,2.768514368470278,25.445607210280286,7.677789538869547,7.362411448199055-4.909275170399269,16.183472450338741-7.677789538869547,25.445607210289381-7.677789538869547,9.228174151348867,0,18.049235153499467,2.768514368470278,25.411646601698521,7.677789538869547,7.396372056769906-4.909275170399269,16.217433058922325-7.677789538869547,25.479567818860232-7.677789538869547,9.2281741513616,0,18.049235153510381,2.768514368470278,25.411646601711254,7.677789538869547,7.39637205678082-4.909275170399269,16.217433058918687-7.677789538869547,25.445607210280286-7.677789538869547,1.798255639758281,0,3.630057734349975.098413287980293,5.428313374108257.312168398999347-.441073757800041-3.623483043349552-.407113149220095-7.226569013868357,0-10.734658464949462-1.798255639758281.213755111020873-3.596097125759115.332461933399827-5.428313374108257.332461933399827-2.510600112451357,0-5.055160833471746-.196774806739995-7.565760945919465-.603887955949176-6.514224541191652-1.072088785231244-12.586961170822178-3.487744147470949-17.913806872940768-7.033159206459459-7.395957903019735,4.871949562479131-16.149511841769709,7.637047162408635-25.377685993131308,7.637047162408635-9.262134759937908,0-18.083195762090327-2.768462599249688-25.479567818860232-7.677789538869547ZM926.491373169261351,621.049245434069235c-4.444284032771975,8.93987136296073-11.80669548097103,16.247873360520316-20.831520134601305,20.688947701630241.16980304289973,1.557269918810562.237724260070536,3.114539837610209.237724260070536,4.692206829260613h0c0,9.411488960789939-2.917713261660538,18.157950516339952-7.904952877979667,25.42521013744954,4.173013317889854-1.207775911900171,8.515415524918353-1.872751547919506,12.994074320038635-1.872751547919506,9.2281741513616.003364999330188,18.049235153501286,2.768462599249688,25.445607210280286,7.677789538859543,7.362411448200874-4.909326939609855,16.18347245034056-7.677789538859543,25.4456072102912-7.677789538859543,9.228174151350686,0,18.049235153499467,2.768462599249688,25.445607210280286,7.677789538859543,5.598116417007986-3.718479562779976,12.0104591324598-6.195170835870158,18.829914997109881-7.189243405960042-1.764295031181973-2.785442903539661-3.257319347470911-5.764295614490038-4.37677696936953-8.922942827889528-.508994974959933.020345303619251-1.01798994991259.020345303619251-1.560531379691383.020345303619251-19.915826164200553,0-36.913110759211122-12.661715925079989-43.190025194089685-30.290429701279209-.508580821191572.016980304289973-1.051536404731451.016980304289973-1.560531379691383.016980304289973-10.992469182539935,0-21.068830240908937-3.837238154380429-28.974197272647871-10.246112332060875ZM1038.214734788209171,551.38257723623974c-7.362411448199055,4.871949562490045-16.115551233178849,7.599721554510324-25.445607210278467,7.599721554510324-9.330055977110533,0-18.083195762090327-2.748117295640441-25.445607210289381-7.599721554510324-.373152540631054.271426022550258-.814226298431095.525871740810544-1.221339447642094.78031745906992,5.63207702559157,5.02466876266044,9.97447923262007,11.396217332429842,12.553000562231318,18.605806042010045.508994974959933-.020345303610156,1.051950558499811-.020345303610156,1.594491988278605-.020345303610156,19.881865555611512,0,36.879150150620262,12.661715925069984,43.190025194082409,30.293846469819982.508580821187934-.020345303620161,1.017575796147867-.020345303620161,1.560531379687745-.020345303620161,25.24184355880061.020345303620161,45.802092978519795,20.376831071850575,45.802092978519795,45.408543365050718,0,9.957706005209729-3.222944585138976,19.426865877529963-9.16025293419807,27.236977543740068,2.57810717583925,1.109414393129555,5.122667896879648,2.415603593010019,7.429918511599681,3.972873511819671,7.39637205678082-4.909275170400178,16.217433058918687-7.674372770320588,25.445607210280286-7.674372770320588,1.798255639758281,0,3.596511279529295.135687126660741,5.428313374108257.34944223769071-1.289260664798348-10.9687588796005,1.493024316290757-21.7407429524701,7.39637205678082-30.544875419540404-3.596511279529295-5.279114480919816-6.039190174809846-11.338598190129233-7.124687188130338-17.808560047869832-.678798017870577-4.342712822360227-.780679843610415-8.648100036799406-.271684868650482-12.855125732489796-1.798255639758281.213755111029968-3.596097125759115.332513702620417-5.428313374108257.332513702620417-2.510600112451357,0-5.055160833471746-.1967748067309-7.565760945919465-.607304724490859-19.304949363500782-3.134936910449142-34.43647125534153-18.134240213399607-37.625455231891465-37.303295373350011l.03354645482068-.020345303619251c-.712344472680343-4.305387214440998-.78026568984933-8.631119732500338-.271270714889397-12.858490731799975-1.798255639771014.217120110349242-3.596097125760934.332461933399827-5.428313374111895.332461933399827-9.3300559770978,0-18.083195762090327-2.748117295640441-25.445607210280286-7.599721554510324Z"/>
  </g>
</svg>