<?xml version="1.0" encoding="UTF-8"?>
<svg id="_레이어_2" data-name="레이어 2" xmlns="http://www.w3.org/2000/svg" viewBox="0 0 422.365789404349925 404.944790744031707">
  <g id="_레이어_1-2" data-name="레이어 1">
    <path d="M312.746314197689571,0c60.540994125340148,0,109.619475206660354,49.078303642585524,109.619475206660354,109.619482449052157,0,38.047911847390424-19.386101130990937,71.566826831509388-48.818392113869777,91.222533439842664-34.672281219500292,23.812567377406594-37.249560679270871,28.700388808862044-47.354616735421587,62.42436502667988-6.050675207148743,21.995652712570518-19.987944336478904,40.723912423083675-38.582335577550111,52.951512304985954-25.849737825219563,17.519851256571201-27.313513203658658,20.425558943559736-36.961950602539218,42.807579060781791-10.910961044530268,26.926218772170614-37.315060919350799,45.919318462689262-68.15512906568074,45.919318462689262-40.597662955478881,0-73.508093455890048-32.911393739241248-73.508093455890048-73.509056694718311,0-12.810065342435337,13.776520438943407-45.987653434376625-22.50769743544879-61.270042794862093-20.87257418217996-8.791227268889998-35.526445921490449-29.437969022264951-35.526445921490449-53.507800832228895,0-4.603991886049698.536625418910262-9.08266133133111,1.549978010849372-13.37718558596498,5.787160585830861-27.319205727842927-.148657444469791-33.608155802146939-12.323876688789824-40.252128186115442-8.937049314869-4.775810516701313-15.018770868120555-14.196416585151383-15.018770868120555-25.038096858279459.000094151171652-15.668737992260503,12.702539993450046-28.370997342810369,28.371661832761674-28.370997342810369,14.24197850579003,0,26.032072416568553,10.493291999277062,28.062007709610043,24.17045043395774,2.171277916349936,13.770201511226333,6.098902329949851,21.492552350204278,34.05041278581848,25.21275450862413,14.727059783981531,1.682119168559439,27.778656162410698,8.876687555588433,37.041682153061629,19.469649424829186,3.358531328149184,3.839817590211169,9.799368956069884,4.015431236983204,13.097151056688745.122454451486192,1.469482387410608-1.734322367419736,3.001611510420844-3.414544027918964,4.592592352890279-5.035913968951718v-.000941511632846h0v-.000955996427365c26.00065489761073-26.505667252838975,28.992778867730522-30.441359696891595,33.16864368700044-73.533724299506503C208.402896365609195,43.976422298940633,255.438557929319359.000144535737491,312.746314197689571,0ZM20.000461551568151,68.985034664885461c11.045508195040384.000182512592801,19.999538448431849,8.954846911421555,19.999538448431849,20.000228140739637-.000182514690096,11.045479505328331-8.954216277970772,19.998852276590696-19.999538448431849,19.999771859260363C8.954934052089811,108.985034664885461.000182108689842,100.030742310953428,0,88.985262805625098c0-11.045472485613573,8.954823490308627-20.000228140739637,20.000461551568151-20.000228140739637Z"/>
  </g>
</svg>